<svg width="200" height="190" viewBox="0 0 200 190" fill="none" xmlns="http://www.w3.org/2000/svg">
<path d="M46.4835 0.319828C44.1068 0.799797 41.8093 2.47969 40.3436 4.87953L39.1553 6.79941V24.2383C39.1553 40.5572 39.1949 41.7572 39.9079 43.1971C41.7697 46.9568 44.7009 48.6367 49.4544 48.6767H52.6233L56.3864 55.3563C58.4462 59.036 60.5853 62.5158 61.0606 63.1558C62.1698 64.5157 63.9523 64.6357 64.9822 63.5158C65.3783 63.0758 67.4777 59.556 69.6564 55.7163L73.6176 48.6767H86.8875C99.9991 48.6767 100.197 48.6767 102.138 47.7168C104.515 46.5968 105.584 45.4769 106.654 43.0771C107.446 41.3572 107.486 40.5172 107.486 24.6783C107.486 14.7589 107.327 7.47937 107.09 6.63942C106.535 4.63955 103.921 1.71974 101.861 0.839794C100.276 0.119843 98.573 0.0798416 74.2118 -0.000152588C59.9515 -0.000152588 47.4738 0.119843 46.4835 0.319828ZM99.286 5.83947C99.8406 6.07946 100.672 6.63942 101.108 7.11939C101.94 7.99933 101.94 8.31931 101.94 24.3183V40.6372L100.989 41.7572L100.039 42.8771L85.5803 43.0771C72.7461 43.2371 71.0428 43.3571 70.3694 43.957C69.9733 44.317 68.2304 47.1568 66.4874 50.2366C64.7445 53.3164 63.2393 55.8362 63.1204 55.8362C63.0016 55.8362 61.4964 53.3564 59.793 50.2766C58.0501 47.1968 56.3072 44.357 55.8715 43.997C55.2773 43.437 54.1682 43.2371 50.8012 43.0771C46.9984 42.9171 46.4042 42.7571 45.612 41.9571L44.7009 41.0372L44.5821 24.7183C44.4633 8.5193 44.4633 8.39931 45.3347 7.31937C45.8101 6.71941 46.5627 6.03946 47.038 5.87947C48.1868 5.3995 98.0581 5.3995 99.286 5.83947Z" fill="white" fill-opacity="0.8"/>
<path d="M54.723 17.4375C50.9203 18.6775 48.702 23.2375 50.0885 26.9575C50.6034 28.3175 52.2671 30.1575 53.6931 30.9175C54.2873 31.2375 55.6737 31.4775 56.7829 31.4775C59.0407 31.4775 60.4668 30.8775 62.0116 29.1975C65.9332 24.9975 63.3188 17.9175 57.5751 17.2775C56.5848 17.1975 55.3172 17.2775 54.723 17.4375ZM57.892 23.1575C59.2388 24.5175 57.6543 26.7575 55.9906 25.8775C54.6042 25.1175 55.1984 22.6775 56.7829 22.6775C57.1394 22.6775 57.6147 22.8775 57.892 23.1575Z" fill="white" fill-opacity="0.8"/>
<path d="M70.9242 17.6775C65.339 19.6775 64.5863 27.5975 69.6566 30.5975C71.7165 31.7975 75.5588 31.6775 77.2621 30.4375C81.9363 26.9175 81.2629 20.2775 75.9945 17.8375C74.1328 16.9575 72.984 16.9175 70.9242 17.6775ZM74.3705 23.3175C75.2419 24.1575 75.1627 24.9175 74.1328 25.6375C72.5879 26.7575 71.0034 25.1175 72.073 23.5175C72.786 22.5175 73.5386 22.4375 74.3705 23.3175Z" fill="white" fill-opacity="0.8"/>
<path d="M87.0854 17.7984C82.8865 19.8384 81.3813 24.6784 83.8372 28.3184C85.3028 30.4784 86.6496 31.2384 89.3829 31.3584C92.3934 31.5584 94.5324 30.4784 95.9188 28.0784C97.226 25.7984 97.0279 22.1584 95.4831 20.1184C93.4233 17.4384 89.8978 16.4384 87.0854 17.7984ZM91.1258 23.7584C91.6407 24.5184 91.6011 24.7184 90.8485 25.4784C90.0959 26.2384 89.8978 26.2784 89.1452 25.7584C88.036 24.9984 87.8776 24.1584 88.7095 23.3184C89.5413 22.4784 90.3731 22.6384 91.1258 23.7584Z" fill="white" fill-opacity="0.8"/>
<path d="M129.668 27.4783C128.876 28.2782 128.876 28.7982 128.876 50.8368V73.4353L129.906 74.2352C130.975 75.0752 131.173 75.0752 163.14 75.0752C195.107 75.0752 195.305 75.0752 196.375 74.2352L197.404 73.4353V50.8368C197.404 28.7982 197.404 28.2782 196.612 27.4783C195.82 26.6783 195.305 26.6783 163.14 26.6783C130.975 26.6783 130.46 26.6783 129.668 27.4783ZM185.085 34.5578C183.738 35.8377 178.272 40.9574 172.885 45.9171L163.14 54.9565L156.208 48.5169C152.405 44.9971 146.939 39.8775 144.047 37.1976L138.819 32.2779H163.18H187.541L185.085 34.5578ZM148.167 48.6369C150.623 50.9167 152.564 52.9166 152.445 53.0766C152.207 53.4766 134.937 66.2758 134.659 66.2758C134.54 66.2758 134.422 59.3962 134.422 51.0367V35.7977L139.096 40.1174C141.631 42.5173 145.751 46.357 148.167 48.6369ZM191.7 66.1558C191.621 66.2358 187.501 63.316 182.55 59.6362C173.835 53.1566 173.598 52.9566 174.311 52.2367C174.707 51.8367 178.787 48.0369 183.342 43.7572L191.661 36.0377L191.78 50.9967C191.819 59.2362 191.78 66.0758 191.7 66.1558ZM174.786 69.3956C168.488 69.4356 158.11 69.4356 151.772 69.3956L140.165 69.2756L148.365 63.156C152.881 59.8362 156.723 57.0764 156.882 57.0764C157.08 57.0764 158.347 58.0763 159.694 59.2762C161.239 60.6361 162.546 61.4761 163.14 61.4761C163.734 61.4761 165.121 60.5961 166.785 59.1562L169.438 56.8364L177.836 63.036L186.234 69.2756L174.786 69.3956Z" fill="white" fill-opacity="0.8"/>
<path d="M104.436 64.7546C103.604 65.7546 100.752 74.3546 100.752 75.9146C100.752 77.8746 102.534 79.0346 104.357 78.2746C105.585 77.7546 106.139 76.5546 108.041 70.2346C109.268 66.0746 109.308 65.7146 108.278 64.6746C107.209 63.5946 105.466 63.6346 104.436 64.7546Z" fill="white" fill-opacity="0.8"/>
<path d="M61.4966 86.7544L44.8992 103.273L28.1434 111.953C17.2502 117.592 11.1499 120.952 10.6746 121.632C9.88237 122.672 9.88237 122.672 10.7934 124.792C11.3084 125.912 11.7837 127.152 11.863 127.472C11.9818 127.912 10.4369 128.872 6.3173 130.992C1.76194 133.351 0.533971 134.151 0.137853 135.071C-0.297877 136.111 0.0586293 136.911 4.81205 146.551C7.6641 152.23 10.3577 157.39 10.833 157.99C11.348 158.63 12.061 159.07 12.6552 159.07C13.1701 159.07 16.1014 157.79 19.1515 156.27C22.2016 154.71 24.8556 153.47 25.0141 153.47C25.2121 153.47 25.7667 154.39 26.2817 155.51C27.8265 158.83 28.8564 158.99 33.4118 156.67L36.5411 155.07L40.2646 162.39C42.3245 166.389 45.7311 173.149 47.8701 177.429C50.0092 181.668 52.3463 185.868 53.0989 186.708C56.3471 190.308 60.942 190.988 66.0123 188.588C71.4788 185.948 73.8159 182.788 73.8159 177.989C73.8159 175.509 73.697 175.229 65.8935 159.75L58.0107 144.031L60.942 142.551C63.7545 141.151 64.7448 140.951 86.452 137.311C98.8902 135.231 109.427 133.311 109.863 133.071C111.645 132.112 111.368 130.952 107.367 122.792C105.228 118.552 103.525 114.913 103.525 114.753C103.525 114.553 104.238 114.033 105.07 113.553C113.309 108.873 113.665 95.6739 105.664 90.3542C101.782 87.7144 96.4738 87.1944 92.3938 88.9943L90.6113 89.7943L86.254 80.9948C83.8773 76.1551 81.5402 71.7554 81.0648 71.2355C79.2031 69.1556 79.3219 69.0756 61.4966 86.7544ZM85.8975 92.4741C89.7794 100.154 95.4043 111.393 98.4544 117.392C101.505 123.392 103.881 128.432 103.762 128.552C103.366 128.952 64.5467 135.431 64.2298 135.151C64.0714 134.991 60.7044 128.472 56.7828 120.672L49.613 106.473L63.9525 92.1541C71.8353 84.2746 78.4108 77.955 78.5693 78.155C78.7277 78.315 82.0155 84.7546 85.8975 92.4741ZM101.386 94.234C105.466 96.1138 107.327 101.434 105.268 105.513C104.673 106.753 101.742 109.473 101.029 109.473C100.752 109.473 98.8902 106.153 96.87 102.073L93.2257 94.6339L94.4932 94.074C96.3154 93.274 99.4447 93.354 101.386 94.234ZM51.8709 123.152C55.5548 130.472 58.5653 136.671 58.5653 136.991C58.5653 137.751 30.7578 151.99 30.4013 151.39C28.3811 148.11 16.656 124.112 16.9729 123.992C17.2106 123.912 23.4296 120.712 30.837 116.873C38.2444 113.033 44.5031 109.873 44.7408 109.873C45.0181 109.873 48.2266 115.873 51.8709 123.152ZM18.7158 140.551C22.9543 149.19 23.1127 148.03 17.4878 150.91L14.002 152.67L10.2389 145.071C8.17906 140.911 6.47575 137.391 6.47575 137.271C6.47575 137.031 14.0416 133.111 14.5962 133.111C14.8338 133.071 16.656 136.431 18.7158 140.551ZM60.7044 161.67C68.9832 178.069 69.1813 178.709 67.3195 180.948C65.9331 182.628 62.4869 184.388 60.5855 184.428C59.6348 184.428 58.5257 184.148 57.8919 183.748C57.1393 183.228 54.723 178.789 49.2961 168.029C45.1369 159.79 41.7303 152.91 41.7303 152.75C41.7303 152.47 52.3463 146.711 52.9008 146.671C53.0197 146.671 56.5451 153.43 60.7044 161.67Z" fill="white" fill-opacity="0.8"/>
<path d="M123.331 85.5142C120.835 86.8342 118.538 88.1142 118.3 88.3542C117.389 89.1142 117.666 91.3542 118.815 92.2342C119.409 92.7142 120.083 93.0742 120.36 93.0742C120.994 93.0742 130.025 88.3542 130.976 87.5542C132.56 86.1542 131.214 83.0742 128.995 83.0742C128.361 83.0742 125.826 84.1942 123.331 85.5142Z" fill="white" fill-opacity="0.8"/>
<path d="M168.33 109.193C166.231 110.393 165.319 112.273 165.319 115.272C165.319 118.752 164.329 122.072 162.507 124.952C160.645 127.792 156.13 132.271 153.951 133.391L152.485 134.151L151.653 132.911L150.822 131.671L141.988 131.551C134.145 131.471 133.036 131.551 132.402 132.111C131.689 132.751 131.649 133.831 131.649 152.23C131.649 162.909 131.808 171.869 131.966 172.109C132.719 173.269 134.185 173.469 142.147 173.469C150.267 173.469 150.307 173.469 151.257 172.469C151.812 171.949 152.248 171.029 152.248 170.469C152.248 169.909 152.366 169.469 152.485 169.469C152.604 169.469 153.99 170.109 155.575 170.869C160.011 173.109 163.022 173.509 177.203 173.749C186.314 173.909 190.156 173.829 191.463 173.469C195.068 172.469 197.564 168.469 196.692 164.949C196.336 163.589 196.375 163.269 197.088 162.509C198.831 160.669 199.425 157.71 198.593 155.19C198.237 154.19 198.316 153.75 198.95 152.63C200.455 149.91 200.336 146.83 198.633 144.59C197.999 143.791 197.92 143.191 198.078 141.191C198.197 139.791 198.118 138.191 197.841 137.351C197.247 135.551 195.147 133.671 193.167 133.111C192.335 132.871 188.136 132.671 183.818 132.671H176.015L177.361 129.951C180.689 123.272 180.966 115.672 177.995 111.433C175.856 108.433 171.42 107.393 168.33 109.193ZM173.361 114.592C173.717 114.952 174.193 116.152 174.43 117.232C175.024 119.992 174.351 123.272 172.133 128.072C169.914 132.951 169.479 136.071 170.826 137.431C171.618 138.231 172.014 138.271 181.719 138.271C191.622 138.271 191.82 138.271 192.414 139.151C192.85 139.751 192.889 140.191 192.612 140.751C192.295 141.391 191.701 141.471 188.334 141.471C183.66 141.471 182.194 141.911 181.521 143.511C181.125 144.55 181.164 144.87 181.838 145.79C182.63 146.87 182.709 146.87 188.255 147.07C193.919 147.27 194.593 147.47 194.632 148.91C194.632 150.07 193.285 150.39 187.661 150.59C182.432 150.75 181.877 150.87 181.362 151.63C180.61 152.71 180.61 153.87 181.402 154.99C181.956 155.79 182.313 155.87 186.433 155.91C192.216 155.99 193.206 156.19 193.365 157.47C193.642 159.19 192.612 159.469 186.631 159.469C181.679 159.469 181.085 159.549 180.372 160.269C179.382 161.269 179.342 162.709 180.332 163.909C181.045 164.789 181.402 164.869 185.878 164.989C190.909 165.149 191.78 165.469 191.265 167.029C191.146 167.509 190.592 167.989 190.037 168.109C188.413 168.509 164.488 167.949 162.151 167.469C160.962 167.229 158.625 166.309 157.001 165.429C155.337 164.589 153.594 163.869 153.119 163.869H152.248V152.15V140.391L155.615 138.711C158.189 137.431 159.695 136.311 162.23 133.751C167.973 128.032 170.152 123.752 170.707 117.072C170.944 114.112 171.063 113.872 171.855 113.872C172.331 113.872 173.004 114.192 173.361 114.592ZM146.702 152.47V167.869H141.75H136.799V152.47V137.071H141.75H146.702V152.47Z" fill="white" fill-opacity="0.8"/>
<path d="M120.439 110.593C119.567 111.593 119.567 113.593 120.478 114.393C120.874 114.753 123.568 115.833 126.42 116.753C130.857 118.153 131.768 118.353 132.639 117.953C133.986 117.313 134.58 115.713 133.946 114.353C133.511 113.433 132.639 112.993 128.48 111.593C122.974 109.713 121.389 109.513 120.439 110.593Z" fill="white" fill-opacity="0.8"/>
</svg>
