<svg width="732" height="453" viewBox="0 0 732 453" fill="none" xmlns="http://www.w3.org/2000/svg">
<path d="M371.046 3.27046C369.932 6.17774 366.145 26.6859 363.844 42.7938C363.027 48.5298 361.839 74.1453 359.983 126.398L357.31 201.751L354.785 205.209C353.374 207.173 352.261 209.216 352.261 209.766C352.261 210.395 350.998 211.023 349.291 211.338C346.692 211.809 346.024 211.573 343.202 209.138C338.302 204.973 328.501 198.451 316.249 191.301C310.161 187.687 301.622 182.501 297.316 179.672C284.545 171.264 277.788 168.514 269.472 168.514C264.274 168.514 263.458 168.043 262.789 165.135C261.973 161.914 259.448 160.264 252.617 158.457C249.202 157.514 240.44 154.842 233.089 152.406C211.557 145.256 205.914 144.077 192.772 143.763L181.486 143.449L179.184 141.091C177.996 139.756 175.917 138.577 174.58 138.341C167.304 137.241 148.073 136.141 129.139 135.748C111.542 135.434 105.676 135.591 97.2118 136.691C73.3033 139.756 47.0931 149.342 40.0393 157.671C37.3663 160.735 37.3663 160.735 37.5891 167.336C37.8861 177.079 38.2573 176.765 19.6206 186.036C9.67106 190.987 5.51306 194.051 2.84006 198.294C-0.946688 204.344 -0.946688 210.552 2.84006 216.366C5.43881 220.374 9.52256 223.36 19.3236 228.467C35.7328 237.11 55.7061 243.946 83.9953 250.625C92.4598 252.668 101.444 254.947 103.894 255.811C116.368 260.211 131.59 270.033 154.459 288.341C161.438 293.999 169.828 300.049 173.021 301.856C178.738 304.999 188.242 308.378 191.658 308.378C193.217 308.378 192.994 308.85 189.653 313.25C187.574 315.921 185.272 320.007 184.456 322.286C182.08 329.043 180.001 343.108 180.001 352.616C180.001 362.752 181.189 368.331 185.198 376.817C186.832 380.117 189.43 386.875 191.064 391.825C196.781 409.426 199.231 414.298 206.285 422.234C208.438 424.669 211.854 428.913 213.933 431.82C218.388 437.792 222.397 440.384 230.491 442.349C233.535 443.056 239.252 445.335 243.113 447.299C255.364 453.664 262.344 452.878 279.793 443.528C301.102 432.134 314.467 419.562 321.818 403.926C324.64 398.111 325.753 392.139 324.343 390.646C324.046 390.411 322.264 391.039 320.259 392.061C314.17 395.361 308.453 394.261 308.453 389.861C308.453 387.268 311.2 369.431 312.908 360.631C316.769 340.751 324.268 315.528 331.768 296.985L335.554 287.556L339.267 286.298L342.979 285.041L343.202 287.32C343.573 290.699 345.875 290.227 347.286 286.456C348.177 284.255 348.994 283.313 350.553 282.92C351.667 282.605 353.226 282.213 353.968 281.977C356.27 281.191 355.379 284.727 350.479 295.727C343.722 310.814 342.237 316.393 342.311 326.058C342.311 348.609 342.831 351.909 346.395 355.13C348.4 356.859 349.365 357.095 353.968 357.095C357.681 357.095 360.28 356.545 362.507 355.523L365.7 353.952L367.927 355.759C369.635 357.095 371.491 357.566 375.724 357.723C381.886 358.116 385.005 357.095 386.713 354.345C388.198 351.909 389.608 345.23 388.792 344.366C388.42 343.973 388.42 341.851 388.717 339.572C389.014 337.372 389.311 332.108 389.311 328.022C389.386 318.514 387.752 312.15 381.812 298.556C374.758 282.37 374.536 280.484 379.733 281.82C381.441 282.291 383 283.234 383.223 283.941C385.079 290.62 387.901 292.584 387.901 287.241V284.177L391.39 285.277C393.321 285.906 395.177 286.848 395.474 287.399C399.335 293.763 412.18 332.501 416.041 349.237C419.011 362.124 421.907 378.939 422.501 386.796C422.947 392.611 422.872 393.161 421.462 393.947C419.011 395.361 415.299 394.968 411.141 392.925L407.28 390.961L406.834 393.475C405.201 402.826 419.605 423.177 436.089 434.806C445.296 441.249 462.225 450.049 467.942 451.385C475.144 452.957 480.342 452.171 487.544 448.399C490.885 446.671 496.825 444.313 500.612 443.213C509.596 440.699 513.383 438.263 517.69 432.291C519.62 429.698 523.407 424.905 526.154 421.762C532.168 414.612 535.287 408.483 539.668 395.047C541.45 389.389 544.494 381.296 546.424 377.21C551.919 365.188 552.958 356.702 550.879 341.458C548.652 325.507 546.573 319.614 541.004 312.935C537.96 309.4 537.886 309.164 539.519 309.164C542.489 309.164 551.919 306.099 556.671 303.506C561.943 300.756 570.853 294.313 580.579 286.298C597.063 272.784 615.997 260.761 627.505 256.676C629.956 255.733 638.94 253.375 647.404 251.411C673.763 245.204 690.766 239.546 708.661 231.06C722.768 224.381 728.931 219.195 730.861 212.595C731.901 208.902 731.901 207.409 730.936 203.794C729.154 197.116 720.912 190.358 706.804 184.151C702.721 182.343 698.488 180.222 697.449 179.436C694.553 177.236 693.514 173.936 694.108 168.436C694.405 164.821 694.256 162.935 693.365 160.971C689.356 152.013 662.774 141.327 634.93 137.477C624.461 136.063 601.369 135.905 579.466 137.084C558.304 138.263 555.26 138.813 552.364 141.799L550.063 144.156L538.554 144.47C525.337 144.863 519.62 146.12 498.162 153.192C490.811 155.628 481.975 158.378 478.486 159.242C471.877 161.05 468.833 163.171 468.833 166.078C468.833 168.357 466.606 169.3 461.26 169.3C454.206 169.3 446.558 172.522 432.302 181.558C425.471 185.801 416.041 191.615 411.289 194.365C406.537 197.194 399.558 201.673 395.845 204.423C386.638 211.102 386.341 211.259 382.406 210.63C379.659 210.159 378.768 209.609 377.877 207.802C377.209 206.466 375.724 204.266 374.461 202.773L372.234 200.023L394.138 127.341L416.041 54.6587L419.011 36.7435C422.724 13.8781 423.021 11.7566 422.427 9.00645C421.313 3.74191 418.789 7.82782 416.858 17.8069C415.967 22.0499 415.225 30.2218 414.928 37.2935L414.482 49.4727L392.578 122.548C380.476 162.7 370.526 195.701 370.378 195.858C370.303 196.015 369.487 195.387 368.67 194.523C366.591 192.322 365.923 192.401 362.953 195.544C361.542 197.037 360.428 197.823 360.428 197.273C360.428 196.801 361.542 162.071 363.027 120.19L365.7 43.9724L368.596 34.5434C373.348 19.2212 375.798 6.41347 374.833 2.24898C374.164 -0.501155 372.382 -0.0297032 371.046 3.27046ZM89.5641 144.942H91.7173L89.6383 147.692C86.5198 151.935 83.3271 153.742 79.6888 153.428C75.5308 153.113 74.4171 151.306 76.4961 148.32C78.3523 145.727 82.2876 143.999 85.2576 144.549C86.4456 144.784 88.3761 144.942 89.5641 144.942ZM650.82 145.727C653.864 146.67 656.166 149.656 655.795 152.249C655.646 153.663 654.978 154.056 652.676 154.213C648.815 154.528 646.068 153.271 642.801 149.342L640.054 146.12L642.207 145.649C645.622 144.863 647.924 144.863 650.82 145.727ZM133.594 149.028C136.787 150.128 137.901 152.563 135.97 154.213C135.376 154.763 128.1 156.885 119.784 159.007C90.3066 166.55 90.4551 166.471 88.8216 162.621C86.5198 157.199 94.0191 151.463 107.236 148.399C113.027 147.142 129.139 147.456 133.594 149.028ZM158.988 148.477C163.888 150.049 165.076 151.463 163.22 153.663C161.958 155.156 161.958 155.314 163.146 157.435C164.185 159.242 164.185 159.871 163.443 160.499C161.958 161.835 153.196 162.464 150.746 161.521C148.667 160.657 148.667 160.578 149.929 159.085C150.672 158.221 151.86 157.356 152.602 157.121C154.236 156.571 153.642 154.371 151.786 154.371C151.117 154.371 149.929 153.663 149.187 152.799C147.925 151.385 147.925 151.149 149.113 149.263C150.598 146.906 153.345 146.67 158.988 148.477ZM581.842 149.42C582.584 150.128 583.178 151.07 583.178 151.463C583.178 152.799 580.802 155.156 579.466 155.156C577.015 155.156 577.312 157.278 579.911 158.535C582.955 160.107 583.104 161.207 580.431 162.307C578.5 163.092 571.15 162.7 568.625 161.678C567.214 161.128 567.289 159.164 568.848 157.356C569.962 156.021 569.962 155.864 568.774 154.921C566.472 153.113 567.66 151.07 571.669 149.578C576.347 147.77 580.06 147.692 581.842 149.42ZM624.61 149.342C634.856 151.542 643.321 156.964 643.321 161.285C643.321 163.564 641.167 166.157 639.311 166.157C635.079 166.157 596.098 156.099 595.058 154.763C593.944 153.349 594.687 150.756 596.395 150.049C600.998 148.006 616.813 147.613 624.61 149.342ZM56.3743 156.728C57.4138 160.107 52.7361 165.528 49.8403 164.35C48.1326 163.642 49.5433 159.714 52.4391 157.121C55.1121 154.763 55.7803 154.685 56.3743 156.728ZM679.555 158.535C680.817 159.949 682.005 161.992 682.079 163.014C682.302 164.743 682.005 164.978 680.149 164.821C677.03 164.585 675.248 162.464 675.248 158.928C675.248 155.156 676.362 155.078 679.555 158.535ZM206.879 159.242C208.438 159.714 210.22 160.814 210.963 161.6C212.968 163.957 211.037 164.743 204.874 164.035C202.053 163.721 198.118 163.485 196.187 163.564C192.994 163.642 192.623 163.485 192.623 162.071C192.623 161.128 193.217 159.714 193.885 158.849C195.073 157.592 195.816 157.435 199.677 157.907C202.127 158.142 205.394 158.771 206.879 159.242ZM537.217 159.085C538.108 159.635 538.628 160.735 538.628 162.307C538.628 164.507 538.48 164.664 536.252 164.193C534.916 163.878 531.5 164.114 528.679 164.585C523.184 165.528 519.026 165.057 519.546 163.564C520.585 160.264 533.505 157.042 537.217 159.085ZM79.3176 161.364C81.0253 163.328 80.2086 165.057 76.4961 166.943C72.5608 168.907 69.9621 168.986 68.2543 166.943C66.5466 164.978 67.2148 163.407 70.6303 161.521C74.1943 159.478 77.6841 159.399 79.3176 161.364ZM660.472 162.228C662.106 163.171 663.665 164.428 663.888 165.057C664.482 166.628 662.032 169.3 659.953 169.3C656.314 169.3 651.488 166.078 651.488 163.721C651.488 160.499 655.943 159.792 660.472 162.228ZM193.663 165.843C194.405 167.964 194.182 169.221 192.623 170.871C190.396 173.229 185.644 172.914 181.114 170.086L177.476 167.807L179.481 167.021C180.669 166.55 183.342 166.157 185.421 166.078C187.574 166.078 189.95 165.764 190.767 165.371C192.92 164.428 193.143 164.428 193.663 165.843ZM546.796 166.943C550.582 166.943 553.478 167.65 553.478 168.514C553.478 169.614 546.127 173.229 543.826 173.229C539.445 173.229 536.326 170.007 537.886 167.021C538.48 165.685 538.999 165.607 541.004 166.235C542.341 166.628 544.939 166.943 546.796 166.943ZM120.526 168.436C122.754 169.929 116.665 171.657 113.621 170.4C112.656 170.007 112.582 169.693 113.25 168.828C114.215 167.571 118.893 167.336 120.526 168.436ZM618.076 169.3C620.749 171.186 614.363 172.522 611.245 170.793C609.982 170.086 609.908 169.771 610.725 169.221C612.136 168.278 616.665 168.357 618.076 169.3ZM106.493 170.086C105.082 171.107 104.266 171.107 104.266 170.086C104.266 169.614 105.008 169.3 105.973 169.3C107.31 169.3 107.384 169.457 106.493 170.086ZM627.728 170.793C627.728 171.186 627.06 171.343 626.243 171.107C625.426 170.871 624.758 170.557 624.758 170.4C624.758 170.243 625.426 170.086 626.243 170.086C627.06 170.086 627.728 170.4 627.728 170.793ZM63.6508 174.486C66.1011 174.957 66.3238 175.114 65.1358 175.979C63.7993 177 58.8246 178.886 55.0378 179.829C53.1073 180.3 52.9588 180.222 53.4043 178.572C54.6666 174.25 56.9683 173.386 63.6508 174.486ZM123.571 176.136C125.13 177.865 128.026 185.879 128.026 188.551C128.026 189.651 127.06 191.615 125.947 192.951C124.239 194.994 123.348 195.387 120.675 195.387C118.967 195.387 116.517 194.68 115.18 193.894C113.176 192.637 112.879 192.008 113.027 189.965C113.176 188.551 112.582 186.115 111.765 184.308C109.315 179.279 109.686 177.393 113.398 175.507C117.111 173.7 121.64 173.936 123.571 176.136ZM618.001 176.215C622.011 178.336 622.308 179.436 620.006 184.622C618.744 187.608 618.15 189.965 618.447 191.301C618.818 193.03 618.521 193.501 616.219 194.68C612.952 196.33 608.572 196.408 606.493 194.837C603.597 192.715 602.929 189.572 604.339 184.858C606.27 178.808 607.532 176.372 609.388 175.586C611.987 174.486 615.254 174.722 618.001 176.215ZM676.659 176.843C679.183 180.222 678.738 181.008 675.1 180.143C673.318 179.75 670.422 178.65 668.566 177.786C665.373 176.215 665.299 176.136 667.081 175.586C668.12 175.193 670.348 174.957 672.055 174.879C674.58 174.8 675.397 175.193 676.659 176.843ZM173.17 177.157C175.917 178.965 175.917 179.908 173.244 182.029C171.313 183.522 164.037 185.801 160.993 185.801C158.765 185.801 155.498 182.579 155.498 180.458C155.498 178.336 156.983 177.236 160.77 176.45C166.561 175.272 170.571 175.507 173.17 177.157ZM204.8 176.765C208.216 177.315 208.29 177.393 206.953 178.965C206.211 179.829 204.652 181.008 203.389 181.636C201.385 182.658 202.35 182.658 212.225 182.343C220.987 182.029 225.59 182.265 234.129 183.522C260.71 187.451 287.218 195.151 313.428 206.466C325.456 211.731 328.872 213.695 331.174 216.838C332.659 218.959 333.698 219.588 335.48 219.588C338.45 219.588 345.355 223.124 346.395 225.245C347.583 227.603 346.766 228.781 343.351 229.331C341.643 229.567 337.336 230.824 333.772 232.082L327.238 234.282L317.289 232.396C311.794 231.374 303.33 230.353 298.429 230.117L289.519 229.646L269.101 240.018C257.889 245.675 247.717 251.097 246.454 251.961C245.266 252.904 239.92 258.09 234.574 263.59C216.309 282.448 204.28 288.734 192.92 285.198C185.05 282.841 180.743 277.577 180.595 270.191C180.52 265.162 182.228 263.04 189.727 258.954C193.143 257.068 202.795 251.568 211.186 246.618C251.058 223.36 264.274 219.588 286.772 225.167C290.188 225.953 294.271 226.66 295.756 226.66C299.023 226.66 308.973 224.067 311.869 222.495C313.725 221.474 313.428 221.395 306.82 220.138C296.128 218.095 281.797 216.602 268.358 216.052C252.32 215.424 243.336 214.481 231.976 212.123C226.852 211.023 217.348 209.295 210.814 208.195C188.688 204.423 178.516 201.201 178.516 197.744C178.516 195.544 180.966 193.58 190.767 187.687C195.667 184.779 199.825 182.265 199.974 182.108C200.197 181.951 199.603 181.322 198.712 180.615C197.821 179.986 197.078 178.965 197.078 178.336C197.078 177.079 199.306 175.507 200.494 175.9C200.939 176.136 202.87 176.529 204.8 176.765ZM533.876 177.55C535.287 178.729 535.213 178.808 533.208 180.693L531.203 182.579L536.549 185.879C551.176 194.758 553.924 197.037 553.107 199.394C552.067 202.223 540.633 205.602 520.437 208.98C513.903 210.08 504.399 211.809 499.276 212.909C488.138 215.188 479.154 216.209 463.264 216.838C447.969 217.467 438.019 218.409 426.585 220.531L417.304 222.26L420.274 223.595C423.912 225.167 433.045 227.446 436.089 227.446C437.277 227.446 441.212 226.66 444.85 225.717C453.835 223.36 468.239 223.36 476.258 225.717C485.094 228.231 498.385 234.675 515.611 244.654C524.372 249.84 534.767 255.654 538.628 257.697C549.766 263.512 552.364 267.205 550.508 274.512C548.058 284.177 536.475 289.441 525.486 285.748C517.69 283.155 506.849 274.905 496.306 263.59L486.95 253.454L465.418 242.218L443.959 230.981L434.678 231.06C428.738 231.06 422.056 231.689 416.116 232.789L406.834 234.517L400.226 232.16C396.662 230.903 391.687 229.41 389.311 228.86C386.935 228.31 384.931 227.524 384.931 227.053C384.931 224.617 391.836 220.374 395.845 220.374C398.37 220.374 399.038 219.902 400.82 216.917C403.567 212.359 435.049 199.237 459.923 192.244C483.386 185.644 503.656 182.501 519.175 183.051C528.307 183.365 529.792 183.286 528.159 182.501C525.783 181.243 523.778 179.515 523.778 178.729C523.778 178.415 525.337 177.786 527.342 177.315C532.243 176.215 532.243 176.215 533.876 177.55ZM573.971 178.336C576.199 179.829 576.273 182.422 574.12 184.779C572.263 186.901 570.63 186.979 565.135 185.486C556.671 183.129 554.443 180.458 558.527 177.707C560.161 176.529 561.571 176.372 566.398 176.686C569.813 176.922 573.006 177.629 573.971 178.336ZM99.1423 181.715C101.221 183.522 100.627 185.565 97.8058 186.272C96.6921 186.586 92.2371 188.629 87.9306 190.908C83.6241 193.187 79.7631 194.837 79.3176 194.68C78.9463 194.523 73.7488 196.88 67.8831 199.866C56.1516 205.759 54.7408 205.916 53.0331 201.437C51.7708 198.373 52.5876 195.78 55.7803 192.008C58.8988 188.315 68.4028 183.286 74.5656 181.951C76.7931 181.479 79.3176 180.929 80.1343 180.772C80.9511 180.615 85.1833 180.458 89.4898 180.379C96.1723 180.3 97.6573 180.536 99.1423 181.715ZM658.913 183.051C667.6 185.879 675.916 191.222 677.847 195.23C680.074 199.787 678.441 205.445 674.951 205.445C673.986 205.445 668.64 203.087 663.071 200.259C657.428 197.43 652.676 195.308 652.453 195.465C652.305 195.701 647.924 193.737 642.727 191.222C637.529 188.708 632.926 186.586 632.48 186.586C630.847 186.586 630.698 184.229 632.332 182.501C633.817 180.929 634.411 180.929 644.36 181.322C651.043 181.558 656.314 182.186 658.913 183.051ZM50.6571 184.701C48.2811 188.944 45.0883 192.008 42.2668 192.558C37.8861 193.423 36.0298 191.694 36.9951 187.765C37.6633 184.936 40.5591 183.286 45.8308 182.658C48.3553 182.343 50.8056 182.029 51.3253 181.951C51.9193 181.951 51.6223 182.893 50.6571 184.701ZM687.871 183.836C691.806 184.386 694.553 186.822 694.553 189.729C694.553 196.015 686.905 194.523 681.931 187.294C679.109 183.129 679.109 182.501 682.153 182.972C683.416 183.208 686.014 183.601 687.871 183.836ZM166.636 191.222C166.636 193.03 163.814 196.251 160.621 198.058C157.057 200.023 147.256 200.573 145.92 198.923C144.806 197.43 145.771 194.994 148.37 193.265C150.375 191.851 158.839 189.887 163.517 189.808C166.116 189.729 166.636 189.965 166.636 191.222ZM574.491 191.38C580.282 192.322 581.916 193.03 584.515 195.465C586.445 197.351 586.668 199.551 584.96 200.259C582.881 201.123 576.867 200.73 573.006 199.551C570.481 198.766 568.477 197.43 566.917 195.623C562.611 190.437 564.022 189.651 574.491 191.38ZM102.187 193.423C102.855 194.208 103.894 196.015 104.563 197.43C105.751 199.866 105.751 200.023 103.969 201.909C102.929 203.009 98.6968 205.68 94.4646 207.802C90.2323 210.002 84.2923 213.381 81.2481 215.266C74.1201 219.824 71.0758 219.981 67.4376 216.131C63.2053 211.652 64.1706 208.509 70.9273 203.873C76.0506 200.416 84.3666 196.566 92.3856 193.973C99.2166 191.772 100.776 191.694 102.187 193.423ZM640.87 195.308C649.78 198.294 659.507 203.323 663.442 206.859C667.749 210.788 667.378 215.816 662.477 218.488C659.136 220.295 655.498 219.509 649.261 215.581C646.291 213.695 640.054 210.002 635.302 207.409C625.501 202.066 624.981 201.28 628.099 196.094C630.401 192.087 631.292 192.087 640.87 195.308ZM43.2321 200.416C45.6081 202.144 45.2368 204.187 42.1183 206.937C38.4801 210.08 35.0646 210.238 33.2083 207.33C31.6491 204.737 32.3916 203.244 36.6981 200.887C40.5591 198.844 41.0788 198.766 43.2321 200.416ZM695.296 201.673C699.082 203.716 699.973 206.152 697.82 208.666C695.964 210.788 692.994 210.473 689.504 207.802C686.014 205.13 685.717 203.794 687.871 201.516C689.801 199.473 691.212 199.551 695.296 201.673ZM117.111 205.995C119.784 208.98 121.343 213.223 120.526 215.424C119.561 218.095 116.071 219.588 110.577 219.588C105.973 219.588 105.528 219.745 103.746 221.945C100.85 225.638 98.3256 226.66 92.3113 226.66C84.8863 226.66 82.4361 224.224 85.4061 219.745C87.7821 216.131 94.0191 214.402 99.6621 215.895C101.964 216.524 102.038 216.445 102.038 214.245C102.038 211.181 104.414 208.195 108.572 205.837C113.101 203.402 114.735 203.402 117.111 205.995ZM183.342 207.016C187.426 207.959 191.361 209.295 192.029 209.923C193.588 211.416 193.737 214.324 192.4 215.502C191.881 216.052 183.045 220.217 172.873 224.853C154.83 233.024 154.236 233.26 148.741 233.26C143.692 233.26 142.504 233.024 137.381 230.353C133.446 228.231 131.367 226.66 130.624 225.088C128.323 220.452 130.55 217.467 139.906 212.516C154.607 204.659 166.339 203.244 183.342 207.016ZM623.273 206.623C627.58 208.902 629.213 211.181 629.213 214.638C629.213 217.545 629.213 217.545 633.223 216.366C639.163 214.638 647.033 218.802 647.033 223.674C647.033 226.66 645.251 227.446 638.494 227.446H632.851L629.213 223.831C625.649 220.295 625.575 220.295 620.006 220.138C615.031 219.981 614.14 219.745 612.433 217.859C610.799 216.209 610.502 215.345 610.948 213.145C611.616 209.452 615.477 204.659 617.779 204.659C618.818 204.659 621.268 205.523 623.273 206.623ZM578.723 207.802C586.148 210.002 597.508 215.974 599.884 218.959C600.924 220.217 601.741 222.181 601.741 223.281C601.741 228.231 591.271 234.124 582.436 234.124C577.981 234.124 576.273 233.496 559.789 226.031C537.663 216.131 538.331 216.445 538.034 214.009C537.589 210.316 539.593 209.53 557.191 205.916C561.052 205.13 573.303 206.23 578.723 207.802ZM232.347 216.445C242.296 218.567 243.262 219.038 242.965 221.788C242.742 223.595 241.777 224.381 235.243 227.838C231.085 229.96 227.818 232.16 227.966 232.553C228.263 233.339 187.351 254.711 180.817 257.147C176.437 258.876 167.081 258.011 162.478 255.497C157.726 252.983 152.528 246.932 152.528 243.946C152.528 241.039 154.31 239.546 167.527 231.846C196.336 214.952 210.22 211.652 232.347 216.445ZM381.961 215.188C381.961 215.424 381.664 215.816 381.218 216.052C380.847 216.288 380.476 216.131 380.476 215.738C380.476 215.266 380.847 214.874 381.218 214.874C381.664 214.874 381.961 215.031 381.961 215.188ZM523.555 215.738C534.841 217.309 547.909 222.967 567.511 234.596C571.818 237.189 576.273 240.332 577.387 241.589C579.169 243.632 579.317 244.182 578.649 246.225C577.535 249.447 572.783 254.397 568.477 256.597C565.581 258.169 563.799 258.483 557.933 258.483H550.879L528.976 247.168C516.947 241.039 506.107 235.539 504.993 235.146C503.582 234.596 503.062 233.967 503.285 233.182C503.656 232.317 501.726 231.06 496.306 228.388C484.723 222.731 485.317 220.06 498.756 217.388C503.285 216.445 507.74 215.581 508.557 215.345C511.453 214.716 517.838 214.874 523.555 215.738ZM55.7061 217.702C56.8941 219.588 56.8941 219.824 55.4833 221.71C52.3648 226.188 45.9793 225.56 45.9793 220.845C45.9793 219.117 46.4991 218.252 48.5781 217.152C52.1421 215.109 54.2211 215.266 55.7061 217.702ZM683.416 218.174C686.534 220.452 686.757 221.238 685.049 223.517C682.302 227.131 675.248 224.931 675.248 220.531C675.248 216.209 679.109 215.109 683.416 218.174ZM76.7931 227.288C78.1296 228.388 78.3523 229.253 78.0553 230.746C77.3871 233.417 73.5261 234.282 69.8136 232.632C66.1753 231.06 66.3981 229.331 70.4818 227.131C73.3776 225.481 74.7883 225.56 76.7931 227.288ZM661.735 228.231C665.967 230.981 664.408 233.732 658.542 233.732C653.122 233.732 651.414 231.453 654.458 228.231C656.314 226.267 658.616 226.267 661.735 228.231ZM115.997 232.239C117.259 232.789 117.631 233.417 117.482 234.675C117.185 236.796 112.879 240.018 110.428 240.018C108.349 240.018 101.296 236.953 101.296 236.089C101.296 235.225 106.048 232.16 108.572 231.374C110.577 230.746 112.804 231.06 115.997 232.239ZM623.199 232.16C624.535 232.553 626.837 233.81 628.248 234.989L630.847 237.11L626.614 238.996C621.565 241.275 618.521 240.961 615.477 238.053C613.101 235.617 613.324 234.517 616.665 232.789C619.635 231.139 619.858 231.139 623.199 232.16ZM315.433 237.189C323.674 239.232 323.823 242.139 315.878 244.654C308.305 247.089 296.647 252.511 282.317 260.211C267.393 268.226 264.052 268.933 258.186 265.633C254.251 263.354 247.717 257.697 248.311 257.147C248.533 256.911 255.736 253.218 264.274 248.818C279.57 241.118 286.252 238.289 292.935 236.953C298.132 235.853 310.606 236.01 315.433 237.189ZM446.632 239.939C450.568 241.353 460.517 245.989 468.759 250.232L483.683 257.933L480.193 261.233C478.189 263.04 474.996 265.397 472.991 266.497C466.977 269.719 464.749 269.09 444.553 258.64C427.847 250.075 415.967 244.732 413.591 244.732C413.071 244.732 411.883 244.104 410.992 243.318C409.582 242.139 409.507 241.825 410.398 240.489C412.106 237.975 418.492 236.875 429.481 237.189C438.465 237.425 440.247 237.66 446.632 239.939ZM331.545 247.875C334.441 249.525 333.253 252.275 327.832 256.833C317.883 265.24 308.453 276.319 300.36 289.049C298.355 292.113 291.895 303.271 285.881 313.8C279.867 324.329 273.407 335.408 271.402 338.551C269.472 341.615 267.022 345.78 265.908 347.823C262.567 353.873 258.26 355.759 255.364 352.38C254.102 350.887 254.102 350.259 254.845 344.68C255.364 341.38 255.736 336.822 255.736 334.622C255.736 329.279 256.775 326.215 260.785 320.322C265.388 313.485 266.725 309.007 267.913 297.456C268.432 291.72 269.398 286.298 270.14 284.648C271.922 280.641 283.431 269.169 290.41 264.297C297.984 259.111 307.859 254.161 317.437 250.782C328.649 246.775 329.317 246.697 331.545 247.875ZM411.883 250.704C428.515 256.361 442.474 264.69 453.389 275.298C460.963 282.763 462.596 286.377 463.636 297.849C464.601 309.321 465.789 313.171 470.615 320.872C475.144 328.022 475.887 330.851 476.629 343.501C477.149 353.009 476.629 354.737 473.065 354.737C470.467 354.737 467.051 351.673 465.121 347.666C464.601 346.566 461.705 341.773 458.809 337.058C455.839 332.265 449.677 321.657 445.073 313.485C428.144 283.47 418.714 270.426 405.721 259.426C397.776 252.668 397.108 251.568 399.484 249.132C401.117 247.325 402.528 247.561 411.883 250.704ZM143.915 251.097C146.217 252.197 146.811 253.768 145.771 255.811C144.435 258.561 141.688 259.111 137.975 257.383C133.891 255.418 133.075 253.69 135.376 251.647C137.307 250.075 141.168 249.761 143.915 251.097ZM593.796 251.254C596.617 252.511 598.177 254.318 597.434 255.418C596.543 256.911 592.237 258.876 590.009 258.876C584.886 258.876 583.772 254.083 588.376 251.647C591.494 249.997 590.9 249.997 593.796 251.254ZM338.97 259.661C339.712 260.133 340.381 260.84 340.381 261.312C340.381 261.783 338.079 267.126 335.183 273.255C331.174 281.82 329.317 285.041 327.016 287.006C323.6 289.991 323.229 291.013 325.902 290.463L327.758 290.149L325.085 296.67C314.245 323.386 306.226 351.752 306.226 363.381C306.226 365.581 305.706 368.645 305.112 370.217C304.444 371.788 304.072 373.517 304.295 374.067C304.444 374.538 304.295 377.603 303.85 380.746C303.404 383.967 302.959 388.289 302.884 390.489C302.662 395.911 300.805 400.783 299.023 400.468C298.281 400.39 296.425 400.704 294.865 401.254C292.638 401.961 291.673 401.961 290.559 401.254C289.816 400.704 288.406 400.311 287.366 400.311C286.401 400.311 285.287 399.84 284.842 399.29C283.505 397.64 285.064 381.296 287.292 373.596C289.222 366.995 289.816 362.281 291.376 342.951C293.603 314.428 304.592 291.249 327.61 265.869C334.218 258.719 335.777 257.854 338.97 259.661ZM405.721 268.933C415.744 279.855 422.724 289.834 428.441 301.542C436.683 318.436 439.504 329.751 440.618 350.809C441.212 360.395 441.806 365.895 442.771 368.881C445.147 376.267 446.484 383.103 447.004 391.275C447.375 397.875 447.301 399.368 446.335 400.154C445.667 400.704 444.776 401.097 444.182 401.018C443.662 400.861 442.4 401.254 441.435 401.804C440.098 402.59 438.985 402.59 436.609 401.961C434.975 401.49 432.896 401.175 432.079 401.333C430.966 401.411 430.52 400.94 430.372 399.525C430.223 398.425 429.703 397.09 429.332 396.54C428.887 395.989 428.441 393.554 428.293 391.039C427.921 383.417 427.402 377.996 426.882 376.66C426.585 375.874 426.733 375.088 427.179 374.774C427.699 374.46 427.55 373.438 426.733 371.788C426.065 370.374 425.248 366.131 424.951 361.809C423.838 347.98 417.823 326.45 408.616 302.956C405.795 295.806 403.493 289.756 403.493 289.363C403.493 289.049 404.31 289.127 405.349 289.52C406.389 289.913 407.206 289.991 407.206 289.677C407.206 288.341 404.904 285.748 402.973 284.884C401.34 284.177 399.855 281.82 395.92 273.176C391.316 263.197 391.019 262.333 392.133 261.076C394.732 258.011 396.736 259.111 405.721 268.933ZM352.632 272.784C353.671 275.219 354.414 277.262 354.34 277.341C354.191 277.419 353.003 277.891 351.741 278.362C349.439 279.148 349.291 279.148 349.291 277.419C349.291 274.905 350.182 268.305 350.479 268.305C350.701 268.305 351.667 270.269 352.632 272.784ZM381.812 275.455C381.589 278.284 381.515 278.362 379.585 277.498L377.58 276.555L379.139 272.705C380.624 269.169 380.773 269.012 381.367 270.741C381.738 271.762 381.961 273.884 381.812 275.455ZM261.527 277.891C262.047 278.441 262.418 279.462 262.418 280.248C262.418 281.112 255.513 289.52 246.9 299.185C219.205 330.301 219.279 330.222 216.16 330.851C214.601 331.086 213.19 331.243 213.042 331.086C212.893 330.851 213.116 329.043 213.562 326.922C214.156 323.936 214.007 321.186 213.042 314.743C211.111 301.935 210.592 302.956 222.694 295.177C239.029 284.727 242.89 282.37 248.979 279.62C254.845 276.869 259.894 276.162 261.527 277.891ZM343.351 280.17C343.351 280.877 338.747 282.448 338.227 281.898C338.005 281.82 338.673 280.798 339.638 279.698C340.975 278.205 341.569 277.969 342.385 278.598C342.905 279.07 343.351 279.777 343.351 280.17ZM486.059 282.213C490.291 284.334 497.716 288.813 502.617 292.034C507.592 295.256 512.938 298.635 514.497 299.578C516.13 300.442 518.061 301.856 518.878 302.799C520.214 304.371 520.214 304.606 518.952 311.993C518.135 316.864 517.764 321.814 517.987 325.822C518.284 330.615 518.135 331.951 517.318 331.951C514.497 331.951 510.784 328.965 503.359 320.872C485.465 301.306 470.541 284.334 469.65 282.605C468.982 281.348 468.982 280.484 469.65 279.227C471.061 276.398 476.926 277.498 486.059 282.213ZM391.613 280.72C390.351 281.191 388.495 280.17 389.014 279.305C389.311 278.834 389.98 278.912 390.945 279.541C391.687 280.012 392.059 280.562 391.613 280.72ZM221.655 285.041C220.838 287.634 214.527 294.863 213.784 294.077C212.893 293.213 216.16 285.984 218.982 282.605C221.655 279.384 221.952 279.148 222.175 280.72C222.323 281.663 222.1 283.627 221.655 285.041ZM516.13 289.363C517.17 291.642 517.838 293.842 517.69 294.392C517.541 294.863 515.833 293.685 513.977 291.799C510.71 288.499 508.928 284.413 508.928 280.484C509.002 278.127 513.829 284.098 516.13 289.363ZM257.666 307.121C252.32 323.857 237.396 348.687 223.214 364.324C219.353 368.567 215.938 372.024 215.715 372.024C215.418 372.024 214.453 369.431 213.487 366.288C212.522 363.224 210.592 357.959 209.181 354.58C206.805 349.08 206.656 348.373 207.622 346.409C208.141 345.151 211.334 342.244 214.824 339.73C224.402 332.894 232.273 325.35 243.856 311.993C249.647 305.235 255.439 298.87 256.701 297.77L259.077 295.806L259.3 298.478C259.448 299.971 258.706 303.821 257.666 307.121ZM476.704 300.285C478.708 302.406 483.98 308.3 488.435 313.485C498.533 325.272 507.443 333.836 515.759 339.887C522.367 344.68 524.521 346.959 524.521 349.316C524.521 350.023 523.407 353.166 521.996 356.388C520.66 359.609 518.803 364.559 517.838 367.467C516.947 370.453 515.982 372.81 515.611 372.81C514.497 372.81 502.914 359.295 497.345 351.516C483.609 332.344 471.803 307.749 471.803 298.399C471.803 297.378 472.1 296.592 472.397 296.592C472.694 296.592 474.625 298.242 476.704 300.285ZM202.053 311.678C203.018 312.543 204.058 318.2 203.464 319.3C202.87 320.243 198.786 318.907 196.93 317.179C195.296 315.686 195.222 313.957 196.781 311.678C197.969 309.871 199.9 309.871 202.053 311.678ZM534.544 311.993C535.287 312.778 535.658 314.271 535.51 315.764C535.287 317.807 534.841 318.357 531.797 319.536L528.233 320.95V317.493C528.233 314.664 528.604 313.721 530.164 312.385C532.54 310.421 532.985 310.342 534.544 311.993ZM285.213 336.037C284.99 339.494 283.579 345.858 281.723 351.987L278.679 362.202L278.827 373.988C278.902 380.432 278.902 390.332 278.827 395.989L278.679 406.204L274.224 410.683C270.066 414.926 269.472 415.24 266.205 415.24C264.274 415.24 262.121 414.769 261.304 414.14C259.968 413.119 260.042 412.569 262.641 398.661C264.126 390.725 265.462 381.925 265.685 379.096C266.947 361.731 268.358 355.68 272.887 348.059C275.857 343.03 284.693 330.379 285.213 330.379C285.436 330.379 285.436 332.972 285.213 336.037ZM458.884 349.394C462.299 355.288 464.378 361.888 464.378 366.838C464.452 369.038 464.898 372.967 465.492 375.56C466.086 378.153 466.606 382.003 466.606 384.203C466.606 386.325 467.719 393.868 469.056 400.94L471.506 413.747L470.021 414.926C469.204 415.555 467.125 416.026 465.418 416.026C462.745 416.026 461.631 415.476 457.77 411.94C455.245 409.74 453.166 407.383 453.092 406.676C452.572 401.804 452.275 380.51 452.498 369.274C452.647 361.966 452.498 360.788 449.751 351.987C446.558 341.93 445.37 335.487 446.187 332.736C446.632 331.243 447.301 331.872 451.533 338.001C454.132 341.773 457.473 346.959 458.884 349.394ZM248.83 350.18C248.385 359.766 246.974 364.324 239.92 379.882C237.247 385.696 234.055 393.161 232.941 396.382C231.233 401.097 230.491 402.354 229.08 402.511C226.258 402.983 223.882 401.961 220.764 398.975C217.126 395.518 214.75 390.725 214.601 386.875C214.601 384.439 215.269 383.26 220.021 377.839C222.991 374.46 230.491 365.031 236.579 356.859C242.742 348.766 248.088 342.165 248.533 342.165C248.979 342.165 249.127 345.073 248.83 350.18ZM494.969 357.723C500.761 365.345 508.186 374.538 511.378 378.153C517.244 384.596 517.244 384.753 516.947 388.132C516.353 393.004 513.16 398.425 509.077 401.175C503.508 404.947 500.538 404.004 498.904 397.954C498.607 396.854 495.637 389.782 492.222 382.239C485.688 367.624 483.386 360.945 482.569 353.795C481.975 348.844 482.718 342.715 483.757 343.423C484.129 343.658 489.178 350.102 494.969 357.723ZM261.676 368.017C261.676 369.274 261.156 373.046 260.562 376.424C259.968 379.882 259.3 384.596 259.077 386.875C258.854 389.232 258.334 391.432 257.889 391.746C257.295 392.139 257.295 392.454 257.963 392.846C258.409 393.161 258.557 393.947 258.26 394.732C257.963 395.439 257.815 396.932 257.889 398.032C257.889 399.211 257.518 400.547 256.924 401.018C256.181 401.725 256.107 402.59 256.701 404.947C258.483 411.783 254.548 414.298 244.227 412.805C236.431 411.783 234.946 411.076 234.946 408.64C234.946 406.047 239.252 394.025 240.217 394.025C240.44 394.025 241.034 392.611 241.554 390.961C241.999 389.311 242.89 387.661 243.484 387.425C244.078 387.189 244.598 386.01 244.598 384.832C244.598 383.653 245.192 381.296 245.935 379.724C247.568 375.953 255.587 365.738 257.592 364.952C259.819 364.088 261.676 365.424 261.676 368.017ZM477.817 369.588C483.015 375.167 485.614 379.489 486.727 384.125C487.173 386.089 487.99 388.132 488.584 388.603C489.178 389.075 489.623 389.939 489.623 390.411C489.623 390.882 490.514 393.004 491.554 395.204C495.192 402.747 497.122 408.876 496.306 410.526C495.415 412.255 494.598 412.49 486.95 413.59C480.342 414.455 477.149 413.826 475.367 411.233C474.105 409.504 474.031 408.719 474.699 406.204C475.293 404.004 475.219 402.904 474.625 402.04C474.105 401.49 473.659 398.975 473.585 396.54C473.511 394.025 473.362 392.061 473.288 392.061C473.214 392.061 473.065 390.961 472.917 389.703C472.768 388.368 471.877 382.789 470.986 377.21C469.353 367.31 469.353 367.074 470.689 366.052C471.432 365.424 472.397 364.952 472.843 364.952C473.214 364.952 475.516 366.995 477.817 369.588Z" fill="white" fill-opacity="0.3"/>
</svg>
