<svg width="194" height="194" viewBox="0 0 194 194" fill="none" xmlns="http://www.w3.org/2000/svg">
<path d="M0.0164024 28.125V56.25H9.62578C17.1648 56.25 19.1961 56.3672 19.0398 56.7188C14.2742 67.3828 12.7898 71.7969 11.1492 79.8438C10.6414 82.3828 10.1727 84.4922 10.0945 84.5312C10.0164 84.6094 9.15703 84.9219 8.1414 85.3125C5.25078 86.3672 3.06328 88.3203 1.53984 91.0547C0.328902 93.3594 0.211715 93.8281 0.211715 96.875C0.211715 99.9219 0.328902 100.391 1.53984 102.695C3.06328 105.43 5.25078 107.383 8.1414 108.438C9.15703 108.828 10.0555 109.18 10.0945 109.219C10.1727 109.258 10.5633 110.938 10.9539 112.969C11.657 116.484 12.7117 120.859 13.1414 122.031C13.2977 122.461 12.3992 123.086 9.78203 124.414C1.22734 128.711 -1.31172 134.18 0.60234 144.336C4.15703 163.32 16.657 179.57 34.1961 188.086C45.1727 193.398 56.3055 195.156 61.8914 192.422C64.782 191.016 67.2039 188.242 69.3523 183.984C70.6805 181.328 71.3055 180.469 71.7352 180.625C72.7117 181.016 78.1805 182.344 80.6805 182.812C84.5477 183.516 84.782 183.594 84.782 184.102C84.782 185.156 86.7352 188.633 88.0633 190C88.8445 190.781 90.407 191.875 91.5398 192.461C93.2977 193.398 94.0398 193.555 96.8914 193.555C99.9383 193.555 100.407 193.438 102.673 192.227C105.485 190.703 107.165 188.789 108.454 185.625L109.352 183.438L113.063 182.773C125.016 180.664 137.595 175.352 147.36 168.281L150.016 166.406V170.039C150.016 175 150.563 177.773 152.36 181.484C155.212 187.422 161.423 192.188 167.751 193.32C172.048 194.102 171.891 194.219 171.891 190.664V187.578L169.743 187.305C166.813 186.953 162.595 184.766 160.563 182.578C159.665 181.602 158.376 179.648 157.712 178.203L156.462 175.586V165.586V155.625L157.907 152.656C159.665 149.102 161.93 146.914 165.563 145.195C167.946 144.062 168.532 143.945 171.93 143.945C175.446 143.945 175.798 144.023 178.61 145.391C182.165 147.148 184.352 149.414 186.071 153.047L187.321 155.664L187.438 170.586L187.555 185.547L186.579 186.523C185.29 187.812 183.493 187.812 182.243 186.523L181.266 185.586V171.836C181.266 162.188 181.11 157.617 180.798 156.484C180.173 154.336 176.93 151.094 174.782 150.469C171.11 149.375 168.18 150.156 165.446 152.93C162.751 155.586 162.516 156.602 162.516 165.625C162.516 174.648 162.751 175.625 165.446 178.359C167.751 180.664 170.016 181.484 173.063 181.133L175.016 180.898V183.281C175.016 186.836 175.68 188.594 177.946 190.82C181.891 194.766 186.891 194.766 190.876 190.82C193.845 187.891 193.845 187.812 193.688 170.117L193.571 154.883L192.555 152.305C191.071 148.516 189.665 146.289 187.048 143.711C184.391 141.094 179.47 138.438 176.462 138.047C175.446 137.891 174.626 137.656 174.626 137.5C174.626 137.383 175.485 135.312 176.54 132.969C179.704 125.898 181.305 120.625 183.454 109.883C183.532 109.375 183.845 108.984 184.118 108.984C185.173 108.984 188.649 107.031 190.016 105.703C190.798 104.922 191.891 103.359 192.477 102.227C193.415 100.469 193.571 99.7266 193.571 96.875C193.571 93.8281 193.454 93.3594 192.243 91.0547C190.72 88.2422 188.415 86.2891 185.485 85.2344C184.196 84.8047 183.532 84.2969 183.415 83.7891C183.337 83.3594 182.985 81.5234 182.634 79.6875C182.282 77.8516 181.93 76.0547 181.813 75.6641C181.618 75.0781 181.891 75 183.649 75C184.743 75 186.384 74.8047 187.282 74.5312C189.43 73.9062 192.673 70.6641 193.298 68.5156C193.962 66.2109 193.962 8.78906 193.298 6.48438C192.673 4.33594 189.43 1.09375 187.282 0.46875C186.11 0.117188 180.876 0 168.766 0C156.657 0 151.423 0.117188 150.251 0.46875C148.102 1.09375 144.86 4.33594 144.235 6.48438C143.923 7.5 143.766 10.8203 143.766 15.5469V22.9688L139.47 20.5078C132.048 16.2891 122.36 12.6953 114.079 11.1328C109.04 10.1953 109.001 10.1562 109.001 9.64844C109.001 8.59375 107.048 5.11719 105.72 3.75C101.266 -0.664062 94.5086 -1.17188 89.3914 2.57812C87.5164 3.90625 85.3289 7.07031 84.8992 9.10156C84.782 9.76562 84.3914 10.2344 83.8445 10.3516C83.4148 10.4297 81.657 10.7812 80.0164 11.0938C78.3758 11.4453 76.5789 11.7969 76.032 11.9531L75.0164 12.1875V6.09375V0H37.5164H0.0164024V28.125ZM61.2664 10.2734C59.2742 12.5 54.1961 18.125 50.0164 22.7734L42.3992 31.25H37.5164H32.6336L21.3836 18.75L10.1727 6.25H37.5555H64.9383L61.2664 10.2734ZM100.016 7.07031C105.173 10 103.493 17.9688 97.5945 18.6328C95.368 18.9062 93.3367 17.9688 91.8914 16.0938C90.5242 14.2578 90.407 10.8203 91.657 9.10156C93.7664 6.25 97.1258 5.42969 100.016 7.07031ZM186.54 7.22656C187.36 8.00781 187.516 8.55469 187.516 10.3516V12.5H168.766H150.016V10.3516C150.016 8.55469 150.173 8.00781 150.993 7.22656L151.93 6.25H168.766H185.602L186.54 7.22656ZM26.4617 33.8281C26.4227 33.8672 21.8523 36.875 16.3445 40.5859L6.2664 47.2656V29.2969V11.2891L16.3836 22.5391C21.9695 28.7109 26.5008 33.7891 26.4617 33.8281ZM68.6883 38.2031L68.5711 47.1484L58.532 40.4688L48.532 33.7891L58.532 22.6562L68.5711 11.5234L68.6883 20.3906C68.7273 25.3125 68.7273 33.3203 68.6883 38.2031ZM86.1883 18.6719C88.4148 22.8516 93.0633 25.3125 97.907 24.8828C102.204 24.4531 106.384 21.6406 107.985 18.0469L108.688 16.5234L111.657 17.0703C121.774 18.9062 132.751 23.2812 141.11 28.7891L143.766 30.5469V48.7109C143.766 61.5234 143.884 67.3438 144.235 68.4375C144.821 70.3516 147.204 73.125 149.118 74.0625C150.446 74.7266 151.891 74.8438 162.907 75L175.173 75.1953L176.032 78.7109C177.516 85.0781 177.516 84.9609 175.798 85.7422C173.727 86.6797 171.305 89.1016 170.055 91.5234C169.118 93.2812 168.962 94.0234 168.962 96.875C168.962 99.7266 169.118 100.469 170.055 102.227C171.305 104.648 173.727 107.07 175.798 108.008C177.595 108.828 177.595 108.672 175.602 116.602C173.923 123.203 172.282 127.617 169.391 133.359L167.009 138.008L164.626 138.867C161.227 140.078 159.04 141.445 156.54 143.945C153.141 147.344 150.876 151.875 150.212 156.523C149.938 158.516 149.938 158.516 145.798 161.641C135.641 169.18 125.173 173.945 113.415 176.328L108.805 177.266L107.985 175.625C106.813 173.398 104.626 171.289 102.243 170C100.485 169.102 99.743 168.945 96.8914 168.945C94.0398 168.945 93.2977 169.102 91.5398 170.039C89.0398 171.328 87.0086 173.281 85.8758 175.547L84.9773 177.266L80.407 176.328C77.907 175.82 74.8992 175.078 73.7664 174.727C71.8523 174.062 71.6961 173.945 71.3836 172.422C70.9539 170.039 68.8055 166.797 66.657 165.195C64.5086 163.555 56.618 160.352 53.2195 159.688C48.5711 158.828 43.0633 160.195 39.0008 163.164L36.5789 164.961L35.2117 164.219C33.4148 163.281 30.4852 160.352 29.5477 158.555L28.8055 157.109L30.1727 155.43C33.8055 150.938 35.2117 144.766 33.8055 139.375C32.7898 135.43 29.782 128.516 28.3367 126.719C26.6961 124.727 24.0789 123.086 21.5398 122.461C19.8211 122.031 19.7039 121.875 19.0398 119.961C18.6883 118.867 17.9461 115.859 17.4383 113.359L16.5008 108.789L18.2195 107.891C20.4852 106.758 22.4383 104.727 23.7273 102.227C24.6648 100.469 24.8211 99.7266 24.8211 96.875C24.8211 94.0234 24.6648 93.2812 23.7273 91.4844C22.4383 88.9844 20.1727 86.7188 18.0242 85.7812C16.1883 84.9219 16.1883 85.1172 18.1805 77.1484C19.8211 70.6641 21.4227 66.2891 24.1961 60.8203L26.3836 56.4453L50.6805 56.3281L75.0164 56.25L75.0945 37.4219L75.2117 18.5938L76.5789 18.2422C77.7898 17.9297 84.2742 16.4844 84.782 16.4453C84.8992 16.4453 85.5242 17.4219 86.1883 18.6719ZM187.516 37.5V56.25H168.766H150.016V37.5V18.75H168.766H187.516V37.5ZM52.1648 43.75L61.5398 50H37.5164H13.493L22.868 43.75L32.243 37.5H37.5164H42.7898L52.1648 43.75ZM187.516 64.6484C187.516 66.4453 187.36 66.9922 186.54 67.7734L185.602 68.75H168.766H151.93L150.993 67.7734C150.173 66.9922 150.016 66.4453 150.016 64.6484V62.5H168.766H187.516V64.6484ZM15.0945 91.25C19.118 93.1641 19.9773 98.0859 16.8523 101.211C14.2742 103.789 10.6414 103.75 8.1414 101.133C3.37578 96.1328 8.88359 88.3203 15.0945 91.25ZM183.845 91.25C187.868 93.1641 188.727 98.0859 185.602 101.211C183.024 103.789 179.391 103.75 176.891 101.133C172.126 96.1328 177.634 88.3203 183.845 91.25ZM20.9148 128.867C23.2586 129.922 24.0789 131.055 26.0711 135.977C27.7898 140.117 27.907 140.664 27.907 143.75C27.907 146.602 27.7508 147.383 26.8523 149.102C26.2664 150.234 24.8211 152.109 23.5711 153.242L21.3836 155.391L22.282 157.812C24.6258 164.141 30.2898 169.648 36.4227 171.719L38.3367 172.344L40.8367 169.961C44.1961 166.719 46.2273 165.82 50.2117 165.859C53.0242 165.859 53.7664 166.016 57.7898 167.695C62.7117 169.688 63.8445 170.508 64.8992 172.852C66.0711 175.391 65.8367 176.836 63.6492 181.211C61.1883 186.172 59.8602 187.227 55.8758 187.422C51.2664 187.695 42.8289 185.469 36.5398 182.344C29.118 178.633 21.618 172.383 16.618 165.664C10.5242 157.578 5.91484 145.117 6.34453 137.891C6.53984 133.906 7.59453 132.578 12.5555 130.117C16.9305 127.93 18.3758 127.695 20.9148 128.867ZM174.04 157.227C175.016 158.164 175.016 158.242 175.016 165.625C175.016 173.008 175.016 173.086 174.04 174.023C172.79 175.312 170.993 175.312 169.743 174.023C168.766 173.086 168.766 173.008 168.766 165.625C168.766 158.242 168.766 158.164 169.743 157.227C170.329 156.602 171.149 156.25 171.891 156.25C172.634 156.25 173.454 156.602 174.04 157.227ZM99.4695 175.625C103.493 177.539 104.352 182.461 101.227 185.586C98.6492 188.164 95.0164 188.125 92.5164 185.508C87.7508 180.508 93.2586 172.695 99.4695 175.625Z" fill="white" fill-opacity="0.8"/>
<path d="M93.7666 40.625V50H96.8916H100.017V40.625V31.25H96.8916H93.7666V40.625Z" fill="white" fill-opacity="0.8"/>
<path d="M90.8367 56.6404C85.3289 57.4997 78.0633 60.4294 73.4539 63.7107C70.5633 65.7419 65.9539 70.3513 63.8836 73.2419C60.3289 78.2419 57.5164 85.195 56.6961 91.1716C53.6492 113.047 68.6492 133.359 90.4461 136.914C112.438 140.508 133.337 125.39 136.93 103.32C139.938 84.9216 129.86 66.7966 112.555 59.4138C107.985 57.4607 103.845 56.6013 98.2586 56.445C95.4851 56.3669 92.1258 56.445 90.8367 56.6404ZM98.8055 63.0466C100.29 63.8279 102.555 66.406 103.688 68.7107C104.509 70.2732 106.266 74.531 106.266 74.8825C106.266 74.9607 102.048 74.9997 96.8914 74.9997C91.7351 74.9997 87.5164 74.9607 87.5164 74.8825C87.5164 74.531 89.2742 70.2732 90.0555 68.7107C91.8133 65.2732 94.8211 62.4997 96.8133 62.4997C97.3211 62.4997 98.1805 62.7341 98.8055 63.0466ZM83.9226 67.2654C83.2586 68.5544 82.3211 70.82 81.8523 72.2263L80.993 74.8044L75.8367 74.9216C73.0242 74.9607 70.7195 74.8825 70.7195 74.6872C70.7195 74.2966 73.4148 71.7185 75.9148 69.7263C77.7898 68.2029 83.8055 64.8825 84.6648 64.8435C84.8992 64.8435 84.6258 65.8591 83.9226 67.2654ZM112.243 66.2497C116.188 68.2029 123.063 73.5935 123.063 74.6872C123.063 74.8825 120.759 74.9607 117.946 74.9216L112.79 74.8044L111.97 72.2654C111.501 70.8591 110.563 68.6325 109.938 67.2654C109.274 65.9372 108.923 64.8435 109.118 64.8435C109.313 64.8435 110.72 65.4685 112.243 66.2497ZM79.3133 81.9138C79.3133 82.3044 79.157 83.7497 78.9617 85.156C78.7664 86.5622 78.493 89.0622 78.3367 90.7029L78.0633 93.7497H70.368H62.6336L62.9851 91.4841C63.3758 88.906 63.7664 87.4997 65.1336 83.8669L66.1492 81.2497H72.7508C78.7273 81.2497 79.3133 81.3279 79.3133 81.9138ZM107.985 81.9138C108.22 82.8122 108.884 87.695 109.196 91.0935L109.47 93.7497H96.8914H84.3133L84.5867 91.0935C84.8992 87.695 85.5633 82.8122 85.7976 81.9138C85.993 81.2888 86.8523 81.2497 96.8914 81.2497C106.93 81.2497 107.79 81.2888 107.985 81.9138ZM128.063 82.695C129.157 84.8435 130.407 88.906 130.798 91.4841L131.149 93.7497H123.415H115.72L115.446 91.0935C115.329 89.6482 115.055 87.07 114.86 85.3904C114.626 83.6716 114.47 82.07 114.47 81.7575C114.47 81.3669 115.798 81.2497 120.915 81.2497H127.36L128.063 82.695ZM78.3367 103.008C78.493 104.687 78.7664 107.187 78.9617 108.593C79.5476 112.929 80.2117 112.5 72.868 112.5H66.4226L65.6805 111.015C64.6258 108.945 63.3758 104.922 62.9851 102.226L62.6336 99.9997H70.368H78.0633L78.3367 103.008ZM109.196 102.617C108.884 106.054 108.22 110.937 107.985 111.797C107.79 112.461 106.93 112.5 96.8914 112.5C86.8523 112.5 85.993 112.461 85.7976 111.797C85.5633 110.937 84.8992 106.054 84.5867 102.617L84.3133 99.9997H96.8914H109.47L109.196 102.617ZM130.798 102.226C130.407 104.843 129.157 108.906 128.063 111.015L127.36 112.5H120.915C115.798 112.5 114.47 112.383 114.47 111.992C114.47 111.679 114.626 110.078 114.86 108.359C115.055 106.679 115.329 104.101 115.446 102.617L115.72 99.9997H123.415H131.149L130.798 102.226ZM81.8133 121.484C82.282 122.89 83.2195 125.117 83.8445 126.445C84.5086 127.812 84.8992 128.906 84.7039 128.906C83.9226 128.906 78.1023 125.703 76.1883 124.218C73.5711 122.187 70.7195 119.492 70.7195 119.062C70.7195 118.867 73.0242 118.789 75.8367 118.828L80.993 118.945L81.8133 121.484ZM106.266 118.906C106.266 119.375 103.884 124.804 103.024 126.289C101.813 128.32 99.2351 130.742 97.868 131.093C94.743 131.875 91.3445 128.476 88.6492 121.797C88.0242 120.312 87.5164 118.984 87.5164 118.906C87.5164 118.828 91.7351 118.75 96.8914 118.75C102.048 118.75 106.266 118.828 106.266 118.906ZM123.063 119.062C123.063 119.492 120.173 122.226 117.595 124.218C115.641 125.742 109.86 128.906 109.04 128.906C108.845 128.906 109.274 127.734 109.977 126.25C110.68 124.804 111.54 122.656 111.93 121.484C112.321 120.312 112.712 119.218 112.79 119.023C113.024 118.633 123.063 118.672 123.063 119.062Z" fill="white" fill-opacity="0.8"/>
<path d="M31.2666 96.875V100H40.6416H50.0166V96.875V93.75H40.6416H31.2666V96.875Z" fill="white" fill-opacity="0.8"/>
<path d="M143.767 96.875V100H153.142H162.517V96.875V93.75H153.142H143.767V96.875Z" fill="white" fill-opacity="0.8"/>
<path d="M93.7666 153.125V162.5H96.8916H100.017V153.125V143.75H96.8916H93.7666V153.125Z" fill="white" fill-opacity="0.8"/>
</svg>
