<svg width="1039" height="525" viewBox="0 0 1039 525" fill="none" xmlns="http://www.w3.org/2000/svg">
<path fill-rule="evenodd" clip-rule="evenodd" d="M841.05 72.7876C808.229 58.17 780.344 58.7344 787.34 21.3654C775.551 51.8855 772.224 72.8159 779.018 103.46C781.643 115.3 789.115 129.66 798.71 141.074C773.425 146.332 768.727 171.518 817.873 198.795C802.571 205.795 810.103 213.118 817.431 213.704C744.098 252.361 765.176 310.164 813.632 307.158C801.036 277.083 813.984 256.232 850.057 241.823C930.355 199.167 925.551 113.438 841.052 72.7932L841.05 72.7876Z" fill="#6C6C6C"/>
<path fill-rule="evenodd" clip-rule="evenodd" d="M786.765 46.2635C782.361 65.882 782.236 82.9788 787.174 104.97C789.777 116.564 796.834 130.425 805.764 141.303C782.876 147.564 779.058 172.668 824.23 197.566C810.449 205.129 817.429 212.051 824.102 212.321C764.519 249.631 775.26 299.168 810.328 304.69C798.145 275.523 811.388 255.091 847.64 240.76C860.602 233.985 871.363 226.142 879.988 217.598L880.111 217.469C901.605 194.081 909.034 165.796 902.899 139.41C902.896 139.401 902.894 139.39 902.891 139.38C895.374 114.494 874.274 91.1854 839.878 75.2859C815.008 64.6576 792.913 62.5058 786.765 46.2624L786.765 46.2635Z" fill="url(#paint0_linear_10_55)"/>
<path fill-rule="evenodd" clip-rule="evenodd" d="M900.561 170.474C901.567 144.117 881.328 114.583 869.937 104.537C843.202 80.9599 817.177 86.546 810.088 104.606C801.535 126.396 816.623 147.751 847.663 145.543C875.335 143.575 890.391 154.13 900.561 170.474Z" fill="url(#paint1_linear_10_55)"/>
<path fill-rule="evenodd" clip-rule="evenodd" d="M899.903 171.147C891.485 152.602 867.262 139.188 855.903 136.181C829.245 129.121 813.162 141.954 814.5 156.869C816.114 174.863 833.944 184.406 854.666 172.177C873.14 161.274 887.212 163.37 899.904 171.147L899.903 171.147Z" fill="url(#paint2_linear_10_55)"/>
<path fill-rule="evenodd" clip-rule="evenodd" d="M900.578 168.337C900.349 184.697 886.873 202.382 879.501 208.261C862.2 222.06 846.281 217.811 842.48 206.407C837.893 192.648 847.918 179.874 867.048 182.182C884.104 184.239 893.759 178.155 900.579 168.336L900.578 168.337Z" fill="url(#paint3_linear_10_55)"/>
<path fill-rule="evenodd" clip-rule="evenodd" d="M826.878 89.9089C818.97 92.0095 812.958 97.2648 810.077 104.602C809.168 106.918 808.562 109.238 808.177 111.517C815.423 94.7136 839.536 88.2391 866.063 108.042C877.784 116.792 899.224 143.586 900.559 169.651C901.116 143.508 881.217 114.484 869.946 104.543C854.072 90.5445 838.437 86.84 826.879 89.9101L826.878 89.9089Z" fill="#6C6C6C"/>
<path fill-rule="evenodd" clip-rule="evenodd" d="M900.499 169.818C899.371 185.281 886.125 200.578 878.783 205.53C861.788 216.995 846.196 212.459 841.512 202.026C841.674 203.464 841.995 204.913 842.487 206.391C846.289 217.795 862.21 222.046 879.511 208.247C886.661 202.544 899.521 185.753 900.499 169.818Z" fill="#6C6C6C"/>
<path fill-rule="evenodd" clip-rule="evenodd" d="M817.242 166.379C823.243 177.762 838.018 181.999 854.672 172.17C873.147 161.267 887.226 163.365 899.917 171.143C886.763 162.724 872.116 159.819 852.709 169.428C837.953 176.735 824.708 174.264 817.242 166.379Z" fill="#6C6C6C"/>
<path fill-rule="evenodd" clip-rule="evenodd" d="M830.727 135.683C820.91 138.642 815.116 145.632 814.481 153.656C819.718 143.464 834.394 136.18 855.26 139.947C866.88 142.045 891.561 153.438 899.917 171.14C891.5 152.593 867.261 139.193 855.901 136.185C845.904 133.537 837.388 133.675 830.726 135.684L830.727 135.683Z" fill="#6C6C6C"/>
<mask id="mask0_10_55" style="mask-type:luminance" maskUnits="userSpaceOnUse" x="781" y="46" width="124" height="259">
<path d="M786.768 46.2635C782.364 65.8817 782.24 82.979 787.177 104.971C789.78 116.564 796.836 130.425 805.766 141.304C782.879 147.565 779.061 172.668 824.232 197.567C810.451 205.13 817.432 212.051 824.104 212.321C764.522 249.63 775.263 299.168 810.331 304.69C798.148 275.524 811.39 255.092 847.642 240.761C860.605 233.986 871.365 226.144 879.991 217.599L880.113 217.47C901.607 194.082 909.036 165.797 902.902 139.411C902.899 139.402 902.896 139.391 902.894 139.381C895.376 114.495 874.276 91.1871 839.881 75.2875C815.011 64.6589 792.916 62.5075 786.768 46.2635Z" fill="white"/>
</mask>
<g mask="url(#mask0_10_55)">
<g filter="url(#filter0_f_10_55)">
<path fill-rule="evenodd" clip-rule="evenodd" d="M779.4 36.4577C775.422 58.5487 1072.64 -1.6307 1078.37 23.4193C1081.4 36.625 1089.08 52.5282 1098.61 65.1082C1075.17 71.5362 1071.96 99.8573 1119.3 129.365C1105.3 137.532 1112.7 145.573 1119.6 146.072C1059.18 186.6 774.859 322.556 811.211 329.825C797.79 296.439 810.867 273.682 847.87 258.502C861.052 251.204 871.932 242.634 880.587 233.207L880.71 233.064C928.911 163.893 895.225 89.8812 835.063 70.8682C809.084 58.1096 786.216 55.0325 779.4 36.4577Z" fill="#0C0E1D"/>
</g>
</g>
<path d="M812.239 81.7094C812.644 83.1641 812.756 84.6846 812.569 86.1829C812.383 87.6812 811.901 89.1277 811.152 90.4388C810.404 91.7499 809.402 92.8996 808.207 93.8216C807.011 94.7436 805.644 95.4195 804.186 95.8102C802.728 96.201 801.206 96.2989 799.71 96.0984C798.213 95.8978 796.771 95.4027 795.467 94.6416C794.163 93.8806 793.023 92.8687 792.112 91.6644C791.201 90.4601 790.538 89.0873 790.161 87.6253C789.757 86.1706 789.645 84.6501 789.831 83.1518C790.018 81.6535 790.499 80.207 791.248 78.8959C791.997 77.5848 792.998 76.4351 794.194 75.5131C795.39 74.5912 796.756 73.9153 798.215 73.5245C799.673 73.1337 801.194 73.0358 802.691 73.2363C804.187 73.4369 805.629 73.932 806.933 74.6931C808.237 75.4541 809.378 76.466 810.288 77.6703C811.199 78.8746 811.862 80.2474 812.239 81.7094Z" fill="url(#paint4_linear_10_55)"/>
<path d="M798.227 73.6308C793.135 74.9951 789.802 79.5963 789.785 84.6279C790.347 79.6937 795.241 75.9708 801.324 76.1332C806.224 76.264 810.511 78.8737 812.407 82.481C812.357 82.2236 812.304 81.9754 812.235 81.7183C810.602 75.6246 804.321 71.9979 798.227 73.6308Z" fill="#6C6C6C"/>
<path fill-rule="evenodd" clip-rule="evenodd" d="M911.869 245.049C908.193 265.239 909.293 283.627 919.726 273.62C924.827 268.728 922.091 266.96 936.155 258.62C950.951 249.845 955.956 242.027 964.191 221.477C968.133 211.64 973.506 204.106 985.084 197.727C1008.21 184.988 992.141 173.603 982.227 180.584C973.807 186.513 978.833 193.209 959.727 200.763C937.176 209.678 915.592 224.606 911.87 245.049H911.869Z" fill="#6C6C6C"/>
<path fill-rule="evenodd" clip-rule="evenodd" d="M988.569 180.486C986.376 180.348 983.869 180.969 981.694 182.492C977.882 185.161 977.211 187.762 975.038 190.971C972.865 194.18 969.263 197.661 960.038 201.456C938.666 210.249 918.416 224.372 914.976 242.179C913.236 251.188 912.65 259.779 913.663 264.699C914.17 267.159 915.079 268.519 915.976 268.832C916.425 268.988 916.974 268.963 917.788 268.619C918.603 268.276 919.63 267.578 920.82 266.462C923.151 264.274 923.665 262.854 925.382 260.809C927.099 258.764 929.908 256.327 936.663 252.299C950.65 243.96 955.17 237.114 963.007 218.505C966.819 209.452 972.144 202.287 983.351 196.046C991.487 191.514 994.166 187.456 994.195 184.922C994.21 183.655 993.655 182.657 992.664 181.883C991.673 181.109 990.217 180.589 988.57 180.485L988.569 180.486Z" fill="url(#paint5_linear_10_55)"/>
<mask id="mask1_10_55" style="mask-type:luminance" maskUnits="userSpaceOnUse" x="913" y="180" width="82" height="89">
<path d="M988.581 180.505C986.387 180.366 983.881 180.988 981.706 182.51C977.893 185.18 977.223 187.781 975.05 190.99C972.876 194.199 969.274 197.68 960.049 201.475C938.677 210.269 918.426 224.392 914.986 242.2C913.246 251.209 912.66 259.8 913.674 264.72C914.18 267.181 915.089 268.541 915.986 268.854C916.435 269.01 916.984 268.985 917.799 268.641C918.613 268.297 919.64 267.599 920.83 266.483C923.161 264.295 923.675 262.875 925.392 260.83C927.11 258.785 929.919 256.348 936.674 252.32C950.661 243.981 955.181 237.134 963.018 218.524C966.83 209.472 972.155 202.306 983.363 196.065C991.499 191.533 994.178 187.475 994.207 184.941C994.222 183.674 993.667 182.675 992.676 181.901C991.685 181.127 990.229 180.607 988.582 180.503L988.581 180.505Z" fill="white"/>
</mask>
<g mask="url(#mask1_10_55)">
<g filter="url(#filter1_f_10_55)">
<path fill-rule="evenodd" clip-rule="evenodd" d="M989.029 176.654C986.704 176.6 984.172 177.263 981.963 178.818C973.387 184.857 978.506 191.686 959.047 199.38C936.079 208.46 914.109 223.66 910.318 244.48C906.573 265.043 907.68 283.762 918.307 273.57C923.502 268.588 920.725 266.787 935.049 258.293C950.118 249.356 955.211 241.411 963.598 220.481C967.613 210.462 973.099 202.788 984.891 196.291C1003.29 186.155 997.332 176.844 989.029 176.654ZM987.565 178.691C987.853 178.684 988.145 178.705 988.424 178.723C990.101 178.828 991.585 179.366 992.594 180.155C993.603 180.943 994.168 181.952 994.153 183.242C994.124 185.823 991.395 189.958 983.109 194.573C971.694 200.93 966.271 208.237 962.388 217.458C954.407 236.411 949.803 243.37 935.557 251.863C928.677 255.966 925.816 258.438 924.067 260.521C922.319 262.603 921.795 264.054 919.42 266.282C918.209 267.418 917.163 268.128 916.333 268.478C915.503 268.828 914.944 268.86 914.487 268.701C913.573 268.382 912.648 267.005 912.132 264.499C911.099 259.488 911.696 250.726 913.469 241.551C916.973 223.414 937.597 209.036 959.364 200.079C968.759 196.213 972.428 192.685 974.642 189.416C976.855 186.148 977.538 183.478 981.421 180.759C983.359 179.402 985.548 178.738 987.564 178.69L987.565 178.691Z" fill="#6C6C6C"/>
</g>
</g>
<path fill-rule="evenodd" clip-rule="evenodd" d="M926.159 94.3388C898.24 71.7248 871.159 65.0528 887.588 30.7678C868.302 57.1968 859.671 76.5528 858.302 107.911C857.774 120.027 861.275 135.832 867.588 149.34C841.804 147.875 830.748 170.987 871.159 210.054C854.567 212.855 859.946 221.878 866.874 224.34C786.035 242.7 791.434 303.989 839.017 313.626C834.633 281.316 852.537 264.527 891.11 259.945C979.712 239.525 997.26 155.475 926.16 94.3448L926.159 94.3388Z" fill="#6C6C6C"/>
<path fill-rule="evenodd" clip-rule="evenodd" d="M880.589 54.6687C871.257 72.4787 866.712 88.9607 865.79 111.481C865.304 123.353 868.533 138.568 874.342 151.387C850.614 151.511 840.429 174.771 877.618 210.512C862.349 214.25 867.3 222.743 873.675 224.731C806.466 245.348 804.02 295.977 836.464 310.387C832.245 279.061 850.324 262.753 889.05 258.293C903.324 255.104 915.748 250.313 926.291 244.293L926.443 244.199C953.258 227.172 967.754 201.773 968.658 174.699C968.658 174.689 968.658 174.678 968.658 174.668C967.838 148.684 953.49 120.709 924.381 96.4487C903.109 79.7457 882.324 71.9487 880.59 54.6677L880.589 54.6687Z" fill="url(#paint6_linear_10_55)"/>
<path fill-rule="evenodd" clip-rule="evenodd" d="M958.359 204.099C966.153 178.901 954.247 145.135 945.844 132.483C926.123 102.79 899.539 101.45 888.017 117.06C874.116 135.893 883.163 160.426 913.716 166.327C940.955 171.587 952.766 185.68 958.359 204.099Z" fill="url(#paint7_linear_10_55)"/>
<path fill-rule="evenodd" clip-rule="evenodd" d="M957.549 204.579C954.218 184.487 934.292 165.261 924.099 159.416C900.176 145.697 881.32 153.93 878.752 168.683C875.654 186.482 890.406 200.314 913.587 193.865C934.254 188.115 947.304 193.782 957.55 204.579L957.549 204.579Z" fill="url(#paint8_linear_10_55)"/>
<path fill-rule="evenodd" clip-rule="evenodd" d="M958.929 202.039C954.473 217.782 936.879 231.377 928.237 235.148C907.954 243.998 893.677 235.774 892.957 223.775C892.088 209.298 905.077 199.554 922.958 206.734C938.9 213.135 949.801 209.757 958.93 202.039H958.929Z" fill="url(#paint9_linear_10_55)"/>
<path d="M896.164 95.7587C896.178 97.2685 895.893 98.7662 895.325 100.165C894.757 101.564 893.917 102.837 892.854 103.909C891.792 104.982 890.527 105.833 889.133 106.414C887.74 106.995 886.245 107.295 884.735 107.295C883.225 107.295 881.73 106.995 880.337 106.414C878.943 105.833 877.679 104.982 876.616 103.909C875.553 102.837 874.714 101.564 874.146 100.165C873.578 98.7662 873.293 97.2685 873.307 95.7587C873.293 94.2489 873.578 92.7513 874.146 91.3523C874.714 89.9534 875.553 88.6808 876.616 87.6082C877.679 86.5356 878.943 85.6841 880.337 85.1031C881.73 84.522 883.225 84.2228 884.735 84.2228C886.245 84.2228 887.74 84.522 889.133 85.1031C890.527 85.6841 891.792 86.5356 892.854 87.6082C893.917 88.6808 894.757 89.9534 895.325 91.3523C895.893 92.7513 896.178 94.2489 896.164 95.7587Z" fill="url(#paint10_linear_10_55)"/>
<path fill-rule="evenodd" clip-rule="evenodd" d="M908.039 107.209C899.857 107.191 892.689 110.711 888.008 117.053C886.531 119.054 885.344 121.139 884.383 123.24C895.731 108.885 920.698 108.872 941.195 134.865C950.252 146.351 964.027 177.781 958.57 203.303C965.875 178.195 954.166 145.01 945.851 132.491C934.142 114.861 919.998 107.236 908.039 107.21V107.209Z" fill="#6C6C6C"/>
<path fill-rule="evenodd" clip-rule="evenodd" d="M958.469 203.449C953.378 218.094 936.623 229.441 928.25 232.324C908.867 238.999 894.98 230.582 893.156 219.293C892.941 220.724 892.875 222.206 892.969 223.762C893.689 235.761 907.968 243.988 928.25 235.137C936.633 231.479 953.4 218.588 958.469 203.449Z" fill="#6C6C6C"/>
<path fill-rule="evenodd" clip-rule="evenodd" d="M878.939 178.579C881.79 191.127 894.965 199.044 913.595 193.86C934.262 188.11 947.318 193.781 957.564 204.579C947.037 193.042 933.641 186.445 912.408 190.704C896.264 193.942 884.11 188.127 878.939 178.579Z" fill="#6C6C6C"/>
<path fill-rule="evenodd" clip-rule="evenodd" d="M899.909 152.419C889.661 152.737 882.255 157.989 879.565 165.575C887.262 157.086 903.323 153.848 922.503 162.887C933.184 167.921 954.075 185.314 957.565 204.575C954.235 184.482 934.29 165.265 924.096 159.419C915.125 154.275 906.863 152.204 899.908 152.419L899.909 152.419Z" fill="#6C6C6C"/>
<mask id="mask2_10_55" style="mask-type:luminance" maskUnits="userSpaceOnUse" x="816" y="54" width="153" height="257">
<path d="M880.592 54.6694C871.26 72.4792 866.716 88.9617 865.793 111.482C865.306 123.354 868.535 138.568 874.345 151.388C850.617 151.512 840.432 174.772 877.62 210.513C862.351 214.251 867.302 222.744 873.677 224.732C806.47 245.348 804.023 295.978 836.467 310.388C832.248 279.063 850.326 262.754 889.053 258.294C903.327 255.105 915.75 250.315 926.294 244.294L926.445 244.201C953.26 227.173 967.756 201.775 968.66 174.7C968.659 174.69 968.66 174.679 968.66 174.669C967.84 148.685 953.491 120.711 924.383 96.4509C903.111 79.7477 882.326 71.9511 880.592 54.6694Z" fill="white"/>
</mask>
<g mask="url(#mask2_10_55)">
<g filter="url(#filter2_f_10_55)">
<path fill-rule="evenodd" clip-rule="evenodd" d="M876.013 43.2907C866.454 63.5995 1169.11 82.3951 1168.17 108.076C1167.67 121.614 1170.98 138.964 1176.93 153.583C1152.63 153.725 1142.19 180.249 1180.29 221.005C1164.65 225.269 1169.72 234.953 1176.25 237.22C1107.4 260.729 797.58 318.464 830.811 334.894C826.489 299.172 845.01 280.575 884.68 275.489C899.303 271.852 912.03 266.39 922.83 259.524L922.985 259.417C987.447 205.08 974.064 124.871 920.873 90.9351C899.082 71.8876 877.789 62.9967 876.013 43.2907Z" fill="#0C0E1D"/>
</g>
</g>
<path fill-rule="evenodd" clip-rule="evenodd" d="M1029.75 130.329C1023.2 130.245 1018.35 132.265 1014.75 135.641C1011.15 139.017 1008.78 143.618 1006.69 148.766C1002.57 158.881 999.385 171.155 991.156 181.047C991.721 181.271 992.237 181.564 992.656 181.891C993.015 182.172 993.324 182.487 993.562 182.828C1002.25 172.322 1005.49 159.665 1009.47 149.89C1011.5 144.897 1013.71 140.71 1016.78 137.828C1019.85 134.947 1023.78 133.253 1029.72 133.328L1029.75 130.329Z" fill="#6C6C6C"/>
<path fill-rule="evenodd" clip-rule="evenodd" d="M1022.22 107.889C1015.8 109.451 1011.31 113.246 1008.06 118.327C1004.81 123.408 1002.69 129.742 1000.72 136.733C996.815 150.606 993.446 167.07 983.719 181.358C985.106 180.762 986.529 180.462 987.876 180.451C996.737 166.203 999.989 150.466 1003.63 137.545C1005.57 130.639 1007.61 124.532 1010.56 119.92C1013.51 115.308 1017.27 112.176 1022.94 110.795L1022.22 107.889Z" fill="#6C6C6C"/>
<path d="M1029.73 108.618C1029.73 109.277 1029.61 109.93 1029.36 110.54C1029.11 111.151 1028.74 111.705 1028.28 112.173C1027.81 112.64 1027.26 113.011 1026.65 113.265C1026.04 113.518 1025.39 113.648 1024.73 113.648C1024.07 113.648 1023.42 113.518 1022.81 113.265C1022.2 113.011 1021.65 112.64 1021.18 112.173C1020.72 111.705 1020.35 111.151 1020.1 110.54C1019.85 109.93 1019.73 109.277 1019.73 108.618C1019.73 107.958 1019.85 107.305 1020.1 106.695C1020.35 106.085 1020.72 105.53 1021.18 105.062C1021.65 104.595 1022.2 104.224 1022.81 103.971C1023.42 103.717 1024.07 103.587 1024.73 103.587C1025.39 103.587 1026.04 103.717 1026.65 103.971C1027.26 104.224 1027.81 104.595 1028.28 105.062C1028.74 105.53 1029.11 106.085 1029.36 106.695C1029.61 107.305 1029.73 107.958 1029.73 108.618Z" fill="#6C6C6C"/>
<path d="M1038.84 132.368C1038.84 133.027 1038.72 133.68 1038.47 134.29C1038.22 134.901 1037.85 135.455 1037.38 135.923C1036.92 136.39 1036.37 136.761 1035.76 137.015C1035.15 137.268 1034.5 137.398 1033.84 137.398C1033.18 137.398 1032.53 137.268 1031.92 137.015C1031.31 136.761 1030.76 136.39 1030.29 135.923C1029.83 135.455 1029.46 134.901 1029.21 134.29C1028.96 133.68 1028.83 133.027 1028.84 132.368C1028.83 131.708 1028.96 131.055 1029.21 130.445C1029.46 129.835 1029.83 129.28 1030.29 128.812C1030.76 128.345 1031.31 127.974 1031.92 127.721C1032.53 127.467 1033.18 127.337 1033.84 127.337C1034.5 127.337 1035.15 127.467 1035.76 127.721C1036.37 127.974 1036.92 128.345 1037.38 128.812C1037.85 129.28 1038.22 129.835 1038.47 130.445C1038.72 131.055 1038.84 131.708 1038.84 132.368Z" fill="#6C6C6C"/>
<path d="M884.719 84.3287C879.448 84.3287 875.037 87.9104 873.719 92.7662C875.538 88.1455 881.229 85.816 887.063 87.5474C891.762 88.9419 895.228 92.5723 896.126 96.5474C896.144 96.2857 896.157 96.0324 896.157 95.7662C896.157 89.4576 891.028 84.3287 884.719 84.3287Z" fill="#6C6C6C"/>
<path d="M1 522.552L12.5 518.052M29 511.052C31.8 511.052 43.5 504.385 49 501.052M63.5 493.552L86 483.552M100.5 477.552L123 466.552M138 460.052L158 450.052M174 442.552L194 432.052M210 424.552L230 414.052M245.5 406.552L265 395.052M280.5 385.552L299 372.052M312.5 363.552L330 347.552M343 334.052L355.5 317.552M366.5 302.052L378 284.552M386.5 268.552L396.5 248.552M404.5 231.552C408.028 222.938 408.915 218.557 408.5 211.552M408.5 192.052C407.138 184.225 405.601 179.941 401 172.552M389 158.052C383.859 153.252 379.594 151.459 370 149.552M350 146.052C340.116 145.69 335.789 147.144 330.5 153.052M314.5 162.552C308.089 168.552 305.041 172.382 300 179.552M291 196.552L287.5 205.552L278.5 201.052M261 192.052C253.971 189.513 250.029 188.09 243 185.552M223 182.052L201 181.552M183.5 185.552C175.684 187.853 172.003 191.379 166.5 201.052M161.5 218.552C156.811 223.957 157.5 229.052 161.5 238.052M166.5 258.052C168.781 264.904 171.315 268.74 181 275.552M195.5 291.552L210 302.052M223 312.552L243 324.552M261 334.052L278.5 343.552M296 350.552L308 356.052M327 360.552L350 366.552M370 369.552L390.5 374.552M411.5 377.552L433.5 379.052" stroke="#6C6C6C" stroke-width="5"/>
<path d="M454 380.052H476.5M496.5 380.052L519 377.052M539 375.052L561 372.052M578.5 369.052L602 362.052M620 357.552L641 350.052M660 342.552L680.5 333.052M698.5 325.052L716 313.052M735 301.552L745.5 292.552" stroke="#6C6C6C" stroke-width="5"/>
<defs>
<filter id="filter0_f_10_55" x="756.933" y="-5.22795" width="385.094" height="357.48" filterUnits="userSpaceOnUse" color-interpolation-filters="sRGB">
<feFlood flood-opacity="0" result="BackgroundImageFix"/>
<feBlend mode="normal" in="SourceGraphic" in2="BackgroundImageFix" result="shape"/>
<feGaussianBlur stdDeviation="11.2136" result="effect1_foregroundBlur_10_55"/>
</filter>
<filter id="filter1_f_10_55" x="903.201" y="171.489" width="98.9446" height="110.108" filterUnits="userSpaceOnUse" color-interpolation-filters="sRGB">
<feFlood flood-opacity="0" result="BackgroundImageFix"/>
<feBlend mode="normal" in="SourceGraphic" in2="BackgroundImageFix" result="shape"/>
<feGaussianBlur stdDeviation="2.5809" result="effect1_foregroundBlur_10_55"/>
</filter>
<filter id="filter2_f_10_55" x="805.899" y="20.8636" width="396.816" height="336.457" filterUnits="userSpaceOnUse" color-interpolation-filters="sRGB">
<feFlood flood-opacity="0" result="BackgroundImageFix"/>
<feBlend mode="normal" in="SourceGraphic" in2="BackgroundImageFix" result="shape"/>
<feGaussianBlur stdDeviation="11.2136" result="effect1_foregroundBlur_10_55"/>
</filter>
<linearGradient id="paint0_linear_10_55" x1="628.683" y1="-294.267" x2="776.113" y2="-333.77" gradientUnits="userSpaceOnUse">
<stop stop-color="#EEE8D1"/>
<stop offset="1" stop-color="#FF99CC"/>
</linearGradient>
<linearGradient id="paint1_linear_10_55" x1="849.188" y1="95.8574" x2="849.19" y2="135.042" gradientUnits="userSpaceOnUse">
<stop stop-color="#FF00FF"/>
<stop offset="1" stop-color="#FF00FF" stop-opacity="0"/>
</linearGradient>
<linearGradient id="paint2_linear_10_55" x1="461.33" y1="239.777" x2="470.502" y2="274.009" gradientUnits="userSpaceOnUse">
<stop stop-color="#FF00FF"/>
<stop offset="1" stop-color="#FF00FF" stop-opacity="0"/>
</linearGradient>
<linearGradient id="paint3_linear_10_55" x1="868.334" y1="215.106" x2="859.296" y2="187.246" gradientUnits="userSpaceOnUse">
<stop stop-color="#0C0E1D"/>
<stop offset="1" stop-color="#FF00FF" stop-opacity="0"/>
</linearGradient>
<linearGradient id="paint4_linear_10_55" x1="804.159" y1="62.641" x2="804.157" y2="95.7083" gradientUnits="userSpaceOnUse">
<stop stop-color="#FF00FF"/>
<stop offset="1" stop-color="#FF00FF" stop-opacity="0"/>
</linearGradient>
<linearGradient id="paint5_linear_10_55" x1="945.089" y1="241.112" x2="928.641" y2="219.147" gradientUnits="userSpaceOnUse">
<stop stop-color="#0C0E1D"/>
<stop offset="1" stop-color="#FF99CC"/>
</linearGradient>
<linearGradient id="paint6_linear_10_55" x1="816.029" y1="-315.171" x2="968.659" y2="-315.171" gradientUnits="userSpaceOnUse">
<stop stop-color="#EEE8D1"/>
<stop offset="1" stop-color="#FF99CC"/>
</linearGradient>
<linearGradient id="paint7_linear_10_55" x1="928.049" y1="118.729" x2="917.909" y2="156.579" gradientUnits="userSpaceOnUse">
<stop stop-color="#FF00FF"/>
<stop offset="1" stop-color="#FF00FF" stop-opacity="0"/>
</linearGradient>
<linearGradient id="paint8_linear_10_55" x1="516.159" y1="157.359" x2="516.159" y2="192.799" gradientUnits="userSpaceOnUse">
<stop stop-color="#FF00FF"/>
<stop offset="1" stop-color="#FF00FF" stop-opacity="0"/>
</linearGradient>
<linearGradient id="paint9_linear_10_55" x1="915.679" y1="238.869" x2="914.159" y2="209.619" gradientUnits="userSpaceOnUse">
<stop stop-color="#0C0E1D"/>
<stop offset="1" stop-color="#FF00FF" stop-opacity="0"/>
</linearGradient>
<linearGradient id="paint10_linear_10_55" x1="893.294" y1="75.2487" x2="884.734" y2="107.189" gradientUnits="userSpaceOnUse">
<stop stop-color="#FF00FF"/>
<stop offset="1" stop-color="#FF00FF" stop-opacity="0"/>
</linearGradient>
</defs>
</svg>
