<svg width="105" height="318" viewBox="0 0 105 318" fill="none" xmlns="http://www.w3.org/2000/svg">
<path d="M49.2517 173.944C42.0854 174.309 35.0932 175.971 28.7428 178.82C26.0335 179.973 25.1124 181.275 25.4917 183.961C28.4989 205.538 31.2894 227.15 34.2019 248.739C35.8681 261.037 37.6697 273.301 39.4036 285.623L40.5415 285.519C39.6384 263.389 38.767 241.254 37.9271 219.116L39.1734 219.012L42.1806 233.858H43.3727C44.7138 224.245 48.8995 182.808 49.2517 173.944Z" fill="#004F79"/>
<path d="M62.1877 136.207C49.1969 132.254 35.8132 133.902 22.1993 133.475C26.3986 132.461 30.5437 131.332 34.7837 130.456C51.1882 127.09 67.5927 126.087 83.9294 130.755L85.0673 131.043C97.0422 134.501 98.451 136.08 98.0175 145.97C97.8008 150.926 97.3402 155.871 97.0015 160.401C84.1868 158.188 72.0358 154.972 59.6546 154.269C47.2733 153.566 34.6754 155.422 21.969 156.09C30.7605 149.509 42.627 149.174 53.6672 146.546H22.7276C34.2148 138.455 48.7499 138.997 62.1877 136.207Z" fill="#004F79"/>
<path d="M5.86247 143.987C3.87118 137.648 1.73088 131.308 0.0375977 124.946C0.053685 124.273 0.290545 123.617 0.72142 123.053C1.1523 122.489 1.76001 122.039 2.47592 121.753C22.0231 114.411 61.6323 112.036 84.4441 121.361C84.83 121.485 85.1733 121.689 85.443 121.955C85.7127 122.221 85.9001 122.54 85.9884 122.882C81.613 122.099 77.3053 121.153 72.8486 120.577C51.8655 117.707 31.4919 118.272 12.1886 124.807C8.23307 126.156 6.29596 127.735 6.85135 130.674C7.62349 135.031 7.70476 139.423 8.08406 143.814L5.86247 143.987Z" fill="#004F79"/>
<path d="M60.0474 162.314C41.2317 160.147 20.6821 163.04 8.9375 171.766C15.2229 177.529 16.4286 177.529 24.2176 173.852C28.8369 171.673 57.6633 162.614 60.0474 162.314Z" fill="#004F79"/>
<path d="M46.8265 238.561L43.5754 222.551L42.2208 222.655C43.1239 246.537 44.0631 270.424 45.0384 294.314L43.8057 294.418C41.9363 281.162 39.9857 267.907 38.1976 254.663C35.0955 231.392 32.0611 208.039 28.81 184.744C28.4036 181.851 29.4467 180.445 32.3185 179.212C46.7859 172.965 61.4564 171.985 76.4927 177.598C85.1352 180.826 85.3384 181.056 84.0786 188.94C80.0599 214.36 75.996 239.775 71.887 265.187C69.3945 281.078 66.9065 296.965 64.423 312.848C64.0438 315.211 63.8406 318.231 59.9528 317.378C58.5982 317.067 57.2435 314.139 57.2435 312.364C56.214 281.992 55.3742 251.62 54.453 221.248C54.4269 216.631 53.7723 212.032 52.5024 207.544C51.0665 217.879 49.6261 228.222 48.1811 238.573L46.8265 238.561Z" fill="#73CDDB"/>
<path d="M68.6629 136.875C55.6721 132.599 42.2885 134.374 28.6745 133.913C32.8738 132.83 37.019 131.608 41.2589 130.663C57.6634 127.02 74.0679 125.948 90.4046 130.974L91.5425 131.297C103.517 135.031 104.926 136.725 104.493 147.433C104.276 152.782 103.802 158.118 103.463 163.006C90.6485 160.62 78.5111 157.162 66.1298 156.401C53.7486 155.64 41.137 157.554 28.4307 158.36C37.2222 151.249 49.0886 150.868 60.1424 148.056H29.2299C40.7171 139.319 55.2657 139.895 68.6629 136.875Z" fill="#73CDDB"/>
<path d="M10.5766 160.401C8.32793 150.43 5.90316 140.483 3.99314 130.432C3.95283 129.476 4.17699 128.525 4.64757 127.656C5.11815 126.788 5.82199 126.025 6.70239 125.43C28.8234 113.903 73.6343 110.157 99.4534 124.807C99.9346 125.07 100.341 125.42 100.643 125.833C100.946 126.245 101.136 126.71 101.201 127.193C96.2565 125.96 91.3663 124.496 86.3 123.539C62.5535 119.033 39.5113 119.863 17.6748 130.179C13.191 132.3 11.0101 134.789 11.6332 139.4C12.5137 146.246 12.595 153.151 12.9878 160.043L10.5766 160.401Z" fill="#73CDDB"/>
<path d="M12.8389 173.414C32.6028 157.45 81.1796 157.957 99.7243 173.495C92.9512 178.728 92.5449 178.635 85.2705 174.774C66.3058 164.677 47.1921 164.804 28.2274 174.774C20.6957 178.693 19.4901 178.739 12.8389 173.414Z" fill="#73CDDB"/>
<path d="M79.3777 91.3464C79.3777 90.6317 79.3777 89.894 79.3777 89.1679C79.3075 88.8874 79.334 88.5957 79.4542 88.3278C79.5744 88.0599 79.783 87.8272 80.055 87.6579C80.413 87.4647 80.6898 87.1798 80.8455 86.8443C81.0013 86.5088 81.0281 86.1399 80.922 85.7906C80.7763 85.0243 80.959 84.239 81.4367 83.5776C81.7774 83.1396 81.9757 82.6326 82.0114 82.1083C82.0471 81.5839 81.9189 81.0608 81.6399 80.5923C81.3837 80.2211 81.3083 79.7794 81.4298 79.3615C81.5513 78.9437 81.8601 78.5828 82.2901 78.3562C83.1977 77.7798 84.1324 77.2035 84.9994 76.6848C85.6631 76.2814 86.503 76.0048 86.4895 75.1288C86.4759 74.2528 86.7062 73.2961 85.5819 72.6045C84.7312 71.9942 83.9344 71.3316 83.1977 70.622C81.1523 68.9622 80.3124 66.7261 79.3235 64.5706C79.2566 64.2117 79.2566 63.8461 79.3235 63.4872C79.3235 61.666 79.2152 59.8448 79.3235 58.0467C79.2605 56.1069 78.8494 54.1868 78.1044 52.3527C78.1044 52.2374 77.7522 52.1222 77.7657 52.0415C78.1585 50.1281 76.2621 48.7219 76.1808 46.9123C76.1808 46.8085 75.8421 46.6126 75.6796 46.6126C75.517 46.6126 75.1919 46.8546 75.2055 46.9584C75.1835 48.3705 75.3013 49.7817 75.5577 51.177C76.0719 52.5554 76.0048 54.0433 75.368 55.3841C75.2899 55.4997 75.2306 55.6238 75.1919 55.753C74.6495 59.5279 73.2705 63.181 71.1281 66.5186C69.278 69.4035 67.0905 72.1221 64.5988 74.6331C61.9844 77.2957 59.1803 79.82 56.471 82.4134C55.597 83.3088 54.8555 84.292 54.263 85.3411C52.9266 87.331 51.8803 89.4522 51.1474 91.6576C51.0934 91.7943 51.003 91.9185 50.8831 92.0205C50.7632 92.1225 50.6172 92.1995 50.4565 92.2454C50.2804 92.2454 49.9418 91.9918 49.7521 91.7728C48.3506 89.8506 46.8125 88.003 45.1464 86.2402C44.1403 85.3356 43.0128 84.5348 41.7869 83.8542C40.053 82.886 38.6171 81.549 36.5175 80.9842C35.2928 80.4631 34.1504 79.8125 33.1174 79.0477C30.5132 77.7045 28.0957 76.1153 25.9108 74.3104C25.3147 73.8148 24.3665 73.469 23.8517 72.8696C21.6302 70.2877 18.7854 68.1208 16.9296 65.2738C15.1126 62.2143 13.6035 59.0293 12.4187 55.753C12.4187 55.6262 12.2155 55.4879 12.2426 55.3841C12.6084 53.7935 11.7414 52.3297 11.7414 50.7736C11.5751 49.24 11.5751 47.6966 11.7414 46.1631C12.5542 42.4977 13.4211 38.8669 16.0085 35.6856C17.1412 34.0904 18.4232 32.5756 19.8421 31.1557C21.7483 29.6072 23.8209 28.2141 26.0327 26.9947C29.934 24.5857 34.1604 22.753 38.2243 20.5284C42.7922 17.9382 46.9687 14.88 50.6597 11.4226C51.8955 10.0859 52.9033 8.60748 53.6534 7.03107C54.0487 6.2292 54.3924 5.40962 54.6829 4.57596C55.1069 3.25947 55.446 1.92427 55.6989 0.576318C55.7614 0.380292 55.8383 0.187805 55.9292 0C56.2285 0.056432 56.5193 0.141501 56.7962 0.253581C58.1508 0.933636 58.3269 2.24764 58.6791 3.28501C59.1297 4.51683 59.4871 5.77193 59.7492 7.0426C59.966 8.34627 59.966 9.66942 59.7492 10.9731C59.4763 12.9971 58.9355 14.9884 58.1372 16.9092C57.487 18.35 56.3491 19.6179 56.0782 21.197C55.9156 22.1652 54.3443 22.5801 54.6423 23.7443C53.2877 24.8969 53.8431 26.7988 52.651 28.0551C52.7594 29.8763 52.1363 31.7436 53.3012 33.4725C53.8837 34.3485 54.1682 35.3283 54.832 36.2158C55.0917 36.5859 55.4369 36.9075 55.8466 37.1611C56.2564 37.4146 56.7222 37.595 57.2161 37.6912C58.1409 37.8647 59.1031 37.8289 60.0066 37.5874C62.621 37.0688 63.9215 35.4435 65.4251 33.876C67.457 31.8012 68.4053 29.1732 70.5185 27.1561C71.3583 26.3262 71.9544 25.3234 72.7671 24.4589C74.2301 22.9029 76.4111 22.2459 78.443 21.416C78.6733 21.3122 79.161 21.5889 79.459 21.7618C79.9737 22.0269 79.459 22.1652 79.31 22.3727C78.4772 24.0723 77.9167 25.8595 77.6438 27.6863C77.6342 29.4862 78.1608 31.2588 79.1745 32.8386C79.7164 33.8183 80.3801 34.7635 80.9084 35.7202C81.7643 37.0451 82.7571 38.3026 83.8751 39.4778C84.6792 40.7211 85.5845 41.915 86.5843 43.0509C89.4967 45.6328 91.5287 48.7219 93.9534 51.592C94.8288 52.475 95.5248 53.4762 96.0125 54.5542C96.3647 55.6262 97.3671 56.3639 97.7464 57.4589C98.1257 58.5539 98.7895 59.8448 99.4126 60.9975C100.206 62.4467 100.665 64.0117 100.767 65.608C100.862 66.4997 101.025 67.3853 101.255 68.2591C101.404 69.089 100.889 70.0111 101.607 70.7488C100.632 72.4316 101.526 74.2758 100.957 76.0624C100.483 77.5608 100.212 79.1169 99.7241 80.673C99.611 81.2743 99.4295 81.8649 99.1823 82.4365C97.5838 85.0184 96.473 87.7962 94.1837 90.0669C93.5267 90.5802 92.9527 91.1655 92.4769 91.8074C91.9555 92.5676 91.22 93.2053 90.3366 93.6631C87.8306 95.0694 86.0289 97.317 83.0487 98.1584C80.3395 100.464 76.7497 101.455 73.7696 103.345C71.807 104.354 69.771 105.254 67.6738 106.042C65.3167 107.195 63.0681 108.486 60.7517 109.719C60.3453 109.938 59.7628 110.422 59.5731 110.319C58.9943 110.061 58.5217 109.659 58.2185 109.166C57.8982 108.459 57.7241 107.71 57.7038 106.953C57.5146 105.877 57.22 104.817 56.8232 103.783C56.4838 102.526 56.4616 101.221 56.7581 99.9552C57.0547 98.6896 57.6632 97.4918 58.5436 96.441C59.0057 95.8572 59.6455 95.3911 60.3947 95.0927C61.1438 94.7943 61.9742 94.6746 62.7971 94.7466C64.9532 94.9343 67.0789 95.3208 69.1368 95.8993C70.343 96.3601 71.6652 96.5582 72.9839 96.4756C74.008 96.4237 75.0348 96.4237 76.0589 96.4756C76.8544 96.5069 77.6321 96.2684 78.2213 95.8125C78.8104 95.3566 79.163 94.7204 79.2016 94.0435V93.9052C79.4183 92.9485 79.3777 92.1532 79.3777 91.3464Z" fill="url(#paint0_linear_41_882)"/>
<path d="M44.5778 98.2735C44.5778 98.4579 44.5778 99.1841 44.1985 99.3109C43.3044 99.6682 43.5618 98.723 43.2096 98.4118C42.4646 97.7779 41.855 97.0056 41.1912 96.314C39.5765 94.8427 37.6269 93.6663 35.4612 92.8561C33.375 91.934 30.9638 91.1963 28.8642 90.1474C26.7658 89.2393 24.8352 88.0742 23.1341 86.6895C21.8607 85.5369 20.5197 84.3842 19.1651 83.3008C17.4237 81.8552 16.1299 80.0653 15.3992 78.0909C14.8844 76.8114 13.6382 75.7856 13.6924 74.3217C13.6924 74.1719 13.2318 73.9875 13.2589 73.8492C13.3017 72.9373 13.1266 72.0276 12.7441 71.175C12.7441 71.0252 12.8931 70.8062 12.988 70.6333C13.2454 70.737 13.584 70.8062 13.733 70.9906C15.593 73.2086 17.7883 75.2083 20.2623 76.9382C22.8671 78.7181 25.5801 80.3802 28.39 81.9176C30.3001 83.0702 32.3591 83.9462 34.2962 85.0067C37.7608 86.9346 40.6689 89.5036 42.8032 92.5219C43.489 93.8123 44.0288 95.1554 44.4152 96.533C44.5325 97.1077 44.5869 97.6903 44.5778 98.2735Z" fill="url(#paint1_linear_41_882)"/>
<defs>
<linearGradient id="paint0_linear_41_882" x1="56.6878" y1="110.25" x2="56.6878" y2="-0.0345763" gradientUnits="userSpaceOnUse">
<stop stop-color="#F26428"/>
<stop offset="1" stop-color="#F1EB4D"/>
</linearGradient>
<linearGradient id="paint1_linear_41_882" x1="28.6474" y1="99.3916" x2="28.6474" y2="70.5757" gradientUnits="userSpaceOnUse">
<stop stop-color="#F26428"/>
<stop offset="1" stop-color="#F1EB4D"/>
</linearGradient>
</defs>
</svg>
