<svg width="330" height="194" viewBox="0 0 330 194" fill="none" xmlns="http://www.w3.org/2000/svg">
<path d="M51.6816 93.3779V99.423L41.8562 88.5971V104.889H38.0718V78.3556L51.6816 93.3779ZM52.8737 78.3556H56.6582V104.889L52.8737 100.723V78.3556V78.3556Z" fill="white"/>
<path d="M81.3185 101.015C80.1723 102.218 78.8245 103.182 77.3448 103.856C75.8116 104.545 74.1646 104.899 72.5007 104.899C70.8369 104.899 69.1898 104.545 67.6566 103.856C64.6754 102.506 62.3016 99.9783 61.0338 96.8036C60.368 95.1747 60.0265 93.4165 60.0309 91.64C60.0221 89.8601 60.357 88.0974 61.0149 86.4612C62.2781 83.2832 64.6534 80.7537 67.6377 79.4085C69.9216 78.3545 72.4521 78.0632 74.8948 78.5732C77.3375 79.0832 79.5774 80.3705 81.3185 82.2649L78.2957 85.4839C77.5458 84.6892 76.6635 84.0503 75.6939 83.5999C74.6906 83.1381 73.6078 82.9048 72.5149 82.9147C71.4176 82.9062 70.3304 83.1394 69.3218 83.5999C68.3514 84.0422 67.4686 84.6764 66.72 85.4688C65.9749 86.2622 65.3806 87.2013 64.9697 88.2345C64.5358 89.31 64.3152 90.4694 64.3216 91.64C64.3147 92.8041 64.5354 93.9569 64.9697 95.0252C65.8058 97.1046 67.3655 98.7584 69.3218 99.6397C70.3304 100.1 71.4176 100.333 72.5149 100.325C73.6078 100.335 74.6906 100.101 75.6939 99.6397C76.6592 99.1965 77.5408 98.5701 78.2957 97.7909L81.3185 101.015ZM74.4592 91.64C74.4579 92.1967 74.2497 92.7302 73.88 93.1239C73.5103 93.5176 73.0093 93.7393 72.4865 93.7406C72.2229 93.745 71.9612 93.6923 71.7173 93.5858C71.4734 93.4793 71.2523 93.3211 71.0674 93.121C70.8761 92.9324 70.7241 92.7031 70.6214 92.448C70.5187 92.1928 70.4676 91.9175 70.4713 91.64C70.4657 91.3576 70.5158 91.0772 70.6185 90.8168C70.7212 90.5565 70.8741 90.322 71.0674 90.1287C71.2531 89.9301 71.4745 89.7734 71.7183 89.6679C71.9621 89.5623 72.2234 89.51 72.4865 89.5141C72.7463 89.509 73.0043 89.5609 73.2444 89.6667C73.4844 89.7724 73.7015 89.9297 73.882 90.1287C74.0689 90.3262 74.2163 90.5618 74.3155 90.8216C74.4147 91.0813 74.4636 91.3596 74.4592 91.64V91.64Z" fill="white"/>
<path d="M97.1991 78.3556L109.641 104.889H84.7246L97.1991 78.3556ZM97.1991 87.4234L90.9122 100.854H103.491L97.1991 87.4234Z" fill="white"/>
<path d="M126.732 93.3779V99.423L116.883 88.5971V104.889H113.099V78.3556L126.732 93.3779ZM127.92 78.3556H131.704V104.889L127.92 100.723V78.3556V78.3556Z" fill="white"/>
<path d="M144.893 78.3556C146.158 78.3581 147.408 78.6609 148.55 79.2422C149.785 79.8736 150.867 80.8013 151.71 81.9525C152.704 83.3318 153.458 84.8895 153.938 86.5518C154.539 88.6744 154.825 90.8841 154.784 93.1008C154.852 95.1672 154.558 97.2289 153.919 99.1812C153.452 100.556 152.675 101.788 151.658 102.768C150.75 103.602 149.665 104.186 148.497 104.471C147.315 104.759 146.106 104.905 144.893 104.904H135.067V78.3556H144.893ZM149.008 99.2769C149.364 98.9363 149.652 98.5236 149.855 98.0629C150.087 97.5548 150.264 97.0209 150.385 96.471C150.509 95.8989 150.594 95.318 150.64 94.733C150.683 94.1436 150.707 93.5693 150.707 93.0152C150.768 91.2288 150.533 89.4449 150.011 87.7458C149.671 86.7023 149.183 85.7204 148.564 84.834C148.145 84.2128 147.594 83.7062 146.956 83.3558C146.318 83.0055 145.611 82.8215 144.893 82.819H139.15V100.38H144.893C146.842 100.394 148.214 100.026 149.008 99.2769Z" fill="white"/>
<path d="M176.848 82.8391H162.363V92.6877H172.018L171.199 97.1763H162.363V100.4H176.848V104.889H158.186V78.3556H176.848V82.8391Z" fill="white"/>
<path d="M198.164 91.0958C199.014 91.6155 199.732 92.3488 200.255 93.2318C200.74 94.0684 200.994 95.034 200.988 96.0176C200.969 97.0289 200.76 98.0259 200.373 98.9495C199.932 100.036 199.288 101.017 198.481 101.831C197.543 102.771 196.447 103.513 195.25 104.017C192.379 105.134 189.239 105.185 186.337 104.163C185.202 103.731 184.145 103.095 183.21 102.284C182.401 101.579 181.731 100.712 181.238 99.7304C180.801 98.8708 180.498 97.942 180.339 96.9798L184.45 96.1486C184.502 96.5328 184.599 96.9085 184.738 97.2669C184.949 97.8191 185.272 98.3146 185.684 98.7178C186.234 99.2592 186.877 99.6833 187.577 99.9671C188.557 100.342 189.596 100.513 190.637 100.471C191.711 100.512 192.781 100.322 193.783 99.9117C194.486 99.6098 195.129 99.1669 195.675 98.607C196.084 98.1833 196.398 97.6667 196.593 97.0957C196.722 96.7421 196.801 96.3704 196.83 95.9924C196.83 95.4635 196.328 94.9597 195.335 94.4811C194.341 94.0026 192.771 93.7759 190.642 93.7759C189.263 93.7981 187.886 93.6715 186.531 93.398C185.55 93.1884 184.596 92.8499 183.693 92.3905C183.014 92.0488 182.394 91.5891 181.857 91.0303C181.445 90.5989 181.101 90.0986 180.84 89.5493C180.631 89.1159 180.481 88.6528 180.396 88.174C180.336 87.8332 180.301 87.4879 180.292 87.1413C180.312 86.1303 180.521 85.1337 180.906 84.2094C181.345 83.1264 181.989 82.1521 182.799 81.348C183.739 80.4186 184.833 79.6825 186.025 79.1767C188.907 78.0645 192.058 78.0219 194.966 79.0558C196.102 79.4943 197.16 80.1366 198.093 80.955C198.896 81.6524 199.565 82.5075 200.065 83.4739C200.504 84.3274 200.809 85.2513 200.969 86.2093L196.853 87.0808C196.801 86.6951 196.704 86.3178 196.565 85.9574C196.354 85.4113 196.03 84.9224 195.619 84.5267C195.063 83.9983 194.422 83.5818 193.726 83.2975C192.748 82.9115 191.708 82.7318 190.666 82.7686C189.605 82.7319 188.548 82.922 187.558 83.3278C186.855 83.628 186.212 84.0693 185.665 84.6275C185.258 85.0373 184.936 85.5332 184.719 86.0834C184.583 86.4143 184.497 86.7663 184.464 87.1262C184.488 87.4003 184.604 87.6561 184.79 87.8465C185.084 88.169 185.443 88.4155 185.84 88.5669C186.46 88.8226 187.104 89.0034 187.761 89.1059C188.717 89.2638 189.684 89.3363 190.651 89.3226C193.865 89.3696 196.369 89.9607 198.164 91.0958Z" fill="white"/>
<path d="M225.663 101.015C224.514 102.217 223.165 103.181 221.684 103.856C220.151 104.545 218.504 104.899 216.84 104.899C215.176 104.899 213.529 104.545 211.996 103.856C209.015 102.505 206.642 99.9777 205.373 96.8036C204.711 95.1758 204.374 93.419 204.385 91.645C204.375 89.8646 204.712 88.1014 205.373 86.4663C206.637 83.2889 209.012 80.7596 211.996 79.4136C213.532 78.7101 215.187 78.3533 216.859 78.3657C218.498 78.3523 220.123 78.6916 221.636 79.3634C223.148 80.0351 224.518 81.0255 225.663 82.275L222.635 85.494C221.887 84.6993 221.006 84.0603 220.038 83.6099C219.034 83.1492 217.952 82.9159 216.859 82.9248C215.76 82.9163 214.671 83.1495 213.661 83.6099C211.703 84.4991 210.144 86.1597 209.309 88.2446C208.877 89.3205 208.658 90.4798 208.666 91.65C208.657 92.8138 208.876 93.9667 209.309 95.0353C209.727 96.0615 210.322 96.9947 211.064 97.7859C211.81 98.5778 212.692 99.2105 213.661 99.6498C214.671 100.11 215.76 100.343 216.859 100.335C217.952 100.344 219.034 100.111 220.038 99.6498C221.002 99.2066 221.882 98.5801 222.635 97.801L225.663 101.015ZM218.794 91.64C218.793 92.1958 218.585 92.7286 218.216 93.1221C217.848 93.5157 217.348 93.738 216.826 93.7407C216.562 93.7444 216.301 93.6914 216.057 93.585C215.813 93.4785 215.592 93.3207 215.407 93.121C215.216 92.9322 215.065 92.7027 214.963 92.4475C214.861 92.1924 214.811 91.9172 214.815 91.64C214.809 91.358 214.859 91.0778 214.96 90.8175C215.062 90.5571 215.214 90.3225 215.407 90.1287C215.593 89.9306 215.814 89.7742 216.058 89.6687C216.302 89.5631 216.563 89.5106 216.826 89.5141C217.085 89.5097 217.342 89.562 217.581 89.6677C217.82 89.7734 218.037 89.9303 218.217 90.1287C218.404 90.3255 218.552 90.561 218.652 90.8209C218.751 91.0808 218.799 91.3595 218.794 91.64V91.64Z" fill="white"/>
<path d="M247.792 82.8391H233.312V92.6877H242.967L242.158 97.1763H233.312V100.4H247.792V104.889H229.13V78.3556H247.792V82.8391Z" fill="white"/>
<path d="M264.789 93.3779V99.423L254.964 88.5971V104.889H251.179V78.3556L264.789 93.3779ZM265.976 78.3556H269.761V104.889L265.976 100.723V78.3556V78.3556Z" fill="white"/>
<path d="M294.431 101.015C293.284 102.219 291.934 103.183 290.453 103.856C288.919 104.545 287.272 104.899 285.608 104.899C283.945 104.899 282.297 104.545 280.764 103.856C277.784 102.505 275.41 99.9776 274.141 96.8035C273.481 95.1754 273.145 93.4186 273.158 91.6449C273.146 89.8649 273.481 88.1016 274.141 86.4662C275.405 83.2888 277.781 80.7596 280.764 79.4135C282.302 78.7285 283.951 78.3757 285.618 78.3757C287.284 78.3757 288.934 78.7285 290.471 79.4135C291.956 80.088 293.301 81.0672 294.431 82.295L291.408 85.5141C290.657 84.7204 289.775 84.0816 288.806 83.63C287.798 83.1779 286.714 82.945 285.62 82.945C284.526 82.945 283.443 83.1779 282.434 83.63C280.474 84.5152 278.913 86.1771 278.082 88.2647C277.646 89.3395 277.425 90.4993 277.434 91.6701C277.425 92.8345 277.646 93.9878 278.082 95.0554C278.498 96.0814 279.092 97.0145 279.832 97.806C280.579 98.5991 281.463 99.2319 282.434 99.6699C283.443 100.122 284.526 100.355 285.62 100.355C286.714 100.355 287.798 100.122 288.806 99.6699C289.771 99.2254 290.652 98.5991 291.408 97.8211L294.431 101.015ZM287.572 91.6399C287.568 92.1958 287.359 92.7278 286.99 93.1209C286.621 93.514 286.121 93.7366 285.599 93.7406C285.335 93.7443 285.074 93.6914 284.83 93.5849C284.586 93.4784 284.365 93.3206 284.18 93.121C283.991 92.9306 283.841 92.7008 283.739 92.446C283.637 92.1912 283.586 91.9168 283.588 91.6399C283.584 91.3582 283.635 91.0787 283.736 90.8187C283.838 90.5586 283.989 90.3237 284.18 90.1286C284.366 89.9305 284.587 89.7741 284.831 89.6686C285.075 89.563 285.336 89.5105 285.599 89.514C285.858 89.5096 286.115 89.5619 286.354 89.6676C286.593 89.7734 286.81 89.9302 286.99 90.1286C287.178 90.3251 287.327 90.5605 287.427 90.8204C287.527 91.0802 287.576 91.3591 287.572 91.6399Z" fill="white"/>
<path d="M316.561 82.8391H302.08V92.6877H311.735L310.917 97.1763H302.08V100.4H316.561V104.889H297.898V78.3556H316.561V82.8391Z" fill="white"/>
<path d="M296.252 114.39C296.214 114.796 295.792 115.503 294.985 116.511C294.485 117.184 293.912 117.791 293.277 118.319C292.5 119.004 291.804 119.787 291.205 120.652C291.058 120.863 290.822 121.156 290.495 121.599C290.366 121.73 290.256 121.881 290.169 122.047C289.827 122.413 289.527 122.821 289.275 123.261H289.341L289.369 123.332C289.396 123.282 289.431 123.237 289.473 123.201C289.488 123.197 289.503 123.2 289.516 123.207C289.529 123.214 289.539 123.226 289.544 123.241L289.606 123.161H289.719C289.736 123.122 289.759 123.087 289.789 123.059C289.818 123.03 289.852 123.008 289.89 122.994L289.937 123.04L290.017 122.934V122.959C290.365 122.635 290.682 122.276 290.964 121.886C291.62 121.053 291.96 120.62 291.985 120.586V120.536C292.67 119.669 293.728 118.402 295.16 116.732C295.254 116.783 295.311 116.984 295.325 117.322C294.81 117.755 294.356 118.264 293.977 118.833C293.154 119.936 292.681 120.546 292.558 120.657H292.51L292.009 121.412C291.889 121.588 291.759 121.756 291.621 121.916C291.674 121.927 291.729 121.927 291.782 121.916C292.005 121.664 292.309 121.511 292.633 121.488C292.649 121.493 292.665 121.493 292.681 121.488C292.693 121.456 292.693 121.42 292.681 121.387C292.804 121.298 292.953 121.257 293.102 121.271C293.395 121.13 293.788 120.909 294.275 120.616C294.54 120.564 294.794 120.463 295.027 120.319C295.145 120.319 295.264 120.4 295.372 120.601C295.385 120.928 295.502 121.241 295.704 121.488V121.518C295.753 121.646 295.781 121.783 295.784 121.921C295.771 122.011 295.736 122.095 295.682 122.165C295.628 122.235 295.557 122.289 295.477 122.319C295.344 122.381 295.218 122.455 295.098 122.541L294.985 122.662C294.928 122.702 294.89 122.707 294.871 122.662C293.556 123.196 292.271 123.808 291.02 124.495C289.794 125.119 288.653 125.917 287.628 126.868C287.628 126.999 287.501 127.075 287.217 127.105C287.202 127.106 287.187 127.103 287.174 127.096C287.16 127.089 287.149 127.078 287.141 127.065C286.909 127.15 286.668 126.999 286.436 126.601C286.24 126.351 286.131 126.036 286.129 125.71C286.433 124.948 286.819 124.226 287.278 123.558C287.712 122.796 288.195 122.067 288.726 121.377V121.332C288.726 121.297 288.726 121.256 288.802 121.201H288.873V121.176C288.945 121.008 289.044 120.854 289.166 120.722C289.277 120.561 289.404 120.412 289.544 120.279C289.531 120.268 289.523 120.251 289.521 120.234C289.62 120.173 289.653 120.133 289.62 120.103C289.814 119.871 290.093 119.549 290.49 119.135C290.545 119.028 290.623 118.936 290.718 118.868H290.694L290.859 118.657C290.917 118.575 290.986 118.502 291.063 118.44L291.039 118.395C291.12 118.304 291.247 118.178 291.413 118.012C291.832 117.411 292.292 116.843 292.79 116.314C293.323 115.749 293.81 115.138 294.247 114.486L294.332 114.43C294.301 114.418 294.268 114.418 294.237 114.43C293.899 114.501 293.568 114.605 293.248 114.743C292.93 114.845 292.628 115 292.354 115.201C292.05 115.333 291.772 115.526 291.536 115.77C291.293 116.015 291.03 116.238 290.751 116.435C290.5 116.764 290.223 117.07 289.923 117.347V117.397C289.892 117.458 289.85 117.511 289.8 117.554C289.729 117.629 289.715 117.68 289.743 117.71L289.62 117.816V117.866L289.478 118.022C289.402 118.022 289.369 118.103 289.379 118.229L289.294 118.264C289.101 118.47 288.953 118.717 288.858 118.989C288.777 119.027 288.704 119.084 288.646 119.156H288.532C288.291 119.196 288.035 119.05 287.77 118.722C287.657 118.608 287.567 118.47 287.504 118.318C287.442 118.166 287.408 118.002 287.406 117.836C287.495 117.652 287.562 117.458 287.605 117.256C287.605 116.541 288.05 115.629 288.953 114.511C289.038 114.486 289.09 114.44 289.1 114.375C289.227 114.279 289.412 114.133 289.653 113.926L289.7 113.952L289.97 113.654L290.046 113.72C290.091 113.643 290.145 113.572 290.207 113.508C290.214 113.513 290.222 113.515 290.23 113.515C290.239 113.515 290.247 113.513 290.254 113.508C290.294 113.501 290.329 113.478 290.353 113.443C290.386 113.398 290.42 113.387 290.453 113.418C290.446 113.407 290.443 113.395 290.443 113.382C290.443 113.37 290.446 113.358 290.453 113.347C290.453 113.347 290.5 113.317 290.59 113.307C290.68 113.297 290.666 113.262 290.689 113.176C290.761 113.137 290.831 113.093 290.897 113.045C290.964 112.99 291.042 112.954 291.124 112.939C291.141 112.898 291.168 112.863 291.202 112.838C291.237 112.812 291.277 112.796 291.318 112.793C291.365 112.788 291.41 112.772 291.451 112.747C291.492 112.722 291.527 112.688 291.555 112.647C291.555 112.682 291.555 112.692 291.607 112.692C291.642 112.663 291.673 112.627 291.697 112.586C291.744 112.516 291.782 112.481 291.815 112.476C291.829 112.48 291.841 112.488 291.851 112.5C291.86 112.511 291.866 112.526 291.867 112.541L292.033 112.355L292.127 112.395V112.319L292.326 112.249H292.26C292.388 112.209 292.506 112.139 292.605 112.042C292.613 112.046 292.621 112.047 292.629 112.047C292.637 112.047 292.645 112.046 292.652 112.042C292.619 112.042 292.652 112.017 292.756 111.957C292.777 111.959 292.795 111.97 292.808 111.987C292.816 111.999 292.827 112.009 292.839 112.014C292.852 112.02 292.866 112.021 292.879 112.017L292.936 111.891V111.866C292.958 111.884 292.982 111.897 293.007 111.906C293.048 111.903 293.088 111.888 293.121 111.861C293.146 111.839 293.175 111.824 293.206 111.816V111.74C293.365 111.721 293.524 111.689 293.679 111.644V111.574C293.719 111.563 293.756 111.542 293.788 111.513C293.817 111.482 293.855 111.461 293.896 111.453C293.896 111.453 293.925 111.453 293.944 111.453L293.84 111.559L293.958 111.619C293.925 111.619 293.915 111.584 293.93 111.549L294.015 111.493C294.043 111.458 294.015 111.428 293.986 111.398C294.019 111.454 294.04 111.518 294.048 111.584H294.024L294.076 111.629H294.005C293.937 111.713 293.859 111.787 293.773 111.851C293.684 111.851 293.636 111.851 293.636 111.851C293.64 111.842 293.646 111.835 293.653 111.829C293.661 111.824 293.67 111.821 293.679 111.821L293.641 111.922C293.699 111.94 293.75 111.977 293.788 112.027C293.788 111.997 293.755 111.982 293.74 111.987C293.726 111.992 293.698 111.987 293.655 112.068C293.613 112.148 293.584 112.123 293.565 112.068L293.442 112.229C293.427 112.223 293.41 112.223 293.395 112.229C293.362 112.229 293.348 112.269 293.348 112.335C293.348 112.4 293.305 112.415 293.225 112.395C293.392 112.399 293.56 112.389 293.726 112.365L293.821 112.405C293.821 112.289 294.076 112.209 294.578 112.153C295.079 112.098 295.316 112.153 295.434 112.309L295.529 112.35C295.609 112.601 295.73 112.835 295.888 113.04C295.909 113.155 295.955 113.263 296.021 113.357C296.112 113.513 296.179 113.683 296.219 113.861C296.255 114.035 296.266 114.213 296.252 114.39V114.39ZM292.562 112.728C292.529 112.796 292.519 112.874 292.534 112.949L292.562 112.728Z" fill="white"/>
<path d="M309.881 115.045L309.266 120.334C309.266 120.39 309.124 120.742 308.864 121.402C308.802 121.402 308.76 121.463 308.741 121.559H308.67C308.67 121.559 308.641 121.639 308.627 121.805C308.627 121.886 308.566 121.962 308.443 122.032C308.325 122.098 308.277 122.188 308.306 122.299C308.213 122.443 308.092 122.564 307.951 122.652V122.702C307.921 122.73 307.887 122.754 307.851 122.773C307.804 122.803 307.795 122.848 307.851 122.909C307.769 123.002 307.677 123.085 307.577 123.155C307.49 123.242 307.414 123.34 307.35 123.448C307.283 123.547 307.183 123.617 307.071 123.644C307.043 123.68 307.011 123.712 306.976 123.74C306.929 123.785 306.915 123.825 306.929 123.856H306.886C305.751 124.818 304.119 125.579 301.976 126.138L301.905 126.097L301.749 126.138C301.416 126.203 301.075 126.203 300.741 126.138L299.795 125.941C299.745 125.886 299.678 125.85 299.606 125.841C299.528 125.843 299.45 125.835 299.374 125.815C298.902 125.633 298.477 125.336 298.13 124.949C297.184 123.898 296.681 122.976 296.621 122.183C296.621 121.977 296.621 121.15 296.621 119.705L296.787 119.271C296.771 119.251 296.761 119.227 296.758 119.201C296.77 119.163 296.789 119.129 296.815 119.1C296.843 119.06 296.843 119.03 296.815 119.004C296.908 118.771 296.971 118.525 297.004 118.274C297.126 118.131 297.21 117.958 297.25 117.77L297.496 117.453C297.488 117.438 297.484 117.422 297.484 117.405C297.484 117.388 297.488 117.372 297.496 117.357C297.548 117.271 297.615 117.151 297.69 116.994H297.78V116.919L297.695 116.979L297.794 116.823V116.848C297.899 116.783 297.978 116.679 298.017 116.556L298.069 116.622V116.526L298.097 116.324C298.149 116.37 298.187 116.39 298.215 116.385C298.244 116.38 298.248 116.35 298.263 116.274C298.277 116.198 298.31 116.158 298.352 116.153L298.452 116.193C298.49 116.061 298.539 115.933 298.598 115.811H298.646L298.769 115.68L298.745 115.654C298.745 115.654 298.769 115.68 298.859 115.654C298.949 115.629 299.005 115.569 299.114 115.418C299.156 115.353 299.21 115.298 299.273 115.257C299.336 115.215 299.405 115.188 299.478 115.176C299.505 115.047 299.578 114.935 299.682 114.863H299.838C299.889 114.796 299.928 114.719 299.951 114.637L300.103 114.546V114.496C300.113 114.502 300.124 114.505 300.136 114.505C300.148 114.505 300.159 114.502 300.169 114.496C300.216 114.496 300.287 114.435 300.382 114.314C300.457 114.241 300.513 114.147 300.543 114.042C300.67 113.977 300.792 113.899 300.907 113.811L301.077 113.67L301.129 113.715C301.224 113.624 301.546 113.347 302.075 112.889C302.155 112.869 302.226 112.823 302.279 112.758C302.341 112.686 302.419 112.632 302.506 112.602C302.764 112.415 303.005 112.203 303.225 111.967V111.937H303.32C303.354 111.915 303.391 111.897 303.428 111.881H303.499C303.863 111.732 304.213 111.549 304.545 111.332C304.593 111.362 304.65 111.374 304.706 111.367C304.813 111.35 304.912 111.297 304.989 111.216V111.216L305.122 111.151C305.472 111.151 305.841 111.151 306.229 111.151C306.56 111.145 306.883 111.262 307.142 111.483H307.184C307.251 111.479 307.317 111.496 307.374 111.534C307.374 111.599 307.454 111.624 307.553 111.614C307.653 111.604 307.7 111.639 307.71 111.72L307.752 111.69C308.149 112.037 308.731 112.597 309.502 113.357L309.46 113.387C309.653 113.605 309.793 113.871 309.866 114.16C309.94 114.449 309.945 114.753 309.881 115.045ZM308.462 120.128V120.077C308.306 120.545 308.027 120.954 307.658 121.256C307.417 121.675 307.095 122.032 306.711 122.304C306.328 122.616 305.95 122.934 305.586 123.246L305.557 123.201C305.396 123.281 305.16 123.422 304.843 123.614H304.866C304.866 123.614 304.393 123.785 303.547 124.077C302.7 124.37 302.232 124.516 302.184 124.521C301.404 124.589 300.619 124.481 299.88 124.203C299.162 123.971 298.505 123.564 297.96 123.014L298.002 123.251C298.056 123.43 298.132 123.599 298.229 123.755C298.354 124.161 298.578 124.524 298.878 124.808C299.351 125.357 300.197 125.568 301.446 125.443C302.392 125.342 303.679 124.838 305.306 123.931C306.233 123.379 307.039 122.623 307.672 121.715C307.843 121.476 307.989 121.217 308.107 120.944L307.956 121.08H307.932C308.151 120.79 308.333 120.47 308.471 120.128H308.462ZM308.296 117.08C308.324 116.804 308.324 116.525 308.296 116.249C308.234 115.784 308.108 115.33 307.922 114.904C307.734 114.477 307.6 114.024 307.525 113.559C307.474 113.5 307.41 113.455 307.339 113.428C307.269 113.401 307.193 113.392 307.118 113.403C306.962 113.428 306.803 113.437 306.645 113.428C306.336 113.521 306.019 113.578 305.699 113.599V113.649C305.002 113.886 304.32 114.169 303.655 114.496C303.324 114.743 302.842 115.125 302.203 115.644C300.704 117.191 299.876 118.667 299.729 120.057L299.705 120.012V120.183L299.743 120.083C299.682 120.446 299.717 120.821 299.843 121.166V121.216L299.814 121.171C299.98 121.777 300.309 122.318 300.76 122.727C301.101 122.793 301.451 122.858 301.811 122.939C302.158 123.011 302.512 123.038 302.865 123.019C303.408 122.904 303.929 122.695 304.408 122.4C304.94 122.141 305.447 121.827 305.921 121.463C306.589 120.956 307.148 120.302 307.559 119.546C307.97 118.79 308.225 117.949 308.306 117.08H308.296ZM309.081 114.884C309.062 114.707 308.981 114.545 308.854 114.43L308.429 114.027C308.522 114.569 308.693 115.092 308.935 115.579V115.579C308.935 115.695 308.935 115.775 309.001 115.816L308.968 115.725H309.015C309.101 115.455 309.127 115.167 309.091 114.884H309.081Z" fill="white"/>
<path d="M319.829 111.947C319.791 112.353 319.369 113.062 318.562 114.073C318.061 114.745 317.488 115.352 316.854 115.881C316.075 116.563 315.379 117.344 314.782 118.209C314.635 118.42 314.399 118.712 314.072 119.161C313.942 119.289 313.832 119.439 313.746 119.604C313.404 119.97 313.104 120.378 312.852 120.818H312.923L312.951 120.889C312.974 120.837 313.008 120.793 313.05 120.758C313.065 120.756 313.079 120.759 313.092 120.766C313.104 120.773 313.115 120.784 313.121 120.798L313.183 120.717H313.296C313.313 120.679 313.336 120.644 313.366 120.616C313.395 120.587 313.429 120.565 313.467 120.551L313.514 120.596L313.594 120.491V120.516C313.945 120.195 314.262 119.836 314.541 119.443L315.567 118.143V118.098C316.255 117.231 317.313 115.962 318.741 114.289C318.836 114.345 318.893 114.541 318.907 114.879C318.393 115.311 317.94 115.82 317.563 116.39C316.736 117.498 316.262 118.103 316.144 118.214H316.097L315.595 118.969C315.476 119.146 315.347 119.314 315.208 119.473C315.261 119.485 315.315 119.485 315.368 119.473C315.59 119.218 315.894 119.063 316.22 119.04C316.235 119.045 316.252 119.045 316.267 119.04C316.279 119.009 316.279 118.975 316.267 118.944C316.391 118.854 316.539 118.811 316.688 118.823C316.981 118.682 317.374 118.465 317.861 118.168C318.126 118.115 318.381 118.015 318.614 117.871C318.737 117.871 318.85 117.952 318.959 118.153C318.971 118.482 319.088 118.796 319.29 119.045V119.07C319.34 119.198 319.369 119.334 319.375 119.473C319.362 119.563 319.327 119.647 319.273 119.717C319.219 119.787 319.148 119.84 319.068 119.871C318.934 119.932 318.806 120.006 318.685 120.093C318.649 120.135 318.611 120.176 318.571 120.213C318.514 120.254 318.476 120.259 318.457 120.213C317.143 120.748 315.857 121.36 314.607 122.047C313.381 122.672 312.24 123.47 311.215 124.42C311.215 124.551 311.087 124.626 310.803 124.657C310.788 124.66 310.773 124.657 310.759 124.65C310.746 124.643 310.735 124.631 310.728 124.616C310.496 124.702 310.255 124.551 310.023 124.153C309.826 123.903 309.718 123.587 309.715 123.261C310.02 122.5 310.405 121.778 310.865 121.11C311.298 120.347 311.782 119.618 312.312 118.929V118.884C312.312 118.848 312.336 118.808 312.388 118.753H312.459V118.727C312.532 118.559 312.631 118.406 312.752 118.274C312.866 118.115 312.993 117.966 313.131 117.831C313.131 117.831 313.107 117.831 313.107 117.785C313.206 117.73 313.24 117.685 313.206 117.654C313.4 117.423 313.68 117.1 314.077 116.687C314.131 116.58 314.209 116.488 314.304 116.42L314.47 116.209C314.529 116.126 314.599 116.054 314.678 115.992L314.649 115.947C314.734 115.856 314.857 115.73 315.023 115.569C315.441 114.965 315.901 114.396 316.4 113.866C316.933 113.301 317.42 112.689 317.857 112.037L317.942 111.982C317.911 111.969 317.878 111.969 317.847 111.982C317.498 112.062 317.158 112.178 316.83 112.33C316.511 112.432 316.21 112.587 315.936 112.788C315.633 112.923 315.356 113.116 315.118 113.357C314.874 113.602 314.611 113.825 314.332 114.022C314.082 114.353 313.805 114.66 313.505 114.939V114.984C313.474 115.047 313.433 115.102 313.382 115.146C313.311 115.216 313.296 115.267 313.325 115.297L313.202 115.408L313.23 115.453L313.083 115.614C313.008 115.614 312.975 115.69 312.984 115.816L312.899 115.851C312.707 116.056 312.558 116.304 312.464 116.576C312.381 116.615 312.308 116.673 312.251 116.748H312.137C311.896 116.788 311.664 116.642 311.376 116.314C311.263 116.2 311.172 116.062 311.11 115.91C311.047 115.758 311.014 115.594 311.012 115.428C311.1 115.244 311.167 115.05 311.21 114.848C311.21 114.133 311.655 113.221 312.558 112.103C312.644 112.078 312.696 112.037 312.705 111.967C312.833 111.876 313.017 111.725 313.259 111.524H313.306L313.59 111.216L313.665 111.282C313.711 111.204 313.765 111.133 313.826 111.07C313.842 111.076 313.858 111.076 313.873 111.07C313.913 111.06 313.949 111.035 313.973 111C314.006 110.954 314.039 110.944 314.072 110.974C314.066 110.964 314.063 110.952 314.063 110.939C314.063 110.927 314.066 110.914 314.072 110.904C314.072 110.904 314.119 110.874 314.209 110.864C314.299 110.854 314.285 110.818 314.313 110.733C314.384 110.694 314.452 110.65 314.517 110.602C314.583 110.547 314.661 110.51 314.744 110.496C314.761 110.455 314.788 110.42 314.822 110.394C314.856 110.369 314.896 110.353 314.938 110.35C314.985 110.344 315.03 110.329 315.071 110.304C315.111 110.278 315.147 110.244 315.174 110.204C315.174 110.239 315.174 110.254 315.226 110.249C315.278 110.244 315.269 110.214 315.321 110.143C315.373 110.073 315.406 110.037 315.435 110.032C315.449 110.037 315.461 110.047 315.471 110.059C315.48 110.072 315.485 110.087 315.487 110.103L315.652 109.911L315.747 109.952V109.876L315.945 109.806H315.879C316.009 109.768 316.127 109.697 316.225 109.599C316.24 109.605 316.257 109.605 316.272 109.599C316.239 109.599 316.272 109.574 316.376 109.514C316.386 109.514 316.396 109.517 316.405 109.523C316.414 109.528 316.422 109.535 316.428 109.544C316.435 109.556 316.446 109.565 316.459 109.571C316.472 109.576 316.486 109.577 316.499 109.574L316.556 109.448V109.423L316.631 109.468C316.671 109.46 316.708 109.442 316.74 109.418C316.765 109.396 316.794 109.381 316.825 109.372V109.297C316.985 109.277 317.143 109.245 317.298 109.201V109.131C317.339 109.12 317.376 109.099 317.407 109.07C317.438 109.04 317.475 109.02 317.516 109.01C317.531 109.004 317.548 109.004 317.563 109.01L317.459 109.116L317.578 109.176C317.571 109.174 317.565 109.171 317.56 109.167C317.555 109.163 317.551 109.157 317.548 109.151C317.545 109.144 317.544 109.137 317.544 109.13C317.544 109.124 317.546 109.117 317.549 109.111L317.634 109.05C317.663 109.015 317.634 108.985 317.606 108.954C317.638 109.013 317.659 109.078 317.667 109.146V109.146L317.719 109.191H317.649C317.58 109.273 317.502 109.346 317.417 109.408C317.327 109.408 317.28 109.408 317.28 109.408C317.28 109.408 317.28 109.378 317.322 109.378L317.284 109.478C317.341 109.498 317.392 109.535 317.431 109.584C317.431 109.554 317.398 109.544 317.384 109.544C317.369 109.544 317.341 109.569 317.298 109.624C317.256 109.68 317.227 109.68 317.209 109.624L317.086 109.781C317.07 109.775 317.054 109.775 317.038 109.781C317.005 109.781 316.991 109.821 316.991 109.886C316.991 109.952 316.948 109.972 316.868 109.947C317.036 109.954 317.204 109.944 317.369 109.917L317.464 109.957C317.464 109.841 317.719 109.76 318.221 109.71C318.722 109.66 318.959 109.71 319.077 109.861L319.172 109.901C319.252 110.153 319.374 110.386 319.531 110.592C319.553 110.707 319.598 110.815 319.664 110.909C319.757 111.073 319.824 111.251 319.862 111.438C319.875 111.608 319.864 111.78 319.829 111.947V111.947ZM316.139 110.284C316.106 110.352 316.096 110.431 316.111 110.506L316.139 110.284Z" fill="white"/>
<path d="M329.995 114.712L329.607 116.224C329.247 116.785 328.854 117.322 328.429 117.831C328.033 118.355 327.566 118.813 327.043 119.191C326.877 119.335 326.719 119.49 326.57 119.654C326.256 119.782 325.977 119.994 325.761 120.269C325.437 120.422 325.132 120.618 324.853 120.853C324.796 120.853 324.702 120.924 324.569 120.989C324.475 121.048 324.37 121.088 324.262 121.105C323.975 121.349 323.656 121.548 323.316 121.695C322.935 121.902 322.545 122.088 322.147 122.254C321.757 122.375 321.373 122.52 320.998 122.687C320.937 122.74 320.882 122.799 320.832 122.863C320.747 122.964 320.685 123.014 320.638 123.019C320.615 123.024 320.591 123.024 320.567 123.019C320.255 123.1 320.094 122.989 320.037 122.687C319.997 122.469 319.938 122.255 319.862 122.047C319.783 121.834 319.754 121.605 319.777 121.377L319.81 121.226C319.826 121.203 319.845 121.183 319.868 121.169C319.891 121.154 319.916 121.144 319.943 121.14C319.974 121.143 320.004 121.152 320.033 121.166L320.127 121.196C320.159 121.182 320.187 121.16 320.208 121.132C320.23 121.104 320.244 121.07 320.25 121.035L321.466 120.616C321.557 120.576 321.69 120.506 321.863 120.405C322.32 120.107 322.754 119.77 323.16 119.397C323.937 118.769 324.668 118.077 325.345 117.327C325.984 116.526 326.548 115.66 327.029 114.743C326.177 115.134 325.348 115.578 324.546 116.073C324.354 116.118 324.176 116.211 324.025 116.345C323.881 116.472 323.708 116.558 323.524 116.591C323.485 116.655 323.435 116.709 323.377 116.753C323.157 117.002 322.961 117.274 322.791 117.564L322.899 117.508L322.838 117.609L322.786 117.544L322.748 117.644C322.533 117.58 322.322 117.505 322.114 117.418L322.142 117.246C322.053 117.246 321.977 117.141 321.915 116.914C321.867 116.751 321.84 116.581 321.835 116.41C322.056 116.031 322.306 115.672 322.582 115.337C323.055 114.687 323.387 114.289 323.529 114.143C323.67 113.997 323.765 113.785 323.95 113.493L324.058 113.433L324.03 113.387C324.252 113.12 324.583 112.728 325.023 112.214C325.05 112.112 325.104 112.02 325.179 111.952C325.025 112.001 324.867 112.033 324.706 112.047L324.749 111.997H324.659V112.068C324.574 112.108 324.125 112.365 323.316 112.838C322.893 113.099 322.427 113.27 321.944 113.342C321.901 113.342 321.873 113.307 321.868 113.226C321.784 113.204 321.697 113.204 321.613 113.226C321.472 113.041 321.34 112.848 321.22 112.647C321.095 112.456 321.041 112.223 321.069 111.992C321.073 111.846 321.105 111.702 321.163 111.569C321.107 111.433 321.086 111.283 321.102 111.136C321.121 111.005 321.3 110.813 321.641 110.561C321.873 110.37 322.129 110.216 322.403 110.103C322.479 110.006 322.587 109.943 322.705 109.927C322.784 109.907 322.853 109.857 322.899 109.786L322.951 109.851C322.951 109.72 322.984 109.655 323.046 109.65C323.107 109.644 323.093 109.65 323.141 109.71C323.206 109.647 323.278 109.592 323.353 109.544C323.353 109.574 323.391 109.584 323.406 109.584L323.51 109.503C323.552 109.463 323.585 109.463 323.599 109.503V109.428L323.675 109.493C323.698 109.456 323.73 109.425 323.767 109.404C323.804 109.383 323.846 109.372 323.888 109.372C323.921 109.372 323.954 109.332 323.997 109.267L324.082 109.206L324.11 109.277C324.171 109.22 324.248 109.186 324.328 109.181V109.206L324.456 109.121L324.494 109.262C324.497 109.188 324.521 109.118 324.565 109.06C324.673 109.06 324.721 109.116 324.711 109.166L324.673 109.221V109.267L324.621 109.201L324.56 109.302L324.517 109.332H324.47L324.404 109.584C324.388 109.579 324.372 109.579 324.356 109.584C324.293 109.602 324.234 109.633 324.183 109.677C324.131 109.72 324.089 109.774 324.058 109.836L324.03 109.765L323.902 109.876V109.922C323.876 110.043 323.825 110.157 323.751 110.254C323.583 110.355 323.432 110.486 323.306 110.642C323.301 110.657 323.301 110.673 323.306 110.687L323.382 110.728C323.382 110.664 323.462 110.598 323.623 110.531C323.779 110.471 323.864 110.435 323.879 110.435C323.894 110.442 323.911 110.442 323.926 110.435C323.953 110.434 323.979 110.422 323.998 110.402C324.017 110.381 324.029 110.354 324.03 110.325C324.322 110.276 324.606 110.181 324.872 110.042L325.705 109.665C325.855 109.6 326.001 109.528 326.145 109.448C326.167 109.457 326.193 109.457 326.215 109.448L326.315 109.413C326.354 109.394 326.395 109.382 326.438 109.377H326.504C326.631 109.316 326.754 109.247 326.873 109.171L327.076 109.126H327.256C327.341 109.106 327.422 109.072 327.497 109.025C327.503 109.032 327.511 109.038 327.519 109.043C327.527 109.047 327.536 109.05 327.545 109.05C327.6 109.03 327.651 108.999 327.696 108.959C327.735 108.968 327.775 108.968 327.814 108.959C327.918 108.941 328.018 108.902 328.108 108.843C328.193 108.788 328.288 108.751 328.387 108.733C328.477 108.733 328.529 108.813 328.548 109.01C328.63 109.081 328.691 109.178 328.721 109.287C328.751 109.395 328.75 109.511 328.718 109.619C328.771 109.656 328.815 109.706 328.846 109.765C328.877 109.824 328.895 109.889 328.898 109.957C328.898 110.123 328.945 110.279 328.973 110.42C328.87 110.536 328.797 110.678 328.761 110.833C328.633 110.944 328.434 111.1 328.164 111.307L328.25 111.277L328.103 111.388H328.075C327.737 111.637 327.421 111.917 327.128 112.224C326.819 112.521 326.536 112.849 326.282 113.201L326.414 113.141L326.353 113.216L326.551 113.171C326.796 113.107 327.033 113.018 327.261 112.904H327.464C327.487 112.9 327.508 112.89 327.527 112.875C327.545 112.86 327.559 112.841 327.568 112.818C327.659 112.82 327.746 112.786 327.814 112.722L327.942 112.657C327.942 112.657 327.942 112.707 327.862 112.763L328.018 112.697L328.041 112.722L328.103 112.667C328.103 112.667 328.103 112.667 328.131 112.667C328.07 112.667 328.131 112.637 328.325 112.551L328.377 112.617C328.379 112.588 328.39 112.561 328.409 112.542C328.429 112.522 328.455 112.511 328.481 112.511L328.576 112.546C328.654 112.483 328.745 112.441 328.841 112.425C329.007 112.425 329.148 112.642 329.267 113.12C329.385 113.599 329.546 113.836 329.74 113.816C329.864 114.082 329.913 114.381 329.882 114.677L329.995 114.712ZM324.943 108.985L324.881 109.065L324.801 108.949L324.943 108.985ZM328.306 114.304C328.202 114.329 328.046 114.38 327.833 114.45C327.724 114.614 327.656 114.805 327.635 115.005L326.305 117.211C327.221 116.471 327.912 115.46 328.292 114.304H328.306Z" fill="white"/>
<path d="M17.1955 76.0333C14.6929 76.1925 12.2511 76.919 10.0334 78.1642C9.08732 78.668 8.76564 79.2373 8.8981 80.411C9.94828 89.8415 10.9228 99.2871 11.9399 108.723C12.5217 114.098 13.1509 119.458 13.7564 124.843L14.1538 124.798C13.8384 115.126 13.5341 105.452 13.2408 95.7759L13.676 95.7305L14.7262 102.219H15.1425C15.6108 98.0176 17.0725 79.9073 17.1955 76.0333Z" fill="#004F79"/>
<path d="M21.7135 59.54C17.1769 57.8121 12.5031 58.5325 7.74888 58.3461C9.21535 57.9027 10.6629 57.4091 12.1436 57.0262C17.8723 55.5552 23.601 55.1169 29.3061 57.1572L29.7035 57.2831C33.8853 58.7944 34.3773 59.4846 34.2259 63.8069C34.1502 65.9731 33.9894 68.1342 33.8711 70.114C29.396 69.1468 25.1526 67.7413 20.8289 67.434C16.5052 67.1267 12.1057 67.9378 7.66846 68.2299C10.7386 65.3534 14.8826 65.2073 18.738 64.0588H7.93337C11.9449 60.5223 17.0208 60.7591 21.7135 59.54Z" fill="#004F79"/>
<path d="M2.04342 62.9404C1.34803 60.1697 0.600599 57.399 0.00927734 54.6182C0.0148953 54.3242 0.0976108 54.0377 0.24808 53.7911C0.398549 53.5445 0.610774 53.3477 0.86078 53.2228C7.687 50.0138 21.5192 48.976 29.4855 53.0515C29.6202 53.1058 29.7401 53.195 29.8343 53.3111C29.9285 53.4273 29.9939 53.5666 30.0248 53.7164C28.4968 53.3739 26.9925 52.9608 25.4361 52.7089C18.1084 51.4545 10.9937 51.7014 4.2526 54.5577C2.87127 55.1471 2.1948 55.8373 2.38876 57.1219C2.6584 59.0261 2.68678 60.9455 2.81924 62.8648L2.04342 62.9404Z" fill="#004F79"/>
<path d="M20.9656 70.9504C14.3949 70.0033 7.21859 71.2677 3.11719 75.0812C5.31217 77.6001 5.7332 77.6001 8.45327 75.9931C10.0664 75.0409 20.1331 71.0813 20.9656 70.9504Z" fill="#004F79"/>
<path d="M16.349 104.274L15.2136 97.2771L14.7406 97.3225C15.056 107.76 15.3839 118.2 15.7245 128.642L15.2941 128.687C14.6412 122.894 13.96 117.1 13.3356 111.312C12.2523 101.141 11.1927 90.9347 10.0573 80.7536C9.9154 79.4892 10.2797 78.8746 11.2825 78.3355C16.3348 75.6051 21.458 75.1769 26.7089 77.6303C29.727 79.0408 29.798 79.1416 29.3581 82.5873C27.9547 93.697 26.5355 104.805 25.1005 115.911C24.2301 122.857 23.3613 129.8 22.494 136.742C22.3615 137.775 22.2906 139.095 20.9329 138.722C20.4598 138.586 19.9868 137.306 19.9868 136.531C19.6273 123.256 19.334 109.982 19.0123 96.7079C19.0032 94.69 18.7746 92.68 18.3311 90.7181C17.8296 95.2352 17.3266 99.7557 16.822 104.279L16.349 104.274Z" fill="#73CDDB"/>
<path d="M23.9746 59.8322C19.438 57.9633 14.7642 58.739 10.01 58.5375C11.4764 58.064 12.924 57.53 14.4047 57.1169C20.1334 55.525 25.8621 55.0565 31.5672 57.2529L31.9645 57.394C36.1464 59.0262 36.6383 59.7667 36.487 64.4467C36.4113 66.7842 36.2457 69.1166 36.1274 71.2526C31.6523 70.2098 27.4137 68.6985 23.09 68.366C18.7662 68.0335 14.3621 68.8698 9.9248 69.2224C12.9949 66.1142 17.1389 65.9479 20.9991 64.7187H10.2039C14.2154 60.9002 19.2961 61.1521 23.9746 59.8322Z" fill="#73CDDB"/>
<path d="M3.68983 70.114C2.90456 65.7564 2.05778 61.4089 1.39077 57.0161C1.3767 56.5982 1.45498 56.1827 1.61931 55.8029C1.78364 55.4232 2.02944 55.0899 2.33689 54.8298C10.0619 49.7921 25.7106 48.1549 34.7271 54.5577C34.8952 54.6724 35.0371 54.8254 35.1427 55.0058C35.2483 55.1862 35.3148 55.3894 35.3374 55.6005C33.6107 55.0615 31.903 54.4217 30.1337 54.0036C21.841 52.0339 13.7943 52.3966 6.16865 56.9053C4.60283 57.8322 3.84121 58.9203 4.05881 60.9354C4.3663 63.9278 4.39468 66.9453 4.53187 69.9578L3.68983 70.114Z" fill="#73CDDB"/>
<path d="M4.47998 75.8015C11.3819 68.8244 28.3457 69.0461 34.8219 75.8368C32.4566 78.1239 32.3147 78.0836 29.7744 76.396C23.1515 71.983 16.4767 72.0384 9.85391 76.396C7.22371 78.1088 6.80269 78.1289 4.47998 75.8015Z" fill="#73CDDB"/>
<path d="M27.7165 39.9335C27.7165 39.6212 27.7165 39.2988 27.7165 38.9814C27.692 38.8588 27.7013 38.7313 27.7432 38.6142C27.7852 38.4971 27.8581 38.3955 27.953 38.3215C28.0781 38.237 28.1747 38.1125 28.2291 37.9659C28.2835 37.8192 28.2929 37.658 28.2558 37.5054C28.2049 37.1704 28.2687 36.8272 28.4356 36.5381C28.5545 36.3467 28.6238 36.1251 28.6362 35.896C28.6487 35.6668 28.604 35.4382 28.5065 35.2334C28.417 35.0712 28.3907 34.8781 28.4331 34.6955C28.4756 34.5129 28.5834 34.3552 28.7336 34.2561C29.0505 34.0042 29.3769 33.7523 29.6797 33.5256C29.9115 33.3493 30.2048 33.2284 30.2001 32.8455C30.1953 32.4627 30.2758 32.0446 29.8831 31.7423C29.5861 31.4756 29.3078 31.186 29.0505 30.8758C28.3362 30.1504 28.0429 29.1731 27.6976 28.2311C27.6742 28.0742 27.6742 27.9144 27.6976 27.7575C27.6976 26.9616 27.6598 26.1656 27.6976 25.3797C27.6756 24.532 27.532 23.6927 27.2718 22.8911C27.2718 22.8408 27.1489 22.7904 27.1536 22.7551C27.2908 21.9189 26.6285 21.3043 26.6001 20.5134C26.6001 20.468 26.4818 20.3824 26.4251 20.3824C26.3683 20.3824 26.2548 20.4882 26.2595 20.5335C26.2518 21.1507 26.293 21.7675 26.3825 22.3773C26.5621 22.9798 26.5386 23.63 26.3163 24.2161C26.289 24.2666 26.2683 24.3208 26.2548 24.3773C26.0653 26.0271 25.5838 27.6237 24.8356 29.0824C24.1895 30.3433 23.4256 31.5315 22.5555 32.6289C21.6425 33.7926 20.6632 34.8959 19.7171 36.0293C19.4119 36.4207 19.1529 36.8504 18.946 37.3089C18.4793 38.1786 18.114 39.1057 17.858 40.0695C17.8392 40.1293 17.8076 40.1836 17.7657 40.2282C17.7239 40.2728 17.6729 40.3064 17.6167 40.3265C17.5553 40.3265 17.437 40.2156 17.3708 40.1199C16.8813 39.2798 16.3442 38.4723 15.7624 37.7018C15.411 37.3065 15.0173 36.9565 14.5892 36.6591C13.9837 36.2359 13.4822 35.6515 12.749 35.4047C12.3213 35.1769 11.9224 34.8926 11.5616 34.5584C10.6522 33.9713 9.80798 33.2767 9.04495 32.4879C8.83681 32.2713 8.50567 32.1201 8.32591 31.8582C7.55009 30.7297 6.55667 29.7827 5.90858 28.5384C5.27403 27.2012 4.74705 25.8092 4.3333 24.3773C4.3333 24.3218 4.26235 24.2614 4.27181 24.2161C4.39953 23.5209 4.09677 22.8811 4.09677 22.201C4.03871 21.5307 4.03871 20.8562 4.09677 20.1859C4.38061 18.584 4.68337 16.9971 5.58691 15.6067C5.98246 14.9095 6.43016 14.2474 6.92566 13.6269C7.59133 12.9501 8.31512 12.3412 9.08753 11.8083C10.4499 10.7554 11.9259 9.95446 13.345 8.98219C14.9403 7.85011 16.3987 6.5135 17.6877 5.00245C18.1193 4.41823 18.4712 3.77208 18.7332 3.0831C18.8712 2.73264 18.9912 2.37444 19.0927 2.01008C19.2407 1.4347 19.3592 0.851142 19.4475 0.262014C19.4693 0.17634 19.4962 0.0922131 19.5279 0.0101318C19.6324 0.0347957 19.734 0.0719756 19.8307 0.120961C20.3037 0.418182 20.3652 0.992473 20.4882 1.44586C20.6456 1.98424 20.7704 2.53278 20.8619 3.08814C20.9376 3.65791 20.9376 4.2362 20.8619 4.80598C20.7666 5.69059 20.5778 6.5609 20.299 7.40037C20.0719 8.03007 19.6745 8.58422 19.5799 9.27437C19.5232 9.69754 18.9744 9.87889 19.0785 10.3877C18.6054 10.8915 18.7994 11.7227 18.3831 12.2718C18.4209 13.0677 18.2033 13.8838 18.6102 14.6395C18.8136 15.0223 18.9129 15.4505 19.1447 15.8384C19.2354 16.0002 19.356 16.1407 19.4991 16.2516C19.6421 16.3624 19.8048 16.4412 19.9773 16.4833C20.3003 16.5591 20.6363 16.5435 20.9518 16.4379C21.8648 16.2112 22.3189 15.5009 22.844 14.8158C23.5536 13.909 23.8848 12.7604 24.6227 11.8788C24.916 11.5161 25.1242 11.0779 25.408 10.7C25.9189 10.0199 26.6805 9.7328 27.3901 9.37009C27.4705 9.32475 27.6408 9.44565 27.7449 9.52122C27.9247 9.63708 27.7449 9.69754 27.6929 9.78822C27.402 10.5311 27.2063 11.3122 27.111 12.1106C27.1076 12.8972 27.2916 13.672 27.6456 14.3624C27.8348 14.7906 28.0666 15.2037 28.2511 15.6218C28.55 16.2009 28.8967 16.7505 29.2871 17.2641C29.5679 17.8075 29.884 18.3293 30.2332 18.8258C31.2503 19.9542 31.9598 21.3043 32.8066 22.5587C33.1123 22.9446 33.3553 23.3822 33.5257 23.8533C33.6487 24.3218 33.9987 24.6443 34.1312 25.1228C34.2636 25.6014 34.4954 26.1656 34.713 26.6694C34.99 27.3028 35.1506 27.9868 35.1861 28.6844C35.2193 29.0742 35.2762 29.4612 35.3564 29.8431C35.4084 30.2058 35.2287 30.6088 35.4794 30.9312C35.1388 31.6667 35.451 32.4728 35.2523 33.2536C35.0868 33.9085 34.9921 34.5886 34.8218 35.2687C34.7823 35.5315 34.7189 35.7896 34.6326 36.0394C34.0744 37.1679 33.6865 38.3819 32.887 39.3743C32.6576 39.5987 32.4571 39.8545 32.291 40.135C32.1089 40.4673 31.852 40.746 31.5436 40.9461C30.6684 41.5607 30.0392 42.543 28.9985 42.9108C28.0524 43.9183 26.7988 44.3515 25.7581 45.1777C25.0727 45.6184 24.3617 46.0121 23.6293 46.3565C22.8062 46.8603 22.0209 47.4245 21.212 47.9635C21.0701 48.0593 20.8667 48.2708 20.8004 48.2255C20.5983 48.1128 20.4332 47.937 20.3274 47.7217C20.2155 47.4128 20.1547 47.0855 20.1476 46.7545C20.0815 46.2844 19.9787 45.821 19.8401 45.3691C19.7216 44.8194 19.7138 44.2492 19.8174 43.6961C19.9209 43.1429 20.1335 42.6194 20.4409 42.1602C20.6023 41.905 20.8257 41.7013 21.0873 41.5709C21.3489 41.4404 21.6389 41.3882 21.9263 41.4196C22.6792 41.5016 23.4216 41.6706 24.1402 41.9234C24.5615 42.1248 25.0232 42.2114 25.4837 42.1753C25.8413 42.1526 26.1999 42.1526 26.5575 42.1753C26.8353 42.189 27.1069 42.0847 27.3127 41.8855C27.5184 41.6862 27.6415 41.4082 27.655 41.1123V41.0519C27.7307 40.6338 27.7165 40.2862 27.7165 39.9335Z" fill="url(#paint0_linear_98_36)"/>
<path d="M15.5636 42.9611C15.5636 43.0417 15.5636 43.3591 15.4312 43.4145C15.1189 43.5707 15.2088 43.1576 15.0858 43.0216C14.8257 42.7445 14.6128 42.407 14.381 42.1047C13.8171 41.4617 13.1363 40.9475 12.3799 40.5935C11.6514 40.1904 10.8094 39.868 10.0762 39.4096C9.34337 39.0127 8.66919 38.5035 8.07513 37.8983C7.63045 37.3945 7.16213 36.8908 6.68907 36.4172C6.08095 35.7855 5.62914 35.0032 5.37397 34.1402C5.19421 33.581 4.759 33.1327 4.77792 32.4929C4.77792 32.4274 4.61708 32.3468 4.62654 32.2864C4.6415 31.8879 4.58035 31.4902 4.44678 31.1176C4.44678 31.0521 4.49881 30.9564 4.53193 30.8809C4.62181 30.9262 4.74007 30.9564 4.79211 31.037C5.44164 32.0064 6.20829 32.8804 7.07224 33.6365C7.98188 34.4144 8.9293 35.1408 9.91059 35.8127C10.5776 36.3165 11.2966 36.6993 11.9731 37.1628C13.183 38.0054 14.1986 39.1282 14.9439 40.4474C15.1834 41.0114 15.3719 41.5984 15.5069 42.2005C15.5478 42.4516 15.5668 42.7063 15.5636 42.9611V42.9611Z" fill="url(#paint1_linear_98_36)"/>
<defs>
<linearGradient id="paint0_linear_98_36" x1="19.7928" y1="48.1953" x2="19.7928" y2="-0.00497993" gradientUnits="userSpaceOnUse">
<stop stop-color="#F26428"/>
<stop offset="1" stop-color="#F1EB4D"/>
</linearGradient>
<linearGradient id="paint1_linear_98_36" x1="10.0005" y1="43.4498" x2="10.0005" y2="30.8557" gradientUnits="userSpaceOnUse">
<stop stop-color="#F26428"/>
<stop offset="1" stop-color="#F1EB4D"/>
</linearGradient>
</defs>
</svg>
