<svg width="200" height="202" viewBox="0 0 200 202" fill="none" xmlns="http://www.w3.org/2000/svg">
<path d="M126.907 0.719566C125.972 1.16632 124.348 2.3035 123.333 3.23761L121.464 4.984L117.89 4.29356C111.27 3.03455 109.808 3.48129 105.016 8.51738C97.5429 16.3152 97.1367 16.8838 97.1367 19.6455C97.1367 21.6356 97.7865 23.0571 99.4111 24.5598L100.833 25.9L100.142 27.2403C99.0049 29.3522 99.1674 32.3982 100.508 34.3883C101.929 36.5814 102.904 37.0282 110.499 39.1401C123.333 42.7141 130.684 45.6789 133.364 48.3594C136.085 51.0805 140.147 60.6247 142.624 70.1283C143.233 72.5245 144.045 72.7682 148.757 71.7934C153.59 70.8187 154.402 70.4532 156.27 68.6662C158.504 66.5137 159.154 64.6048 159.682 58.6346C159.925 55.751 160.21 53.3142 160.291 53.233C160.413 53.1112 175.074 50.7556 176.049 50.715C176.211 50.715 176.333 51.4054 176.333 52.2583C176.333 54.3702 177.267 55.5886 178.892 55.5886C180.841 55.5886 197.534 53.4767 198.59 53.1112C199.077 52.9081 199.646 52.3395 199.849 51.8521C200.295 50.6337 199.686 32.9668 198.874 24.641C197.859 14.0408 196.518 6.85223 195.381 5.79627C194.691 5.18707 193.919 5.18707 184.375 6.24302C178.73 6.85223 173.815 7.50204 173.45 7.70512C172.637 8.11125 172.272 8.96413 172.272 10.345C172.272 11.5228 172.109 11.5634 165.489 12.0914C162.687 12.3351 160.007 12.3351 159.357 12.132C158.666 11.9695 156.758 10.873 155.092 9.73579C149.285 5.83688 142.462 2.79086 135.435 0.963249C130.805 -0.255157 129.181 -0.295776 126.907 0.719566ZM135.395 6.03996C141.974 7.86757 145.995 9.73579 152.98 14.2033C157.935 17.3712 158.869 17.5742 166.545 16.8838C170.85 16.5183 172.8 16.4777 172.881 16.8026C173.206 17.8585 175.643 45.4758 175.399 45.6789C175.277 45.8007 171.013 46.5317 165.896 47.3034C158.869 48.3594 156.514 48.8467 155.986 49.3747C155.499 49.9433 155.214 51.5678 154.849 56.5227C154.361 63.6301 153.955 64.8891 151.721 65.9451C150.99 66.27 149.61 66.6761 148.635 66.798L146.888 67.0416L145.142 61.5994C144.208 58.6346 142.421 54.1265 141.203 51.6491C137.425 43.8919 134.745 41.9018 122.561 37.7592C119.352 36.6626 115.291 35.363 113.545 34.8756C105.259 32.6013 104.853 32.4388 104.407 31.3423C103.919 30.002 105.666 26.7529 106.762 26.9966C111.351 28.0119 116.916 29.5552 120.977 30.8955C126.419 32.6825 127.759 32.7231 128.409 30.9767C128.978 29.5146 128.287 28.4587 126.257 27.5652C123.495 26.3468 115.25 23.9506 108.833 22.4885C105.544 21.7574 102.66 21.0264 102.416 20.8639C101.604 20.3766 102.051 18.752 103.351 17.493L104.691 16.1934L107.899 16.762C115.494 18.1022 122.601 20.2547 128.003 22.7728C131.171 24.2755 131.536 24.3567 132.471 23.8287C133.567 23.2195 133.892 22.326 133.527 20.9045C132.999 18.8332 119.068 13.5535 110.864 12.3351C109.768 12.1726 108.915 11.8883 108.915 11.7259C108.915 11.5634 109.646 10.7511 110.539 9.93886C112.529 8.15186 112.854 8.15186 119.677 9.65457C125.891 11.076 131.09 12.8224 135.395 15.0562C138.116 16.437 138.644 16.5995 139.456 16.1527C141.487 15.0968 141.568 13.391 139.659 11.9695C138.116 10.7917 133.242 8.51738 130.034 7.46143C127.11 6.52732 126.866 6.24302 128.247 5.47136C129.871 4.61848 130.521 4.65909 135.395 6.03996ZM192.741 14.7313C193.919 22.326 194.691 32.1139 194.731 40.5615L194.813 48.8873L187.989 49.6996L181.166 50.5525L181.004 49.7402C180.801 48.6843 177.552 13.8784 177.552 12.7006C177.552 11.8883 177.917 11.8071 183.156 11.2385C186.202 10.873 189.492 10.5887 190.386 10.5481L192.051 10.5075L192.741 14.7313Z" fill="white" fill-opacity="0.8"/>
<path d="M187.178 40.0742C185.716 41.6581 186.894 44.2168 189.005 44.2168C189.98 44.2168 191.361 42.7953 191.361 41.78C191.361 40.6834 189.94 39.3432 188.802 39.3432C188.274 39.3432 187.543 39.6681 187.178 40.0742Z" fill="white" fill-opacity="0.8"/>
<path d="M51.1625 32.7227L35.8105 48.0746V69.6405C35.8105 90.0285 35.8512 91.2469 36.5416 91.8561C37.5569 92.7902 38.7753 92.709 39.7095 91.6937C40.4405 90.8814 40.4811 89.8661 40.603 71.1838L40.7248 51.5268H51.7717C62.8186 51.5268 62.8592 51.5268 64.9305 50.5114C67.2455 49.3336 68.9919 47.1811 69.5605 44.7443C69.7635 43.8914 69.926 38.4898 69.926 32.7227V22.285H79.4702C88.4864 22.285 89.055 22.2444 89.8267 21.4727C90.842 20.4574 90.842 19.8075 89.7861 18.4673L88.9738 17.4113H77.7238H66.5145L51.1625 32.7227ZM64.8493 43.2822C64.7275 44.0133 64.0776 45.0286 63.3872 45.5972L62.1282 46.6531H53.1526H44.1363L54.4928 36.2967L64.8493 25.9402L64.9711 33.9411C65.0524 38.368 64.9711 42.5512 64.8493 43.2822Z" fill="white" fill-opacity="0.8"/>
<path d="M96.5276 56.5626C83.7343 59.04 73.3778 67.1221 67.8543 78.9407C65.2551 84.4235 64.4834 88.4443 64.4834 95.5923C64.524 102.294 65.0926 105.258 67.4888 110.863C70.0881 116.955 76.0177 124.184 81.2974 127.636C85.2776 130.276 84.9527 129.18 84.9527 140.308C84.9527 149.04 85.0339 150.421 85.7649 152.817C87.7144 159.112 92.9129 163.255 100.02 164.148C111.676 165.61 120.124 160.33 121.952 150.421C122.195 149.121 122.317 145.872 122.236 143.232C122.074 137.099 122.195 137.221 115.941 137.221H111.352V133.079C111.352 128.043 112.083 126.215 114.804 124.266C119.515 120.895 124.307 115.006 125.972 110.497C128.531 103.796 127.556 95.7953 123.657 90.6374C121.342 87.5914 115.575 85.317 111.595 85.845C109.361 86.1293 106.315 87.3071 105.178 88.3631C104.082 89.3378 104.244 91.1654 105.503 92.0183C106.397 92.5869 106.722 92.6275 107.859 92.1807C111.839 90.5156 112.57 90.3937 114.722 90.8811C117.565 91.5309 119.555 92.993 120.855 95.3892C122.195 97.826 122.805 102.294 122.277 105.502C121.546 110.051 118.093 115.29 113.179 119.229C107.493 123.859 106.762 125.24 106.559 132.226L106.397 137.221H103.797H101.198V133.363C101.198 126.134 100.264 124.144 94.7406 119.554C92.9536 118.092 90.5574 115.696 89.4202 114.234C87.5519 111.96 87.1458 111.635 85.9274 111.635C84.8308 111.635 84.4247 111.838 84.0998 112.609C83.8155 113.178 83.7343 114.031 83.8561 114.559C84.2622 116.102 87.9581 120.285 91.7351 123.494C95.959 127.027 96.2839 127.718 96.2839 133.241L96.3245 137.221H93.116H89.9075L89.7451 133.038C89.5826 128.002 89.014 126.865 85.1964 124.387C69.6413 114.315 64.6865 94.4551 73.7027 78.3315C76.0583 74.1483 82.0285 68.0968 86.3741 65.5788C96.1214 59.9335 107.696 59.4055 118.134 64.1167C126.46 67.8938 133.73 76.3414 136.491 85.3983C140.025 97.0138 136.776 110.376 128.206 119.148C126.663 120.773 123.982 123.006 122.277 124.144C118.784 126.459 117.809 127.718 117.525 130.195C117.322 132.226 118.175 133.566 119.759 133.566C120.977 133.566 122.317 132.226 122.317 130.967C122.317 130.195 122.967 129.545 125.282 128.043C133.933 122.275 140.309 112.609 142.259 102.172C142.868 98.8414 142.868 91.3279 142.259 88.2818C140.512 79.6717 136.776 72.8486 130.602 66.9597C125.282 61.883 120.165 59.04 113.139 57.1718C108.996 56.0752 100.589 55.7909 96.5276 56.5626ZM117.362 146.237C117.119 151.274 116.144 153.954 113.707 156.147C111.392 158.219 109.037 159.153 105.381 159.396C99.8173 159.843 95.9996 158.706 93.116 155.782C90.7198 153.385 89.8263 150.664 89.8263 145.953V142.095H103.676H117.565L117.362 146.237Z" fill="white" fill-opacity="0.8"/>
<path d="M169.917 57.2535C169.43 57.4565 168.821 58.0657 168.618 58.6749C168.333 59.3654 168.211 70.8184 168.211 90.3536L168.252 120.976L148.229 149.609L128.207 178.241H94.4976C57.0925 178.241 58.9607 178.12 58.9607 180.841C58.9607 181.531 59.1638 182.343 59.4481 182.628C59.8136 182.993 67.652 183.115 92.1421 183.115C109.85 183.115 124.349 183.237 124.349 183.44C124.349 183.602 123.902 184.415 123.333 185.227C120.125 189.979 122.156 196.03 127.476 197.574C129.425 198.142 129.832 198.142 131.781 197.574C133.121 197.167 134.38 196.477 135.152 195.624C135.842 194.893 143.437 184.212 151.966 171.946C160.535 159.64 167.683 149.446 167.886 149.243C168.049 149 168.211 154.848 168.211 162.158V175.48L166.831 176.861L165.45 178.241H160.332C155.418 178.241 155.134 178.282 154.2 179.257C153.022 180.394 152.941 180.963 153.834 182.222C154.403 183.074 154.728 183.115 160.21 183.115C166.709 183.115 168.211 182.668 170.526 180.232C173.288 177.307 173.288 177.47 173.41 158.341L173.532 141.08L182.507 128.287C187.462 121.261 192.133 114.316 192.864 112.854C193.839 110.945 194.529 108.752 195.219 104.934C195.788 102.05 196.235 99.1261 196.235 98.3951C196.235 97.0142 195.179 95.7958 194.001 95.7958C192.823 95.7958 183.198 101.482 181.167 103.391C180.111 104.365 177.999 106.965 176.497 109.198C174.953 111.432 173.572 113.26 173.41 113.26C173.207 113.26 173.085 100.873 173.085 85.683C173.085 64.1172 172.963 58.0251 172.598 57.7408C171.704 57.0504 170.892 56.8879 169.917 57.2535ZM190.102 105.746C189.858 107.086 189.371 108.873 189.046 109.726C188.437 111.27 133.243 190.588 131.659 192.213C130.684 193.187 128.654 193.228 127.598 192.253C125.567 190.426 124.836 191.603 154.646 148.878C169.998 126.946 183.198 108.305 184.01 107.452C185.269 106.112 190.102 102.944 190.427 103.269C190.508 103.309 190.346 104.447 190.102 105.746Z" fill="white" fill-opacity="0.8"/>
<path d="M87.7962 90.9223C83.4505 92.425 80.4857 97.1362 80.3233 102.822C80.2827 105.828 80.8513 106.762 82.7195 106.762C84.141 106.762 84.8314 105.543 85.1157 102.7C85.4406 99.7355 86.5778 97.3393 88.2836 96.0803C89.4207 95.2274 94.5381 94.4963 94.2538 95.2274C94.1725 95.4305 93.5633 96.6895 92.8729 98.0297C91.817 100.182 91.6545 100.913 91.6545 103.919C91.6545 106.843 91.817 107.696 92.7511 109.645C94.1725 112.529 96.3251 113.869 99.0462 113.544C101.442 113.3 102.783 112.244 104.042 109.767C104.895 108.102 105.057 107.249 105.016 104.325C104.976 99.6137 103.879 96.7707 100.833 93.7247C97.2592 90.1507 92.7511 89.176 87.7962 90.9223ZM99.3711 99.9792C101.483 105.056 99.3305 111.635 97.0155 107.168C96.122 105.462 96.2845 101.929 97.2998 99.9386C98.1527 98.2734 98.6807 98.314 99.3711 99.9792Z" fill="white" fill-opacity="0.8"/>
<path d="M20.1742 96.8924C18.1841 97.989 9.57404 104.609 8.63993 105.787C7.25906 107.533 6.89354 109.726 7.17784 114.234L7.46213 118.336L5.39084 120.083C2.22297 122.763 1.53254 124.388 1.81684 128.896C2.22297 135.922 4.29427 143.273 8.19318 151.396C9.53343 154.158 10.63 156.798 10.63 157.244C10.63 157.732 10.1426 160.615 9.53343 163.702L8.43686 169.307H6.97477C6.1625 169.307 5.18777 169.55 4.82225 169.794C4.3755 170.159 3.482 173.49 1.93868 180.475C-0.254457 190.344 -0.295071 190.669 0.395361 191.603C2.06052 193.878 17.4531 197.574 36.3384 200.254C45.5171 201.554 45.5577 201.554 46.37 200.782C47.3447 199.767 51.8934 181.328 51.5279 179.785C51.2436 178.77 49.7815 177.835 48.4007 177.835C47.9945 177.835 47.5072 177.673 47.3853 177.429C47.1823 177.104 49.6191 167.032 50.8781 163.011L51.2436 161.793L56.6046 161.915C63.3465 162.077 64.971 161.671 67.5297 159.194C69.1948 157.569 69.601 156.798 70.6976 153.345C72.119 148.837 72.2409 147.578 71.2661 146.969C70.86 146.725 68.6263 145.751 66.2707 144.817C57.2951 141.243 49.7815 136.288 47.9945 132.754C46.3294 129.465 44.0144 119.555 42.3492 108.63C41.8619 105.543 41.2121 102.497 40.8871 101.888C39.3844 98.9637 35.0388 97.7859 31.8709 99.4105L30.2058 100.223L29.1904 98.8825C28.6218 98.1515 27.5253 97.2173 26.7536 96.8518C24.9666 96.0395 21.7581 96.0395 20.1742 96.8924ZM25.2103 101.644C25.454 101.929 26.0226 105.178 26.4693 108.833C27.3222 115.493 28.9467 124.428 29.7184 126.419C30.4494 128.327 32.8863 128.612 34.0234 126.906C34.5108 126.094 34.4702 125.484 33.5767 121.545C32.6426 117.443 30.7744 105.543 31.018 105.34C31.6679 104.812 34.7545 103.512 35.4043 103.512C36.4603 103.512 36.7852 104.406 37.435 108.995C38.8159 119.149 41.8619 131.658 43.8113 135.232C45.842 139.009 49.4566 141.892 57.3357 146.076C59.4476 147.213 62.4124 148.594 63.9151 149.203L66.5956 150.259L65.8239 152.614C65.3772 153.914 64.5649 155.417 63.9963 155.945C62.981 156.879 62.7779 156.919 55.5081 156.919C50.6344 156.919 47.8727 157.082 47.5884 157.366C47.3447 157.61 46.0451 162.037 44.6642 167.235C42.6335 174.992 42.0649 176.617 41.537 176.414C40.9684 176.251 13.5542 170.525 13.2699 170.525C13.2293 170.525 13.676 168.007 14.3258 164.92C16.0316 156.676 15.991 156.31 12.9044 149.812C11.4423 146.807 9.81772 142.948 9.24913 141.283C7.9495 137.344 6.56863 130.521 6.56863 128.002C6.56863 126.175 7.38091 124.225 8.15256 124.225C8.35563 124.225 8.72116 125.363 9.00545 126.743C9.65527 130.074 12.0109 136.694 12.945 137.709C13.9197 138.806 15.9098 138.562 16.6814 137.181C17.2094 136.247 17.1282 135.922 16.1128 133.363C14.4071 129.099 13.148 123.616 12.4576 117.28C11.6453 110.336 11.8078 109.239 13.7979 107.574C14.6101 106.924 15.3818 106.355 15.5036 106.355C15.6661 106.355 15.991 108.427 16.2347 110.904C17.2094 120.205 20.0117 130.602 21.8394 131.82C23.0984 132.632 24.7229 132.226 25.3321 130.967C25.657 130.155 25.5352 129.343 24.5199 126.581C22.611 121.261 21.352 114.275 20.6616 104.812C20.4991 102.903 20.6209 102.578 21.5144 101.888C22.6922 100.954 24.5199 100.832 25.2103 101.644ZM27.4847 178.485C37.7599 180.597 46.2075 182.384 46.2481 182.425C46.3294 182.547 43.1209 195.827 42.9178 196.03C42.5523 196.396 29.1498 194.365 20.3773 192.619C12.9856 191.116 5.71575 189.167 5.47206 188.557C5.39084 188.273 5.91881 185.105 6.73109 181.531C7.54336 177.957 8.19318 174.911 8.19318 174.789C8.19318 174.464 7.86827 174.383 27.4847 178.485Z" fill="white" fill-opacity="0.8"/>
<path d="M34.7544 187.827C33.2517 190.06 35.7698 192.578 38.0035 191.076C38.7346 190.629 39.0595 190.06 39.0595 189.248C39.0595 186.852 36.0135 185.836 34.7544 187.827Z" fill="white" fill-opacity="0.8"/>
</svg>
