<svg width="200" height="158" viewBox="0 0 200 158" fill="none" xmlns="http://www.w3.org/2000/svg">
<path d="M11.2005 0.312485C7.17266 1.24998 3.14484 4.64842 1.26779 8.67186L0.172846 11.0156L0.055531 32.1875C-0.0617844 53.0469 -0.0617844 53.3594 0.759423 54.1797C1.81526 55.2344 4.00515 55.2344 5.06099 54.1797C5.76488 53.4766 5.84309 52.8906 5.84309 46.7578V40.1172H100.086H194.33V92.1094C194.33 131.953 194.212 144.492 193.86 145.742C193.235 147.852 190.341 150.742 188.229 151.367C186.978 151.719 171.531 151.836 120.929 151.836C55.3893 151.836 55.272 151.836 54.4116 152.617C53.2385 153.711 53.2385 155.82 54.4116 156.914L55.272 157.695L122.181 157.617L189.051 157.5L191.436 156.406C194.447 155 197.458 151.992 198.905 148.906L200 146.562V78.7891V11.0156L198.788 8.47655C197.224 5.23436 194.799 2.81248 191.592 1.28905L189.051 0.0781097L100.869 -1.52588e-05C50.462 -1.52588e-05 12.0608 0.117172 11.2005 0.312485ZM190.067 7.10936C191.006 7.77342 192.296 9.06248 192.961 9.99998L194.134 11.6797L194.252 22.9687L194.369 34.2578H100.126H5.84309V23.789C5.84309 17.5 5.99951 12.7344 6.27324 11.8359C6.82072 9.8828 9.51897 7.03123 11.5133 6.32811C12.8429 5.85936 25.8649 5.78123 100.751 5.85936L188.386 5.93748L190.067 7.10936Z" fill="white" fill-opacity="0.8"/>
<path d="M16.4403 12.0313C14.6023 12.9688 12.8035 15.1563 12.0605 17.3438C11.0047 20.625 12.6471 25.1172 15.6973 27.1484C17.1442 28.0859 17.6917 28.2031 20.5463 28.2031C23.4792 28.2031 23.9094 28.0859 25.4736 27.0313C27.6244 25.5469 29.3059 22.3828 29.3059 19.8047C29.3059 17.2266 27.6244 14.0625 25.4736 12.5781C24.0658 11.6016 23.3228 11.4063 20.9765 11.2891C18.6693 11.2109 17.8481 11.3281 16.4403 12.0313ZM22.658 17.8516C24.4177 19.6094 23.0882 22.5391 20.5072 22.5391C17.9654 22.5391 16.6749 19.7656 18.3564 17.9297C19.4123 16.7969 21.6022 16.7969 22.658 17.8516Z" fill="white" fill-opacity="0.8"/>
<path d="M42.4061 11.875C37.0878 14.6484 35.6018 21.1719 39.395 25.3516C41.3112 27.5 43.2664 28.3984 45.9256 28.3984C51.1266 28.3984 54.7242 24.8828 54.7242 19.8047C54.7242 16.1719 52.769 13.1641 49.5624 11.8359C47.6853 11.0547 43.9312 11.0547 42.4061 11.875ZM48.2328 17.9297C48.5847 18.3984 48.8585 19.2578 48.8585 19.8047C48.8585 21.5234 47.8417 22.5391 46.1211 22.5391C44.948 22.5391 44.4396 22.3047 43.8139 21.5234C43.3446 20.9375 42.9927 20.1953 42.9927 19.8047C42.9927 19.4141 43.3446 18.6719 43.8139 18.0859C44.8697 16.7188 47.3334 16.6406 48.2328 17.9297Z" fill="white" fill-opacity="0.8"/>
<path d="M67.043 11.953C60.356 15.039 60.5516 24.9608 67.3168 27.7733C69.624 28.7499 72.8697 28.5936 75.0987 27.3827C82.9588 23.0858 79.8695 11.1718 70.9144 11.2108C69.5066 11.2108 67.9815 11.5233 67.043 11.953ZM73.0652 18.0858C73.5345 18.6718 73.8864 19.414 73.8864 19.8046C73.8864 21.1327 72.3613 22.539 70.9144 22.539C68.4508 22.539 67.1994 19.9999 68.6463 17.9296C69.5457 16.6405 72.0094 16.7186 73.0652 18.0858Z" fill="white" fill-opacity="0.8"/>
<path d="M93.0865 12.0703C88.7068 14.2188 87.1426 19.9219 89.6844 24.2578C91.0531 26.5625 93.0865 27.9297 96.0194 28.3984C99.1478 28.9062 177.71 28.9062 180.838 28.3984C182.285 28.1641 183.771 27.6172 184.749 26.9141C186.782 25.4688 188.464 22.3047 188.464 19.8047C188.464 17.2656 186.782 14.1406 184.593 12.5781L182.911 11.4062L154.169 11.2891C127.695 11.2109 125.348 11.25 124.644 11.8359C123.628 12.7734 123.706 15.1562 124.762 16.1328C125.544 16.8359 126.756 16.875 153.504 17.0703C180.799 17.2656 181.386 17.2656 181.972 18.0469C183.458 20 182.168 22.3438 179.392 22.7344C178.453 22.8516 159.331 22.9297 136.923 22.8516L96.0976 22.7344L95.1591 21.6406C94.1033 20.3906 93.986 19.1797 94.8463 18.0469C95.3937 17.3047 96.0194 17.2656 104.74 17.0703C113.226 16.875 114.164 16.7969 114.907 16.1328C115.963 15.1562 116.041 12.7734 115.025 11.875C114.399 11.2891 113.069 11.2109 104.544 11.2109C95.3546 11.2109 94.729 11.25 93.0865 12.0703Z" fill="white" fill-opacity="0.8"/>
<path d="M0.759419 63.9455C-0.0226832 64.7268 -0.0226832 65.0392 0.055527 105.664L0.172842 146.563L1.26779 148.906C2.71467 151.992 5.72577 155 8.73686 156.406L11.1223 157.5L27.3509 157.617C43.3449 157.735 43.5795 157.735 44.4789 156.914C45.6521 155.821 45.6521 153.711 44.4789 152.617C43.6577 151.875 43.1885 151.836 28.5632 151.836C19.0997 151.836 12.9211 151.68 11.9826 151.406C9.91002 150.86 6.82071 147.774 6.27324 145.781C5.9604 144.688 5.84308 132.031 5.84308 104.453C5.84308 65.2346 5.84308 64.7268 5.06098 63.9455C4.00514 62.8908 1.81526 62.8908 0.759419 63.9455Z" fill="white" fill-opacity="0.8"/>
<path d="M22.8536 70C22.3061 70.5078 21.876 71.4062 21.876 71.9531C21.876 72.5 22.3061 73.3984 22.8536 73.9062L23.7921 74.8828H47.6462H71.5004L72.2825 73.8672C73.3774 72.5 73.2992 71.1719 72.1261 70L71.1875 69.0234H47.4898H23.7921L22.8536 70Z" fill="white" fill-opacity="0.8"/>
<path d="M22.6972 89.5699C21.7587 90.7809 21.6805 91.2496 22.3453 92.6559C22.619 93.2809 23.2838 93.7887 24.1832 94.0621C25.1218 94.3355 49.9926 94.4137 101.377 94.3355L177.202 94.2184L178.179 93.0855C179.235 91.8746 179.157 90.5074 178.023 89.2184C177.436 88.5934 173.252 88.5543 100.438 88.5543H23.4794L22.6972 89.5699Z" fill="white" fill-opacity="0.8"/>
<path d="M23.5574 105.742C21.7195 106.484 21.3675 108.789 22.8535 110.234L23.7921 111.211H80.3381H136.884L137.901 110.195C138.683 109.414 138.839 108.984 138.644 107.969C138.096 105.352 142.945 105.547 80.8073 105.469C48.7802 105.43 24.0658 105.547 23.5574 105.742Z" fill="white" fill-opacity="0.8"/>
<path d="M147.873 105.742C147.013 106.094 146.23 107.539 146.23 108.711C146.23 109.023 146.661 109.727 147.208 110.234L148.147 111.211H162.459C171.805 111.211 177.045 111.055 177.554 110.781C179.431 109.805 179.274 106.68 177.28 105.781C176.068 105.234 149.242 105.234 147.873 105.742Z" fill="white" fill-opacity="0.8"/>
<path d="M22.6975 123.555C21.6025 124.922 21.6807 126.25 22.8539 127.422L23.7924 128.398H100.243H176.693L177.749 127.5C179.118 126.289 179.235 124.297 177.945 123.242C177.084 122.578 174.308 122.539 100.282 122.539H23.4796L22.6975 123.555Z" fill="white" fill-opacity="0.8"/>
</svg>
